<svg id="svg" xmlns="http://www.w3.org/2000/svg" xmlns:xlink="http://www.w3.org/1999/xlink" width="400" height="400" viewBox="0, 0, 400,400"><g id="svgg"><path id="path0" d="M309.394 32.454 C 302.138 34.486,295.832 39.205,291.406 45.918 L 290.234 47.695 270.313 43.431 C 211.099 30.757,215.293 30.809,212.763 42.718 C 212.140 45.649,207.606 67.383,202.686 91.016 C 197.766 114.648,193.561 134.775,193.340 135.742 C 192.967 137.377,192.517 137.501,186.899 137.515 C 155.536 137.591,112.355 150.975,85.842 168.838 L 81.450 171.798 79.719 169.956 C 63.559 152.754,27.714 160.250,16.368 183.203 C 6.561 203.044,16.263 232.923,34.379 238.673 C 35.794 239.122,35.866 239.715,35.449 247.507 C 31.857 314.592,111.494 369.539,207.422 366.162 C 297.504 362.991,365.117 312.573,363.980 249.418 L 363.808 239.852 368.427 236.860 C 397.035 218.333,392.637 175.254,360.907 163.198 C 348.213 158.374,332.734 160.402,322.090 168.282 L 317.578 171.622 312.010 167.884 C 287.033 151.111,242.727 137.500,213.109 137.500 C 210.626 137.500,208.610 137.236,208.630 136.914 C 208.842 133.443,227.209 50.391,227.765 50.391 C 228.178 50.391,241.753 53.200,257.932 56.633 L 287.348 62.875 287.823 66.399 C 290.995 89.943,322.147 98.963,338.666 81.120 C 358.596 59.594,337.533 24.577,309.394 32.454 M147.318 205.137 C 169.518 215.639,169.255 246.722,146.875 257.339 C 123.576 268.392,98.014 242.830,109.067 219.531 C 116.069 204.772,133.044 198.384,147.318 205.137 M276.155 205.090 C 298.526 215.740,298.409 246.669,275.957 257.268 C 257.122 266.160,235.768 252.176,235.631 230.859 C 235.500 210.435,257.712 196.310,276.155 205.090 M138.528 296.970 C 139.466 297.453,141.113 298.660,142.188 299.652 C 164.580 320.349,230.774 320.373,257.363 299.694 C 262.941 295.355,265.495 295.062,268.810 298.377 C 280.497 310.064,243.979 327.971,205.414 329.464 C 172.172 330.751,135.617 319.443,129.145 305.870 C 126.389 300.091,132.788 294.021,138.528 296.970 " stroke="none" fill="#000000" fill-rule="evenodd"></path></g></svg>