<svg id="svg" xmlns="http://www.w3.org/2000/svg" xmlns:xlink="http://www.w3.org/1999/xlink" width="400" height="400" viewBox="0, 0, 400,400"><g id="svgg"><path id="path0" d="M208.511 144.833 L 208.333 283.000 206.869 288.132 C 192.168 339.673,122.648 346.313,99.678 298.370 C 79.130 255.484,119.409 205.864,164.667 218.309 C 166.683 218.864,168.558 219.321,168.833 219.325 C 169.108 219.330,169.333 204.968,169.333 187.411 L 169.333 155.489 167.833 155.057 C 163.932 153.935,144.195 153.866,136.000 154.947 C 34.615 168.314,-6.048 289.583,67.210 360.100 C 132.317 422.771,242.635 393.323,267.683 306.586 C 272.253 290.760,272.164 292.760,272.030 208.722 L 271.910 133.111 273.455 134.205 C 302.191 154.546,331.689 165.014,363.500 166.161 L 370.000 166.395 370.000 134.964 L 370.000 103.534 363.419 103.102 C 314.161 99.874,272.000 56.820,272.000 9.748 L 272.000 6.667 240.344 6.667 L 208.688 6.667 208.511 144.833 " stroke="none" fill="#000000" fill-rule="evenodd"></path></g></svg>