<svg id="svg" xmlns="http://www.w3.org/2000/svg" xmlns:xlink="http://www.w3.org/1999/xlink" width="400" height="400" viewBox="0, 0, 400,400"><g id="svgg"><path id="path0" d="M87.891 59.423 C 30.935 61.944,8.978 76.163,1.777 115.189 C 0.111 124.222,-0.726 244.443,0.763 260.938 C 5.805 316.797,30.601 337.541,96.094 340.692 C 125.155 342.091,313.396 341.186,325.391 339.590 C 373.677 333.167,392.500 314.849,398.587 268.359 C 400.051 257.176,400.059 130.013,398.596 120.063 C 392.136 76.117,371.680 62.160,309.637 59.367 C 290.638 58.512,107.434 58.559,87.891 59.423 M178.723 146.797 C 237.904 176.551,260.322 189.099,262.210 193.530 C 266.563 203.745,265.577 204.522,214.512 231.161 C 165.013 256.983,165.721 256.722,159.174 251.572 C 154.606 247.979,154.688 248.958,154.688 197.849 L 154.688 151.012 156.464 148.376 C 161.559 140.816,166.176 140.489,178.723 146.797 " stroke="none" fill="#000000" fill-rule="evenodd"></path></g></svg>