<svg id="svg" xmlns="http://www.w3.org/2000/svg" xmlns:xlink="http://www.w3.org/1999/xlink" width="400" height="400" viewBox="0, 0, 400,400"><g id="svgg"><path id="path0" d="M182.813 25.527 C 178.851 27.175,2.134 154.389,1.142 156.307 C -0.810 160.083,-0.353 166.649,2.064 169.520 C 4.358 172.247,179.994 297.999,183.222 299.226 C 188.309 301.160,194.388 299.188,197.445 294.611 L 199.219 291.956 199.219 258.478 L 199.219 225.000 201.870 225.000 C 217.970 225.000,248.220 231.007,266.906 237.914 C 319.999 257.539,361.129 304.006,375.077 360.122 C 378.106 372.307,380.215 374.609,388.350 374.609 C 393.850 374.609,393.869 374.602,397.041 371.202 L 400.220 367.794 399.767 348.155 C 396.599 210.653,323.581 117.691,206.078 101.562 L 199.265 100.626 199.047 65.951 L 198.828 31.275 195.938 28.385 C 193.023 25.471,186.410 24.031,182.813 25.527 M176.953 117.887 C 179.839 122.787,181.595 123.508,193.466 124.670 C 283.890 133.522,346.826 191.389,368.311 285.431 C 368.666 286.987,366.997 285.219,362.780 279.572 C 326.654 231.193,268.431 203.107,199.957 201.027 C 174.560 200.256,175.477 198.958,175.158 236.133 C 175.029 251.064,174.748 263.281,174.531 263.281 C 174.315 263.281,142.339 240.568,103.474 212.807 L 32.809 162.332 103.709 111.691 L 174.609 61.050 175.000 88.142 C 175.365 113.434,175.494 115.411,176.953 117.887 " stroke="none" fill="#000000" fill-rule="evenodd"></path></g></svg>