<svg id="svg" xmlns="http://www.w3.org/2000/svg" xmlns:xlink="http://www.w3.org/1999/xlink" width="400" height="400" viewBox="0, 0, 400,400"><g id="svgg"><path id="path0" d="M205.078 25.112 C 137.317 27.837,77.745 55.881,43.848 101.013 C 0.001 159.392,-13.677 258.823,14.429 314.878 C 43.396 372.653,152.009 395.901,194.775 353.481 C 203.793 344.537,203.589 346.261,196.820 336.137 C 164.639 288.012,171.180 247.658,214.950 224.288 C 256.402 202.155,304.083 209.722,337.500 243.734 C 349.782 256.235,355.618 257.423,370.054 250.360 C 404.688 233.415,411.249 141.034,380.949 96.939 C 348.803 50.157,280.095 22.096,205.078 25.112 M161.328 79.260 C 196.832 91.218,207.555 131.469,182.066 157.098 C 150.521 188.814,93.773 167.933,93.773 124.609 C 93.773 92.077,129.058 68.391,161.328 79.260 M259.464 78.910 C 280.192 82.779,291.817 104.095,282.984 122.036 C 273.208 141.892,245.240 146.140,229.310 130.188 C 207.687 108.536,228.505 73.133,259.464 78.910 M337.057 118.016 C 348.639 122.350,354.545 135.141,349.775 145.560 C 341.618 163.379,316.530 164.074,307.859 146.721 C 299.050 129.094,317.689 110.770,337.057 118.016 M94.215 177.042 C 117.148 183.515,124.116 211.964,106.695 227.996 C 91.791 241.714,66.120 238.910,55.716 222.430 C 39.994 197.524,64.486 168.651,94.215 177.042 M114.219 260.234 C 143.170 266.239,134.576 307.579,105.494 302.209 C 81.101 297.705,80.682 264.991,104.956 260.189 C 109.545 259.281,109.627 259.281,114.219 260.234 " stroke="none" fill="#000000" fill-rule="evenodd"></path></g></svg>