<svg id="svg" xmlns="http://www.w3.org/2000/svg" xmlns:xlink="http://www.w3.org/1999/xlink" width="400" height="400" viewBox="0, 0, 400,400"><g id="svgg"><path id="path0" d="M15.011 51.668 C -5.087 59.391,-4.938 90.823,15.233 98.370 L 19.590 100.000 200.000 100.000 L 380.410 100.000 384.767 98.370 C 405.073 90.772,405.073 59.228,384.767 51.630 L 380.410 50.000 199.775 50.041 C 20.146 50.081,19.118 50.090,15.011 51.668 M15.011 176.668 C -5.087 184.391,-4.938 215.823,15.233 223.370 L 19.590 225.000 200.000 225.000 L 380.410 225.000 384.767 223.370 C 405.073 215.772,405.073 184.228,384.767 176.630 L 380.410 175.000 199.775 175.041 C 20.146 175.081,19.118 175.090,15.011 176.668 M15.011 301.668 C -5.087 309.391,-4.938 340.823,15.233 348.370 L 19.590 350.000 200.000 350.000 L 380.410 350.000 384.767 348.370 C 405.073 340.772,405.073 309.228,384.767 301.630 L 380.410 300.000 199.775 300.041 C 20.146 300.081,19.118 300.090,15.011 301.668 " stroke="none" fill="#000000" fill-rule="evenodd"></path></g></svg>