<svg id="svg" xmlns="http://www.w3.org/2000/svg" xmlns:xlink="http://www.w3.org/1999/xlink" width="400" height="400" viewBox="0, 0, 400,400"><g id="svgg"><path id="path0" d="M110.570 34.012 C 106.783 35.455,103.476 38.492,101.491 42.352 C 100.041 45.170,100.000 48.892,100.000 177.084 L 100.000 308.919 79.492 288.583 C 58.086 267.356,56.824 266.398,50.300 266.411 C 37.585 266.435,29.403 279.988,35.210 291.406 C 38.540 297.952,107.855 365.356,112.326 366.395 C 116.938 367.467,120.826 366.987,124.964 364.834 C 129.192 362.635,197.325 293.996,198.794 290.455 C 203.464 279.206,195.103 266.387,183.112 266.411 C 176.545 266.423,175.515 267.209,154.108 288.521 L 133.607 308.932 133.405 176.408 L 133.203 43.884 130.825 40.497 C 126.423 34.228,117.500 31.371,110.570 34.012 M176.172 67.882 C 164.477 73.317,163.013 90.041,173.592 97.373 L 176.819 99.609 265.765 99.814 C 353.133 100.016,354.765 99.992,357.749 98.470 C 369.170 92.643,370.125 76.643,359.497 69.173 L 356.116 66.797 267.706 66.613 C 182.964 66.438,179.167 66.490,176.172 67.882 M177.937 133.917 C 163.973 138.934,162.216 157.651,175.035 164.844 L 178.516 166.797 266.797 166.797 C 364.174 166.797,356.839 167.166,362.003 162.003 C 369.799 154.207,368.184 140.907,358.768 135.372 L 355.078 133.203 267.969 133.035 C 196.678 132.898,180.329 133.058,177.937 133.917 M176.172 201.100 C 165.301 205.918,163.078 221.516,172.130 229.464 C 177.011 233.749,175.926 233.689,243.488 233.437 L 306.116 233.203 309.497 230.827 C 320.115 223.363,319.170 207.357,307.768 201.540 C 303.885 199.559,180.579 199.147,176.172 201.100 " stroke="none" fill="#000000" fill-rule="evenodd"></path></g></svg>