<svg id="svg" version="1.1" xmlns="http://www.w3.org/2000/svg" xmlns:xlink="http://www.w3.org/1999/xlink" width="400" height="400" viewBox="0, 0, 400,400"><g id="svgg"><path id="path0" d="M178.700 0.273 C 176.555 0.359,174.800 0.602,174.800 0.814 C 174.800 1.027,173.551 1.200,172.024 1.200 C 170.497 1.200,169.136 1.380,169.000 1.600 C 168.864 1.820,167.773 2.000,166.576 2.000 C 165.379 2.000,164.400 2.180,164.400 2.400 C 164.400 2.620,163.421 2.800,162.224 2.800 C 161.027 2.800,159.936 2.980,159.800 3.200 C 159.664 3.420,158.944 3.600,158.200 3.600 C 157.456 3.600,156.736 3.780,156.600 4.000 C 156.464 4.220,155.553 4.400,154.576 4.400 C 153.599 4.400,152.800 4.580,152.800 4.800 C 152.800 5.020,152.080 5.200,151.200 5.200 C 150.320 5.200,149.600 5.380,149.600 5.600 C 149.600 5.820,148.981 6.000,148.224 6.000 C 147.467 6.000,146.736 6.180,146.600 6.400 C 146.464 6.620,145.823 6.800,145.176 6.800 C 144.529 6.800,144.000 6.980,144.000 7.200 C 144.000 7.420,143.370 7.600,142.600 7.600 C 141.830 7.600,141.200 7.780,141.200 8.000 C 141.200 8.220,140.771 8.400,140.246 8.400 C 139.222 8.400,135.447 9.440,134.305 10.037 C 133.923 10.237,133.336 10.400,133.000 10.400 C 132.664 10.400,132.077 10.559,131.695 10.753 C 131.313 10.948,130.460 11.329,129.800 11.600 C 129.140 11.871,128.287 12.252,127.905 12.447 C 127.523 12.641,126.848 12.800,126.405 12.800 C 125.962 12.800,125.600 12.980,125.600 13.200 C 125.600 13.420,125.240 13.600,124.800 13.600 C 124.360 13.600,124.000 13.780,124.000 14.000 C 124.000 14.220,123.460 14.400,122.800 14.400 C 122.140 14.400,121.600 14.580,121.600 14.800 C 121.600 15.020,121.240 15.200,120.800 15.200 C 120.360 15.200,120.000 15.380,120.000 15.600 C 120.000 15.820,119.640 16.000,119.200 16.000 C 118.760 16.000,118.400 16.180,118.400 16.400 C 118.400 16.620,117.961 16.800,117.424 16.800 C 116.887 16.800,116.336 16.980,116.200 17.200 C 116.064 17.420,115.603 17.600,115.176 17.600 C 114.749 17.600,114.400 17.780,114.400 18.000 C 114.400 18.220,114.040 18.400,113.600 18.400 C 113.160 18.400,112.800 18.580,112.800 18.800 C 112.800 19.020,112.440 19.200,112.000 19.200 C 111.560 19.200,111.200 19.346,111.200 19.525 C 111.200 19.704,110.570 20.098,109.800 20.400 C 109.030 20.702,108.400 21.096,108.400 21.275 C 108.400 21.454,108.040 21.600,107.600 21.600 C 107.160 21.600,106.800 21.780,106.800 22.000 C 106.800 22.220,106.440 22.400,106.000 22.400 C 105.560 22.400,105.200 22.580,105.200 22.800 C 105.200 23.020,104.880 23.200,104.488 23.200 C 104.097 23.200,103.517 23.560,103.200 24.000 C 102.883 24.440,102.387 24.800,102.098 24.800 C 101.396 24.800,97.435 26.809,97.267 27.251 C 97.193 27.443,96.956 27.600,96.739 27.600 C 96.522 27.600,95.559 28.140,94.600 28.800 C 93.641 29.460,92.703 30.000,92.516 30.000 C 92.329 30.000,91.917 30.360,91.600 30.800 C 91.283 31.240,90.703 31.600,90.312 31.600 C 89.920 31.600,89.600 31.750,89.600 31.932 C 89.600 32.115,89.105 32.519,88.500 32.830 C 87.895 33.140,87.109 33.711,86.753 34.097 C 86.397 34.484,85.852 34.800,85.541 34.800 C 85.231 34.800,84.717 35.160,84.400 35.600 C 84.083 36.040,83.620 36.400,83.371 36.400 C 83.122 36.400,82.354 36.940,81.663 37.600 C 80.972 38.260,80.208 38.800,79.964 38.800 C 79.720 38.800,79.017 39.340,78.400 40.000 C 77.783 40.660,77.164 41.200,77.023 41.200 C 76.740 41.200,76.063 41.731,74.599 43.100 C 74.070 43.595,73.466 44.000,73.259 44.000 C 73.051 44.000,72.005 44.857,70.935 45.905 C 69.865 46.953,68.362 48.255,67.595 48.799 C 66.828 49.342,64.439 51.590,62.287 53.793 C 57.582 58.611,58.611 57.582,53.793 62.287 C 51.590 64.439,49.342 66.828,48.799 67.595 C 48.255 68.362,46.953 69.865,45.905 70.935 C 44.857 72.005,44.000 73.051,44.000 73.259 C 44.000 73.466,43.595 74.070,43.100 74.599 C 41.731 76.063,41.200 76.740,41.200 77.023 C 41.200 77.164,40.660 77.783,40.000 78.400 C 39.340 79.017,38.800 79.720,38.800 79.964 C 38.800 80.208,38.260 80.972,37.600 81.663 C 36.940 82.354,36.400 83.122,36.400 83.371 C 36.400 83.620,36.040 84.083,35.600 84.400 C 35.160 84.717,34.800 85.231,34.800 85.541 C 34.800 85.852,34.484 86.397,34.097 86.753 C 33.711 87.109,33.140 87.895,32.830 88.500 C 32.519 89.105,32.115 89.600,31.932 89.600 C 31.750 89.600,31.600 89.920,31.600 90.312 C 31.600 90.703,31.240 91.283,30.800 91.600 C 30.360 91.917,30.000 92.329,30.000 92.516 C 30.000 92.703,29.460 93.641,28.800 94.600 C 28.140 95.559,27.600 96.522,27.600 96.739 C 27.600 96.956,27.443 97.193,27.251 97.267 C 26.809 97.435,24.800 101.396,24.800 102.098 C 24.800 102.387,24.440 102.883,24.000 103.200 C 23.560 103.517,23.200 104.097,23.200 104.488 C 23.200 104.880,23.020 105.200,22.800 105.200 C 22.580 105.200,22.400 105.560,22.400 106.000 C 22.400 106.440,22.220 106.800,22.000 106.800 C 21.780 106.800,21.600 107.160,21.600 107.600 C 21.600 108.040,21.454 108.400,21.275 108.400 C 21.096 108.400,20.702 109.030,20.400 109.800 C 20.098 110.570,19.704 111.200,19.525 111.200 C 19.346 111.200,19.200 111.560,19.200 112.000 C 19.200 112.440,19.020 112.800,18.800 112.800 C 18.580 112.800,18.400 113.160,18.400 113.600 C 18.400 114.040,18.220 114.400,18.000 114.400 C 17.780 114.400,17.600 114.749,17.600 115.176 C 17.600 115.603,17.420 116.064,17.200 116.200 C 16.980 116.336,16.800 116.887,16.800 117.424 C 16.800 117.961,16.620 118.400,16.400 118.400 C 16.180 118.400,16.000 118.760,16.000 119.200 C 16.000 119.640,15.820 120.000,15.600 120.000 C 15.380 120.000,15.200 120.360,15.200 120.800 C 15.200 121.240,15.020 121.600,14.800 121.600 C 14.580 121.600,14.400 122.140,14.400 122.800 C 14.400 123.460,14.220 124.000,14.000 124.000 C 13.780 124.000,13.600 124.360,13.600 124.800 C 13.600 125.240,13.420 125.600,13.200 125.600 C 12.980 125.600,12.800 125.962,12.800 126.405 C 12.800 126.848,12.641 127.523,12.447 127.905 C 12.252 128.287,11.871 129.140,11.600 129.800 C 11.329 130.460,10.948 131.313,10.753 131.695 C 10.559 132.077,10.400 132.664,10.400 133.000 C 10.400 133.336,10.237 133.923,10.037 134.305 C 9.440 135.447,8.400 139.222,8.400 140.246 C 8.400 140.771,8.220 141.200,8.000 141.200 C 7.780 141.200,7.600 141.830,7.600 142.600 C 7.600 143.370,7.420 144.000,7.200 144.000 C 6.980 144.000,6.800 144.529,6.800 145.176 C 6.800 145.823,6.620 146.464,6.400 146.600 C 6.180 146.736,6.000 147.467,6.000 148.224 C 6.000 148.981,5.820 149.600,5.600 149.600 C 5.380 149.600,5.200 150.320,5.200 151.200 C 5.200 152.080,5.020 152.800,4.800 152.800 C 4.580 152.800,4.400 153.599,4.400 154.576 C 4.400 155.553,4.220 156.464,4.000 156.600 C 3.780 156.736,3.600 157.456,3.600 158.200 C 3.600 158.944,3.420 159.664,3.200 159.800 C 2.980 159.936,2.800 161.027,2.800 162.224 C 2.800 163.421,2.620 164.400,2.400 164.400 C 2.180 164.400,2.000 165.379,2.000 166.576 C 2.000 167.773,1.820 168.864,1.600 169.000 C 1.380 169.136,1.200 170.482,1.200 171.990 C 1.200 173.829,1.035 174.788,0.700 174.900 C -0.032 175.144,-0.032 224.856,0.700 225.100 C 1.035 225.212,1.200 226.171,1.200 228.010 C 1.200 229.518,1.380 230.864,1.600 231.000 C 1.820 231.136,2.000 232.227,2.000 233.424 C 2.000 234.621,2.180 235.600,2.400 235.600 C 2.620 235.600,2.800 236.579,2.800 237.776 C 2.800 238.973,2.980 240.064,3.200 240.200 C 3.420 240.336,3.600 241.056,3.600 241.800 C 3.600 242.544,3.780 243.264,4.000 243.400 C 4.220 243.536,4.400 244.447,4.400 245.424 C 4.400 246.401,4.580 247.200,4.800 247.200 C 5.020 247.200,5.200 247.920,5.200 248.800 C 5.200 249.680,5.380 250.400,5.600 250.400 C 5.820 250.400,6.000 251.019,6.000 251.776 C 6.000 252.533,6.180 253.264,6.400 253.400 C 6.620 253.536,6.800 254.177,6.800 254.824 C 6.800 255.471,6.980 256.000,7.200 256.000 C 7.420 256.000,7.600 256.630,7.600 257.400 C 7.600 258.170,7.780 258.800,8.000 258.800 C 8.220 258.800,8.400 259.229,8.400 259.754 C 8.400 260.778,9.440 264.553,10.037 265.695 C 10.237 266.077,10.400 266.664,10.400 267.000 C 10.400 267.336,10.559 267.923,10.753 268.305 C 10.948 268.687,11.329 269.540,11.600 270.200 C 11.871 270.860,12.252 271.713,12.447 272.095 C 12.641 272.477,12.800 273.152,12.800 273.595 C 12.800 274.038,12.980 274.400,13.200 274.400 C 13.420 274.400,13.600 274.760,13.600 275.200 C 13.600 275.640,13.780 276.000,14.000 276.000 C 14.220 276.000,14.400 276.540,14.400 277.200 C 14.400 277.860,14.580 278.400,14.800 278.400 C 15.020 278.400,15.200 278.760,15.200 279.200 C 15.200 279.640,15.380 280.000,15.600 280.000 C 15.820 280.000,16.000 280.360,16.000 280.800 C 16.000 281.240,16.180 281.600,16.400 281.600 C 16.620 281.600,16.800 282.039,16.800 282.576 C 16.800 283.113,16.980 283.664,17.200 283.800 C 17.420 283.936,17.600 284.397,17.600 284.824 C 17.600 285.251,17.780 285.600,18.000 285.600 C 18.220 285.600,18.400 285.960,18.400 286.400 C 18.400 286.840,18.580 287.200,18.800 287.200 C 19.020 287.200,19.200 287.560,19.200 288.000 C 19.200 288.440,19.346 288.800,19.525 288.800 C 19.704 288.800,20.098 289.430,20.400 290.200 C 20.702 290.970,21.096 291.600,21.275 291.600 C 21.454 291.600,21.600 291.960,21.600 292.400 C 21.600 292.840,21.780 293.200,22.000 293.200 C 22.220 293.200,22.400 293.560,22.400 294.000 C 22.400 294.440,22.580 294.800,22.800 294.800 C 23.020 294.800,23.200 295.120,23.200 295.512 C 23.200 295.903,23.560 296.483,24.000 296.800 C 24.440 297.117,24.800 297.613,24.800 297.902 C 24.800 298.604,26.809 302.565,27.251 302.733 C 27.443 302.807,27.600 303.044,27.600 303.261 C 27.600 303.478,28.140 304.441,28.800 305.400 C 29.460 306.359,30.000 307.297,30.000 307.484 C 30.000 307.671,30.360 308.083,30.800 308.400 C 31.240 308.717,31.600 309.297,31.600 309.688 C 31.600 310.080,31.750 310.400,31.932 310.400 C 32.115 310.400,32.519 310.895,32.830 311.500 C 33.140 312.105,33.711 312.891,34.097 313.247 C 34.484 313.603,34.800 314.148,34.800 314.459 C 34.800 314.769,35.160 315.283,35.600 315.600 C 36.040 315.917,36.400 316.380,36.400 316.629 C 36.400 316.878,36.940 317.646,37.600 318.337 C 38.260 319.028,38.800 319.792,38.800 320.036 C 38.800 320.280,39.340 320.983,40.000 321.600 C 40.660 322.217,41.200 322.836,41.200 322.977 C 41.200 323.260,41.731 323.937,43.100 325.401 C 43.595 325.930,44.000 326.534,44.000 326.741 C 44.000 326.949,44.857 327.995,45.905 329.065 C 46.953 330.135,48.255 331.638,48.799 332.405 C 49.342 333.172,51.590 335.561,53.793 337.713 C 58.611 342.418,57.582 341.389,62.287 346.207 C 64.439 348.410,66.828 350.658,67.595 351.201 C 68.362 351.745,69.865 353.047,70.935 354.095 C 72.005 355.143,73.042 356.000,73.240 356.000 C 73.437 356.000,74.266 356.630,75.082 357.400 C 75.899 358.170,76.727 358.800,76.923 358.800 C 77.119 358.800,77.783 359.340,78.400 360.000 C 79.017 360.660,79.720 361.200,79.964 361.200 C 80.208 361.200,80.972 361.740,81.663 362.400 C 82.354 363.060,83.122 363.600,83.371 363.600 C 83.620 363.600,84.083 363.960,84.400 364.400 C 84.717 364.840,85.231 365.200,85.541 365.200 C 85.852 365.200,86.397 365.516,86.753 365.903 C 87.109 366.289,87.895 366.860,88.500 367.170 C 89.105 367.481,89.600 367.885,89.600 368.068 C 89.600 368.250,89.920 368.400,90.312 368.400 C 90.703 368.400,91.283 368.760,91.600 369.200 C 91.917 369.640,92.329 370.000,92.516 370.000 C 92.703 370.000,93.641 370.540,94.600 371.200 C 95.559 371.860,96.537 372.400,96.772 372.400 C 97.007 372.400,97.200 372.542,97.200 372.716 C 97.200 373.113,101.277 375.200,102.052 375.200 C 102.366 375.200,102.883 375.560,103.200 376.000 C 103.517 376.440,104.097 376.800,104.488 376.800 C 104.880 376.800,105.200 376.980,105.200 377.200 C 105.200 377.420,105.560 377.600,106.000 377.600 C 106.440 377.600,106.800 377.780,106.800 378.000 C 106.800 378.220,107.160 378.400,107.600 378.400 C 108.040 378.400,108.400 378.546,108.400 378.725 C 108.400 378.904,109.030 379.298,109.800 379.600 C 110.570 379.902,111.200 380.296,111.200 380.475 C 111.200 380.654,111.560 380.800,112.000 380.800 C 112.440 380.800,112.800 380.980,112.800 381.200 C 112.800 381.420,113.160 381.600,113.600 381.600 C 114.040 381.600,114.400 381.780,114.400 382.000 C 114.400 382.220,114.749 382.400,115.176 382.400 C 115.603 382.400,116.064 382.580,116.200 382.800 C 116.336 383.020,116.887 383.200,117.424 383.200 C 117.961 383.200,118.400 383.380,118.400 383.600 C 118.400 383.820,118.760 384.000,119.200 384.000 C 119.640 384.000,120.000 384.180,120.000 384.400 C 120.000 384.620,120.360 384.800,120.800 384.800 C 121.240 384.800,121.600 384.980,121.600 385.200 C 121.600 385.420,122.140 385.600,122.800 385.600 C 123.460 385.600,124.000 385.780,124.000 386.000 C 124.000 386.220,124.360 386.400,124.800 386.400 C 125.240 386.400,125.600 386.580,125.600 386.800 C 125.600 387.020,125.962 387.200,126.405 387.200 C 126.848 387.200,127.523 387.359,127.905 387.553 C 128.287 387.748,129.140 388.129,129.800 388.400 C 130.460 388.671,131.313 389.052,131.695 389.247 C 132.077 389.441,132.741 389.600,133.171 389.600 C 133.601 389.600,134.064 389.780,134.200 390.000 C 134.336 390.220,134.876 390.400,135.400 390.400 C 135.924 390.400,136.456 390.567,136.583 390.772 C 136.709 390.977,137.800 391.267,139.006 391.418 C 140.213 391.569,141.200 391.851,141.200 392.046 C 141.200 392.241,141.830 392.400,142.600 392.400 C 143.370 392.400,144.000 392.580,144.000 392.800 C 144.000 393.020,144.529 393.200,145.176 393.200 C 145.823 393.200,146.464 393.380,146.600 393.600 C 146.736 393.820,147.467 394.000,148.224 394.000 C 148.981 394.000,149.600 394.180,149.600 394.400 C 149.600 394.620,150.320 394.800,151.200 394.800 C 152.080 394.800,152.800 394.980,152.800 395.200 C 152.800 395.420,153.599 395.600,154.576 395.600 C 155.553 395.600,156.464 395.780,156.600 396.000 C 156.736 396.220,157.456 396.400,158.200 396.400 C 158.944 396.400,159.664 396.580,159.800 396.800 C 159.936 397.020,161.027 397.200,162.224 397.200 C 163.421 397.200,164.400 397.380,164.400 397.600 C 164.400 397.820,165.379 398.000,166.576 398.000 C 167.773 398.000,168.864 398.180,169.000 398.400 C 169.136 398.620,170.482 398.800,171.990 398.800 C 173.829 398.800,174.788 398.965,174.900 399.300 C 175.144 400.032,224.856 400.032,225.100 399.300 C 225.212 398.965,226.171 398.800,228.010 398.800 C 229.518 398.800,230.864 398.620,231.000 398.400 C 231.136 398.180,232.227 398.000,233.424 398.000 C 234.621 398.000,235.600 397.820,235.600 397.600 C 235.600 397.380,236.579 397.200,237.776 397.200 C 238.973 397.200,240.064 397.020,240.200 396.800 C 240.336 396.580,241.056 396.400,241.800 396.400 C 242.544 396.400,243.264 396.220,243.400 396.000 C 243.536 395.780,244.447 395.600,245.424 395.600 C 246.401 395.600,247.200 395.420,247.200 395.200 C 247.200 394.980,247.920 394.800,248.800 394.800 C 249.680 394.800,250.400 394.620,250.400 394.400 C 250.400 394.180,251.019 394.000,251.776 394.000 C 252.533 394.000,253.264 393.820,253.400 393.600 C 253.536 393.380,254.177 393.200,254.824 393.200 C 255.471 393.200,256.000 393.020,256.000 392.800 C 256.000 392.580,256.630 392.400,257.400 392.400 C 258.170 392.400,258.800 392.241,258.800 392.046 C 258.800 391.851,259.787 391.569,260.994 391.418 C 262.200 391.267,263.291 390.977,263.417 390.772 C 263.544 390.567,264.076 390.400,264.600 390.400 C 265.124 390.400,265.664 390.220,265.800 390.000 C 265.936 389.780,266.399 389.600,266.829 389.600 C 267.259 389.600,267.923 389.441,268.305 389.247 C 268.687 389.052,269.540 388.671,270.200 388.400 C 270.860 388.129,271.713 387.748,272.095 387.553 C 272.477 387.359,273.152 387.200,273.595 387.200 C 274.038 387.200,274.400 387.020,274.400 386.800 C 274.400 386.580,274.760 386.400,275.200 386.400 C 275.640 386.400,276.000 386.220,276.000 386.000 C 276.000 385.780,276.540 385.600,277.200 385.600 C 277.860 385.600,278.400 385.420,278.400 385.200 C 278.400 384.980,278.760 384.800,279.200 384.800 C 279.640 384.800,280.000 384.620,280.000 384.400 C 280.000 384.180,280.360 384.000,280.800 384.000 C 281.240 384.000,281.600 383.820,281.600 383.600 C 281.600 383.380,282.039 383.200,282.576 383.200 C 283.113 383.200,283.664 383.020,283.800 382.800 C 283.936 382.580,284.397 382.400,284.824 382.400 C 285.251 382.400,285.600 382.220,285.600 382.000 C 285.600 381.780,285.960 381.600,286.400 381.600 C 286.840 381.600,287.200 381.420,287.200 381.200 C 287.200 380.980,287.560 380.800,288.000 380.800 C 288.440 380.800,288.800 380.654,288.800 380.475 C 288.800 380.296,289.430 379.902,290.200 379.600 C 290.970 379.298,291.600 378.904,291.600 378.725 C 291.600 378.546,291.960 378.400,292.400 378.400 C 292.840 378.400,293.200 378.220,293.200 378.000 C 293.200 377.780,293.560 377.600,294.000 377.600 C 294.440 377.600,294.800 377.420,294.800 377.200 C 294.800 376.980,295.120 376.800,295.512 376.800 C 295.903 376.800,296.483 376.440,296.800 376.000 C 297.117 375.560,297.634 375.200,297.948 375.200 C 298.723 375.200,302.800 373.113,302.800 372.716 C 302.800 372.542,302.993 372.400,303.228 372.400 C 303.463 372.400,304.441 371.860,305.400 371.200 C 306.359 370.540,307.297 370.000,307.484 370.000 C 307.671 370.000,308.083 369.640,308.400 369.200 C 308.717 368.760,309.297 368.400,309.688 368.400 C 310.080 368.400,310.400 368.250,310.400 368.068 C 310.400 367.885,310.895 367.481,311.500 367.170 C 312.105 366.860,312.891 366.289,313.247 365.903 C 313.603 365.516,314.148 365.200,314.459 365.200 C 314.769 365.200,315.283 364.840,315.600 364.400 C 315.917 363.960,316.380 363.600,316.629 363.600 C 316.878 363.600,317.646 363.060,318.337 362.400 C 319.028 361.740,319.792 361.200,320.036 361.200 C 320.280 361.200,320.983 360.660,321.600 360.000 C 322.217 359.340,322.881 358.800,323.077 358.800 C 323.273 358.800,324.101 358.170,324.918 357.400 C 325.734 356.630,326.563 356.000,326.760 356.000 C 326.958 356.000,327.995 355.143,329.065 354.095 C 330.135 353.047,331.638 351.745,332.405 351.201 C 333.172 350.658,335.561 348.410,337.713 346.207 C 342.418 341.389,341.389 342.418,346.207 337.713 C 348.410 335.561,350.658 333.172,351.201 332.405 C 351.745 331.638,353.047 330.135,354.095 329.065 C 355.143 327.995,356.000 326.958,356.000 326.760 C 356.000 326.563,356.630 325.734,357.400 324.918 C 358.170 324.101,358.800 323.273,358.800 323.077 C 358.800 322.881,359.340 322.217,360.000 321.600 C 360.660 320.983,361.200 320.280,361.200 320.036 C 361.200 319.792,361.740 319.028,362.400 318.337 C 363.060 317.646,363.600 316.878,363.600 316.629 C 363.600 316.380,363.960 315.917,364.400 315.600 C 364.840 315.283,365.200 314.769,365.200 314.459 C 365.200 314.148,365.516 313.603,365.903 313.247 C 366.289 312.891,366.860 312.105,367.170 311.500 C 367.481 310.895,367.885 310.400,368.068 310.400 C 368.250 310.400,368.400 310.080,368.400 309.688 C 368.400 309.297,368.760 308.717,369.200 308.400 C 369.640 308.083,370.000 307.671,370.000 307.484 C 370.000 307.297,370.540 306.359,371.200 305.400 C 371.860 304.441,372.400 303.463,372.400 303.228 C 372.400 302.993,372.542 302.800,372.716 302.800 C 373.113 302.800,375.200 298.723,375.200 297.948 C 375.200 297.634,375.560 297.117,376.000 296.800 C 376.440 296.483,376.800 295.903,376.800 295.512 C 376.800 295.120,376.980 294.800,377.200 294.800 C 377.420 294.800,377.600 294.440,377.600 294.000 C 377.600 293.560,377.780 293.200,378.000 293.200 C 378.220 293.200,378.400 292.840,378.400 292.400 C 378.400 291.960,378.546 291.600,378.725 291.600 C 378.904 291.600,379.298 290.970,379.600 290.200 C 379.902 289.430,380.296 288.800,380.475 288.800 C 380.654 288.800,380.800 288.440,380.800 288.000 C 380.800 287.560,380.980 287.200,381.200 287.200 C 381.420 287.200,381.600 286.840,381.600 286.400 C 381.600 285.960,381.780 285.600,382.000 285.600 C 382.220 285.600,382.400 285.251,382.400 284.824 C 382.400 284.397,382.580 283.936,382.800 283.800 C 383.020 283.664,383.200 283.113,383.200 282.576 C 383.200 282.039,383.380 281.600,383.600 281.600 C 383.820 281.600,384.000 281.240,384.000 280.800 C 384.000 280.360,384.180 280.000,384.400 280.000 C 384.620 280.000,384.800 279.640,384.800 279.200 C 384.800 278.760,384.980 278.400,385.200 278.400 C 385.420 278.400,385.600 277.860,385.600 277.200 C 385.600 276.540,385.780 276.000,386.000 276.000 C 386.220 276.000,386.400 275.640,386.400 275.200 C 386.400 274.760,386.580 274.400,386.800 274.400 C 387.020 274.400,387.200 274.038,387.200 273.595 C 387.200 273.152,387.359 272.477,387.553 272.095 C 387.748 271.713,388.129 270.860,388.400 270.200 C 388.671 269.540,389.052 268.687,389.247 268.305 C 389.441 267.923,389.600 267.259,389.600 266.829 C 389.600 266.399,389.780 265.936,390.000 265.800 C 390.220 265.664,390.400 265.124,390.400 264.600 C 390.400 264.076,390.567 263.544,390.772 263.417 C 390.977 263.291,391.267 262.200,391.418 260.994 C 391.569 259.787,391.851 258.800,392.046 258.800 C 392.241 258.800,392.400 258.170,392.400 257.400 C 392.400 256.630,392.580 256.000,392.800 256.000 C 393.020 256.000,393.200 255.471,393.200 254.824 C 393.200 254.177,393.380 253.536,393.600 253.400 C 393.820 253.264,394.000 252.533,394.000 251.776 C 394.000 251.019,394.180 250.400,394.400 250.400 C 394.620 250.400,394.800 249.680,394.800 248.800 C 394.800 247.920,394.980 247.200,395.200 247.200 C 395.420 247.200,395.600 246.401,395.600 245.424 C 395.600 244.447,395.780 243.536,396.000 243.400 C 396.220 243.264,396.400 242.544,396.400 241.800 C 396.400 241.056,396.580 240.336,396.800 240.200 C 397.020 240.064,397.200 238.973,397.200 237.776 C 397.200 236.579,397.380 235.600,397.600 235.600 C 397.820 235.600,398.000 234.621,398.000 233.424 C 398.000 232.227,398.180 231.136,398.400 231.000 C 398.620 230.864,398.800 229.518,398.800 228.010 C 398.800 226.171,398.965 225.212,399.300 225.100 C 399.693 224.969,399.800 219.591,399.800 200.000 C 399.800 180.409,399.693 175.031,399.300 174.900 C 398.965 174.788,398.800 173.829,398.800 171.990 C 398.800 170.482,398.620 169.136,398.400 169.000 C 398.180 168.864,398.000 167.773,398.000 166.576 C 398.000 165.379,397.820 164.400,397.600 164.400 C 397.380 164.400,397.200 163.421,397.200 162.224 C 397.200 161.027,397.020 159.936,396.800 159.800 C 396.580 159.664,396.400 158.944,396.400 158.200 C 396.400 157.456,396.220 156.736,396.000 156.600 C 395.780 156.464,395.600 155.553,395.600 154.576 C 395.600 153.599,395.420 152.800,395.200 152.800 C 394.980 152.800,394.800 152.080,394.800 151.200 C 394.800 150.320,394.620 149.600,394.400 149.600 C 394.180 149.600,394.000 148.981,394.000 148.224 C 394.000 147.467,393.820 146.736,393.600 146.600 C 393.380 146.464,393.200 145.823,393.200 145.176 C 393.200 144.529,393.020 144.000,392.800 144.000 C 392.580 144.000,392.400 143.370,392.400 142.600 C 392.400 141.830,392.241 141.200,392.046 141.200 C 391.851 141.200,391.569 140.213,391.418 139.006 C 391.267 137.800,390.977 136.709,390.772 136.583 C 390.567 136.456,390.400 135.924,390.400 135.400 C 390.400 134.876,390.220 134.336,390.000 134.200 C 389.780 134.064,389.600 133.601,389.600 133.171 C 389.600 132.741,389.441 132.077,389.247 131.695 C 389.052 131.313,388.671 130.460,388.400 129.800 C 388.129 129.140,387.748 128.287,387.553 127.905 C 387.359 127.523,387.200 126.848,387.200 126.405 C 387.200 125.962,387.020 125.600,386.800 125.600 C 386.580 125.600,386.400 125.240,386.400 124.800 C 386.400 124.360,386.220 124.000,386.000 124.000 C 385.780 124.000,385.600 123.460,385.600 122.800 C 385.600 122.140,385.420 121.600,385.200 121.600 C 384.980 121.600,384.800 121.240,384.800 120.800 C 384.800 120.360,384.620 120.000,384.400 120.000 C 384.180 120.000,384.000 119.640,384.000 119.200 C 384.000 118.760,383.820 118.400,383.600 118.400 C 383.380 118.400,383.200 117.961,383.200 117.424 C 383.200 116.887,383.020 116.336,382.800 116.200 C 382.580 116.064,382.400 115.603,382.400 115.176 C 382.400 114.749,382.220 114.400,382.000 114.400 C 381.780 114.400,381.600 114.040,381.600 113.600 C 381.600 113.160,381.420 112.800,381.200 112.800 C 380.980 112.800,380.800 112.440,380.800 112.000 C 380.800 111.560,380.654 111.200,380.475 111.200 C 380.296 111.200,379.902 110.570,379.600 109.800 C 379.298 109.030,378.904 108.400,378.725 108.400 C 378.546 108.400,378.400 108.040,378.400 107.600 C 378.400 107.160,378.220 106.800,378.000 106.800 C 377.780 106.800,377.600 106.440,377.600 106.000 C 377.600 105.560,377.420 105.200,377.200 105.200 C 376.980 105.200,376.800 104.880,376.800 104.488 C 376.800 104.097,376.440 103.517,376.000 103.200 C 375.560 102.883,375.200 102.366,375.200 102.052 C 375.200 101.277,373.113 97.200,372.716 97.200 C 372.542 97.200,372.400 97.007,372.400 96.772 C 372.400 96.537,371.860 95.559,371.200 94.600 C 370.540 93.641,370.000 92.703,370.000 92.516 C 370.000 92.329,369.640 91.917,369.200 91.600 C 368.760 91.283,368.400 90.703,368.400 90.312 C 368.400 89.920,368.250 89.600,368.068 89.600 C 367.885 89.600,367.481 89.105,367.170 88.500 C 366.860 87.895,366.289 87.109,365.903 86.753 C 365.516 86.397,365.200 85.852,365.200 85.541 C 365.200 85.231,364.840 84.717,364.400 84.400 C 363.960 84.083,363.600 83.620,363.600 83.371 C 363.600 83.122,363.060 82.354,362.400 81.663 C 361.740 80.972,361.200 80.208,361.200 79.964 C 361.200 79.720,360.660 79.017,360.000 78.400 C 359.340 77.783,358.800 77.119,358.800 76.923 C 358.800 76.727,358.170 75.899,357.400 75.082 C 356.630 74.266,356.000 73.437,356.000 73.240 C 356.000 73.042,355.143 72.005,354.095 70.935 C 353.047 69.865,351.745 68.362,351.201 67.595 C 350.658 66.828,348.410 64.439,346.207 62.287 C 341.389 57.582,342.418 58.611,337.713 53.793 C 335.561 51.590,333.172 49.342,332.405 48.799 C 331.638 48.255,330.135 46.953,329.065 45.905 C 327.995 44.857,326.949 44.000,326.741 44.000 C 326.534 44.000,325.930 43.595,325.401 43.100 C 323.937 41.731,323.260 41.200,322.977 41.200 C 322.836 41.200,322.217 40.660,321.600 40.000 C 320.983 39.340,320.280 38.800,320.036 38.800 C 319.792 38.800,319.028 38.260,318.337 37.600 C 317.646 36.940,316.878 36.400,316.629 36.400 C 316.380 36.400,315.917 36.040,315.600 35.600 C 315.283 35.160,314.769 34.800,314.459 34.800 C 314.148 34.800,313.603 34.484,313.247 34.097 C 312.891 33.711,312.105 33.140,311.500 32.830 C 310.895 32.519,310.400 32.115,310.400 31.932 C 310.400 31.750,310.080 31.600,309.688 31.600 C 309.297 31.600,308.717 31.240,308.400 30.800 C 308.083 30.360,307.671 30.000,307.484 30.000 C 307.297 30.000,306.359 29.460,305.400 28.800 C 304.441 28.140,303.478 27.600,303.261 27.600 C 303.044 27.600,302.807 27.443,302.733 27.251 C 302.565 26.809,298.604 24.800,297.902 24.800 C 297.613 24.800,297.117 24.440,296.800 24.000 C 296.483 23.560,295.903 23.200,295.512 23.200 C 295.120 23.200,294.800 23.020,294.800 22.800 C 294.800 22.580,294.440 22.400,294.000 22.400 C 293.560 22.400,293.200 22.220,293.200 22.000 C 293.200 21.780,292.840 21.600,292.400 21.600 C 291.960 21.600,291.600 21.454,291.600 21.275 C 291.600 21.096,290.970 20.702,290.200 20.400 C 289.430 20.098,288.800 19.704,288.800 19.525 C 288.800 19.346,288.440 19.200,288.000 19.200 C 287.560 19.200,287.200 19.020,287.200 18.800 C 287.200 18.580,286.840 18.400,286.400 18.400 C 285.960 18.400,285.600 18.220,285.600 18.000 C 285.600 17.780,285.251 17.600,284.824 17.600 C 284.397 17.600,283.936 17.420,283.800 17.200 C 283.664 16.980,283.113 16.800,282.576 16.800 C 282.039 16.800,281.600 16.620,281.600 16.400 C 281.600 16.180,281.240 16.000,280.800 16.000 C 280.360 16.000,280.000 15.820,280.000 15.600 C 280.000 15.380,279.640 15.200,279.200 15.200 C 278.760 15.200,278.400 15.020,278.400 14.800 C 278.400 14.580,277.860 14.400,277.200 14.400 C 276.540 14.400,276.000 14.220,276.000 14.000 C 276.000 13.780,275.640 13.600,275.200 13.600 C 274.760 13.600,274.400 13.420,274.400 13.200 C 274.400 12.980,274.038 12.800,273.595 12.800 C 273.152 12.800,272.477 12.641,272.095 12.447 C 271.713 12.252,270.860 11.871,270.200 11.600 C 269.540 11.329,268.687 10.948,268.305 10.753 C 267.923 10.559,267.336 10.400,267.000 10.400 C 266.664 10.400,266.077 10.237,265.695 10.037 C 264.553 9.440,260.778 8.400,259.754 8.400 C 259.229 8.400,258.800 8.220,258.800 8.000 C 258.800 7.780,258.170 7.600,257.400 7.600 C 256.630 7.600,256.000 7.420,256.000 7.200 C 256.000 6.980,255.471 6.800,254.824 6.800 C 254.177 6.800,253.536 6.620,253.400 6.400 C 253.264 6.180,252.533 6.000,251.776 6.000 C 251.019 6.000,250.400 5.820,250.400 5.600 C 250.400 5.380,249.680 5.200,248.800 5.200 C 247.920 5.200,247.200 5.020,247.200 4.800 C 247.200 4.580,246.401 4.400,245.424 4.400 C 244.447 4.400,243.536 4.220,243.400 4.000 C 243.264 3.780,242.544 3.600,241.800 3.600 C 241.056 3.600,240.336 3.420,240.200 3.200 C 240.064 2.980,238.973 2.800,237.776 2.800 C 236.579 2.800,235.600 2.620,235.600 2.400 C 235.600 2.180,234.621 2.000,233.424 2.000 C 232.227 2.000,231.136 1.820,231.000 1.600 C 230.864 1.380,229.518 1.200,228.010 1.200 C 226.233 1.200,225.210 1.031,225.107 0.720 C 224.948 0.244,188.291 -0.109,178.700 0.273 M215.703 25.045 C 219.610 25.178,222.905 25.447,223.027 25.643 C 223.148 25.839,224.317 26.000,225.624 26.000 C 226.941 26.000,228.000 26.178,228.000 26.400 C 228.000 26.620,228.990 26.800,230.200 26.800 C 231.410 26.800,232.400 26.980,232.400 27.200 C 232.400 27.420,233.300 27.600,234.400 27.600 C 235.500 27.600,236.400 27.780,236.400 28.000 C 236.400 28.220,237.120 28.400,238.000 28.400 C 238.880 28.400,239.600 28.580,239.600 28.800 C 239.600 29.020,240.410 29.200,241.400 29.200 C 242.390 29.200,243.200 29.380,243.200 29.600 C 243.200 29.820,243.729 30.000,244.376 30.000 C 245.023 30.000,245.664 30.180,245.800 30.400 C 245.936 30.620,246.667 30.800,247.424 30.800 C 248.181 30.800,248.800 30.980,248.800 31.200 C 248.800 31.420,249.340 31.600,250.000 31.600 C 250.660 31.600,251.200 31.780,251.200 32.000 C 251.200 32.220,251.740 32.400,252.400 32.400 C 253.060 32.400,253.600 32.580,253.600 32.800 C 253.600 33.020,254.140 33.200,254.800 33.200 C 255.460 33.200,256.000 33.380,256.000 33.600 C 256.000 33.820,256.540 34.000,257.200 34.000 C 257.860 34.000,258.400 34.180,258.400 34.400 C 258.400 34.620,258.839 34.800,259.376 34.800 C 259.913 34.800,260.464 34.980,260.600 35.200 C 260.736 35.420,261.287 35.600,261.824 35.600 C 262.361 35.600,262.800 35.780,262.800 36.000 C 262.800 36.220,263.160 36.400,263.600 36.400 C 264.040 36.400,264.400 36.580,264.400 36.800 C 264.400 37.020,264.940 37.200,265.600 37.200 C 266.260 37.200,266.800 37.380,266.800 37.600 C 266.800 37.820,267.160 38.000,267.600 38.000 C 268.040 38.000,268.400 38.180,268.400 38.400 C 268.400 38.620,268.672 38.800,269.005 38.800 C 269.593 38.800,270.018 38.967,271.895 39.938 C 272.387 40.192,273.062 40.400,273.395 40.400 C 273.728 40.400,274.000 40.560,274.000 40.755 C 274.000 40.951,274.630 41.229,275.400 41.374 C 276.170 41.518,276.800 41.808,276.800 42.018 C 276.800 42.228,277.160 42.400,277.600 42.400 C 278.040 42.400,278.400 42.580,278.400 42.800 C 278.400 43.020,278.760 43.200,279.200 43.200 C 279.640 43.200,280.000 43.380,280.000 43.600 C 280.000 43.820,280.360 44.000,280.800 44.000 C 281.240 44.000,281.600 44.180,281.600 44.400 C 281.600 44.620,281.960 44.800,282.400 44.800 C 282.840 44.800,283.200 44.980,283.200 45.200 C 283.200 45.420,283.470 45.600,283.800 45.600 C 284.130 45.600,284.400 45.780,284.400 46.000 C 284.400 46.220,284.670 46.400,285.000 46.400 C 285.330 46.400,285.600 46.580,285.600 46.800 C 285.600 47.020,285.960 47.200,286.400 47.200 C 286.840 47.200,287.200 47.380,287.200 47.600 C 287.200 47.820,287.478 48.000,287.817 48.000 C 288.156 48.000,288.820 48.360,289.292 48.800 C 289.764 49.240,290.387 49.600,290.675 49.600 C 290.964 49.600,291.200 49.780,291.200 50.000 C 291.200 50.220,291.436 50.400,291.725 50.400 C 292.013 50.400,292.636 50.760,293.108 51.200 C 293.580 51.640,294.072 52.000,294.200 52.000 C 294.328 52.000,294.820 52.360,295.292 52.800 C 295.764 53.240,296.387 53.600,296.675 53.600 C 296.964 53.600,297.200 53.758,297.200 53.951 C 297.200 54.145,297.740 54.527,298.400 54.800 C 299.060 55.073,299.600 55.425,299.600 55.581 C 299.600 55.737,300.095 56.120,300.700 56.432 C 301.305 56.745,302.248 57.405,302.796 57.900 C 303.344 58.395,304.036 58.800,304.335 58.800 C 304.634 58.800,305.383 59.340,306.000 60.000 C 306.617 60.660,307.301 61.200,307.520 61.200 C 307.740 61.200,308.548 61.785,309.315 62.500 C 313.614 66.505,314.767 67.522,316.019 68.411 C 317.196 69.248,318.644 70.588,324.059 75.854 C 326.515 78.242,330.789 82.861,331.612 84.016 C 332.481 85.237,333.507 86.399,337.500 90.685 C 338.215 91.452,338.800 92.260,338.800 92.480 C 338.800 92.699,339.340 93.383,340.000 94.000 C 340.660 94.617,341.200 95.326,341.200 95.577 C 341.200 95.828,341.425 96.302,341.700 96.631 C 341.975 96.959,342.380 97.447,342.600 97.714 C 342.820 97.981,343.255 98.695,343.568 99.300 C 343.880 99.905,344.263 100.400,344.419 100.400 C 344.575 100.400,344.927 100.940,345.200 101.600 C 345.473 102.260,345.855 102.800,346.049 102.800 C 346.242 102.800,346.400 103.036,346.400 103.325 C 346.400 103.613,346.760 104.236,347.200 104.708 C 347.640 105.180,348.000 105.672,348.000 105.800 C 348.000 105.928,348.360 106.420,348.800 106.892 C 349.240 107.364,349.600 107.987,349.600 108.275 C 349.600 108.564,349.780 108.800,350.000 108.800 C 350.220 108.800,350.400 109.036,350.400 109.325 C 350.400 109.613,350.760 110.236,351.200 110.708 C 351.640 111.180,352.000 111.844,352.000 112.183 C 352.000 112.522,352.180 112.800,352.400 112.800 C 352.620 112.800,352.800 113.160,352.800 113.600 C 352.800 114.040,352.980 114.400,353.200 114.400 C 353.420 114.400,353.600 114.670,353.600 115.000 C 353.600 115.330,353.780 115.600,354.000 115.600 C 354.220 115.600,354.400 115.870,354.400 116.200 C 354.400 116.530,354.580 116.800,354.800 116.800 C 355.020 116.800,355.200 117.160,355.200 117.600 C 355.200 118.040,355.380 118.400,355.600 118.400 C 355.820 118.400,356.000 118.760,356.000 119.200 C 356.000 119.640,356.180 120.000,356.400 120.000 C 356.620 120.000,356.800 120.360,356.800 120.800 C 356.800 121.240,356.980 121.600,357.200 121.600 C 357.420 121.600,357.600 121.960,357.600 122.400 C 357.600 122.840,357.760 123.200,357.955 123.200 C 358.151 123.200,358.429 123.830,358.574 124.600 C 358.718 125.370,359.008 126.000,359.218 126.000 C 359.428 126.000,359.600 126.272,359.600 126.605 C 359.600 126.938,359.780 127.568,360.000 128.005 C 360.220 128.442,360.580 129.158,360.800 129.595 C 361.020 130.032,361.200 130.662,361.200 130.995 C 361.200 131.328,361.380 131.600,361.600 131.600 C 361.820 131.600,362.000 131.960,362.000 132.400 C 362.000 132.840,362.180 133.200,362.400 133.200 C 362.620 133.200,362.800 133.740,362.800 134.400 C 362.800 135.060,362.980 135.600,363.200 135.600 C 363.420 135.600,363.600 135.960,363.600 136.400 C 363.600 136.840,363.780 137.200,364.000 137.200 C 364.220 137.200,364.400 137.639,364.400 138.176 C 364.400 138.713,364.580 139.264,364.800 139.400 C 365.020 139.536,365.200 140.087,365.200 140.624 C 365.200 141.161,365.380 141.600,365.600 141.600 C 365.820 141.600,366.000 142.140,366.000 142.800 C 366.000 143.460,366.180 144.000,366.400 144.000 C 366.620 144.000,366.800 144.540,366.800 145.200 C 366.800 145.860,366.980 146.400,367.200 146.400 C 367.420 146.400,367.600 146.940,367.600 147.600 C 367.600 148.260,367.780 148.800,368.000 148.800 C 368.220 148.800,368.400 149.340,368.400 150.000 C 368.400 150.660,368.580 151.200,368.800 151.200 C 369.020 151.200,369.200 151.819,369.200 152.576 C 369.200 153.333,369.380 154.064,369.600 154.200 C 369.820 154.336,370.000 154.977,370.000 155.624 C 370.000 156.271,370.180 156.800,370.400 156.800 C 370.620 156.800,370.800 157.610,370.800 158.600 C 370.800 159.590,370.980 160.400,371.200 160.400 C 371.420 160.400,371.600 161.120,371.600 162.000 C 371.600 162.880,371.780 163.600,372.000 163.600 C 372.220 163.600,372.400 164.500,372.400 165.600 C 372.400 166.700,372.580 167.600,372.800 167.600 C 373.020 167.600,373.200 168.590,373.200 169.800 C 373.200 171.010,373.380 172.000,373.600 172.000 C 373.821 172.000,374.000 173.040,374.000 174.320 C 374.000 175.596,374.163 176.811,374.363 177.020 C 375.571 178.286,375.599 221.123,374.392 221.533 C 374.177 221.607,374.000 222.912,374.000 224.433 C 374.000 226.011,373.828 227.200,373.600 227.200 C 373.374 227.200,373.200 228.333,373.200 229.800 C 373.200 231.267,373.026 232.400,372.800 232.400 C 372.580 232.400,372.400 233.120,372.400 234.000 C 372.400 234.880,372.220 235.600,372.000 235.600 C 371.780 235.600,371.600 236.399,371.600 237.376 C 371.600 238.353,371.420 239.264,371.200 239.400 C 370.980 239.536,370.800 240.256,370.800 241.000 C 370.800 241.744,370.620 242.464,370.400 242.600 C 370.180 242.736,370.000 243.456,370.000 244.200 C 370.000 244.944,369.820 245.664,369.600 245.800 C 369.380 245.936,369.200 246.667,369.200 247.424 C 369.200 248.181,369.020 248.800,368.800 248.800 C 368.580 248.800,368.400 249.340,368.400 250.000 C 368.400 250.660,368.220 251.200,368.000 251.200 C 367.780 251.200,367.600 251.740,367.600 252.400 C 367.600 253.060,367.420 253.600,367.200 253.600 C 366.980 253.600,366.800 254.140,366.800 254.800 C 366.800 255.460,366.620 256.000,366.400 256.000 C 366.180 256.000,366.000 256.540,366.000 257.200 C 366.000 257.860,365.820 258.400,365.600 258.400 C 365.380 258.400,365.200 258.839,365.200 259.376 C 365.200 259.913,365.020 260.464,364.800 260.600 C 364.580 260.736,364.400 261.287,364.400 261.824 C 364.400 262.361,364.220 262.800,364.000 262.800 C 363.780 262.800,363.600 263.160,363.600 263.600 C 363.600 264.040,363.420 264.400,363.200 264.400 C 362.980 264.400,362.800 264.749,362.800 265.176 C 362.800 265.603,362.620 266.064,362.400 266.200 C 362.180 266.336,362.000 266.887,362.000 267.424 C 362.000 267.961,361.820 268.400,361.600 268.400 C 361.380 268.400,361.200 268.760,361.200 269.200 C 361.200 269.640,361.020 270.000,360.800 270.000 C 360.580 270.000,360.400 270.272,360.400 270.605 C 360.400 270.938,360.220 271.568,360.000 272.005 C 359.029 273.934,358.886 274.297,358.619 275.513 C 358.464 276.221,358.171 276.800,357.968 276.800 C 357.766 276.800,357.600 277.160,357.600 277.600 C 357.600 278.040,357.420 278.400,357.200 278.400 C 356.980 278.400,356.800 278.678,356.800 279.017 C 356.800 279.356,356.440 280.020,356.000 280.492 C 355.560 280.964,355.200 281.587,355.200 281.875 C 355.200 282.164,355.020 282.400,354.800 282.400 C 354.580 282.400,354.400 282.760,354.400 283.200 C 354.400 283.640,354.220 284.000,354.000 284.000 C 353.780 284.000,353.600 284.360,353.600 284.800 C 353.600 285.240,353.420 285.600,353.200 285.600 C 352.980 285.600,352.800 285.960,352.800 286.400 C 352.800 286.840,352.620 287.200,352.400 287.200 C 352.180 287.200,352.000 287.478,352.000 287.817 C 352.000 288.156,351.640 288.820,351.200 289.292 C 350.760 289.764,350.400 290.387,350.400 290.675 C 350.400 290.964,350.220 291.200,350.000 291.200 C 349.780 291.200,349.600 291.470,349.600 291.800 C 349.600 292.130,349.450 292.400,349.268 292.400 C 349.085 292.400,348.681 292.895,348.370 293.500 C 348.060 294.105,347.489 294.891,347.103 295.247 C 346.716 295.603,346.400 296.148,346.400 296.459 C 346.400 296.769,346.040 297.283,345.600 297.600 C 345.160 297.917,344.800 298.497,344.800 298.888 C 344.800 299.280,344.650 299.600,344.468 299.600 C 344.285 299.600,343.880 300.095,343.568 300.700 C 342.990 301.819,342.594 302.388,341.700 303.385 C 341.425 303.692,341.200 304.150,341.200 304.403 C 341.200 304.656,340.480 305.554,339.600 306.400 C 338.720 307.246,338.000 308.050,338.000 308.187 C 338.000 308.324,337.595 308.856,337.100 309.368 C 335.670 310.848,334.800 311.981,334.800 312.362 C 334.800 312.808,333.758 313.225,333.439 312.906 C 333.308 312.774,333.200 312.157,333.200 311.533 C 333.200 310.910,333.020 310.400,332.800 310.400 C 332.580 310.400,332.400 309.770,332.400 309.000 C 332.400 308.230,332.220 307.600,332.000 307.600 C 331.780 307.600,331.600 307.060,331.600 306.400 C 331.600 305.740,331.420 305.200,331.200 305.200 C 330.980 305.200,330.800 304.660,330.800 304.000 C 330.800 303.340,330.620 302.800,330.400 302.800 C 330.180 302.800,330.000 302.361,330.000 301.824 C 330.000 301.287,329.820 300.736,329.600 300.600 C 329.380 300.464,329.200 300.003,329.200 299.576 C 329.200 299.149,329.020 298.800,328.800 298.800 C 328.580 298.800,328.400 298.260,328.400 297.600 C 328.400 296.940,328.220 296.400,328.000 296.400 C 327.780 296.400,327.600 296.040,327.600 295.600 C 327.600 295.160,327.420 294.800,327.200 294.800 C 326.980 294.800,326.800 294.350,326.800 293.800 C 326.800 293.250,326.620 292.800,326.400 292.800 C 326.180 292.800,326.000 292.440,326.000 292.000 C 326.000 291.560,325.836 291.200,325.635 291.200 C 325.434 291.200,325.149 290.480,325.000 289.600 C 324.851 288.720,324.566 288.000,324.365 288.000 C 324.164 288.000,324.000 287.640,324.000 287.200 C 324.000 286.760,323.820 286.400,323.600 286.400 C 323.380 286.400,323.200 286.040,323.200 285.600 C 323.200 285.160,323.020 284.800,322.800 284.800 C 322.580 284.800,322.400 284.440,322.400 284.000 C 322.400 283.560,322.220 283.200,322.000 283.200 C 321.780 283.200,321.600 282.840,321.600 282.400 C 321.600 281.960,321.420 281.600,321.200 281.600 C 320.980 281.600,320.800 281.364,320.800 281.075 C 320.800 280.787,320.440 280.164,320.000 279.692 C 319.560 279.220,319.200 278.556,319.200 278.217 C 319.200 277.878,319.020 277.600,318.800 277.600 C 318.580 277.600,318.400 277.412,318.400 277.183 C 318.400 276.954,318.040 276.380,317.600 275.908 C 317.160 275.436,316.800 274.813,316.800 274.525 C 316.800 274.236,316.620 274.000,316.400 274.000 C 316.180 274.000,316.000 273.728,316.000 273.396 C 316.000 273.064,315.460 272.228,314.800 271.537 C 314.140 270.846,313.600 270.078,313.600 269.829 C 313.600 269.580,313.240 269.117,312.800 268.800 C 312.360 268.483,312.000 267.943,312.000 267.600 C 312.000 267.257,311.640 266.717,311.200 266.400 C 310.760 266.083,310.400 265.593,310.400 265.312 C 310.400 265.030,310.220 264.800,310.000 264.800 C 309.780 264.800,309.600 264.612,309.600 264.383 C 309.600 264.154,309.222 263.569,308.759 263.083 C 308.297 262.597,307.442 261.570,306.859 260.800 C 306.277 260.030,304.985 258.590,303.989 257.600 C 302.993 256.610,301.740 255.170,301.205 254.400 C 300.180 252.926,293.224 246.000,292.768 246.000 C 292.622 246.000,291.624 245.105,290.551 244.010 C 289.478 242.916,288.375 242.016,288.100 242.010 C 287.825 242.005,287.600 241.820,287.600 241.600 C 287.600 241.380,287.402 241.200,287.160 241.200 C 286.919 241.200,286.217 240.660,285.600 240.000 C 284.983 239.340,284.263 238.800,284.000 238.800 C 283.737 238.800,283.017 238.260,282.400 237.600 C 281.783 236.940,281.031 236.400,280.728 236.400 C 280.425 236.400,279.917 236.040,279.600 235.600 C 279.283 235.160,278.743 234.800,278.400 234.800 C 278.057 234.800,277.517 234.440,277.200 234.000 C 276.883 233.560,276.346 233.200,276.008 233.200 C 275.669 233.200,275.168 232.840,274.893 232.400 C 274.618 231.960,274.125 231.600,273.797 231.600 C 273.468 231.600,273.200 231.420,273.200 231.200 C 273.200 230.980,272.930 230.800,272.600 230.800 C 272.270 230.800,272.000 230.620,272.000 230.400 C 272.000 230.180,271.730 230.000,271.400 230.000 C 271.070 230.000,270.800 229.820,270.800 229.600 C 270.800 229.380,270.440 229.200,270.000 229.200 C 269.560 229.200,269.200 229.051,269.200 228.869 C 269.200 228.447,261.882 224.800,261.035 224.800 C 260.686 224.800,260.400 224.620,260.400 224.400 C 260.400 224.180,260.040 224.000,259.600 224.000 C 259.160 224.000,258.800 223.820,258.800 223.600 C 258.800 223.380,258.440 223.200,258.000 223.200 C 257.560 223.200,257.200 223.020,257.200 222.800 C 257.200 222.580,256.840 222.400,256.400 222.400 C 255.960 222.400,255.600 222.220,255.600 222.000 C 255.600 221.780,255.150 221.600,254.600 221.600 C 254.050 221.600,253.600 221.420,253.600 221.200 C 253.600 220.980,253.240 220.800,252.800 220.800 C 252.360 220.800,252.000 220.620,252.000 220.400 C 252.000 220.180,251.460 220.000,250.800 220.000 C 249.867 220.000,249.600 219.822,249.600 219.200 C 249.600 218.760,249.832 218.400,250.116 218.400 C 250.400 218.400,251.428 217.680,252.400 216.800 C 253.372 215.920,254.355 215.190,254.584 215.178 C 254.813 215.166,255.810 214.261,256.800 213.166 C 258.858 210.890,260.316 209.417,262.613 207.292 C 263.500 206.472,264.663 205.170,265.197 204.400 C 265.732 203.630,266.626 202.550,267.185 202.000 C 267.743 201.450,268.455 200.505,268.768 199.900 C 269.080 199.295,269.463 198.800,269.619 198.800 C 269.775 198.800,270.127 198.260,270.400 197.600 C 270.673 196.940,271.055 196.400,271.249 196.400 C 271.442 196.400,271.600 196.122,271.600 195.783 C 271.600 195.444,271.960 194.780,272.400 194.308 C 272.840 193.836,273.200 193.213,273.200 192.925 C 273.200 192.636,273.348 192.400,273.530 192.400 C 273.711 192.400,274.354 191.275,274.959 189.900 C 275.563 188.525,276.225 187.087,276.429 186.705 C 276.633 186.323,276.800 185.738,276.800 185.405 C 276.800 185.072,276.980 184.800,277.200 184.800 C 277.420 184.800,277.600 184.440,277.600 184.000 C 277.600 183.560,277.780 183.200,278.000 183.200 C 278.220 183.200,278.400 182.840,278.400 182.400 C 278.400 181.960,278.580 181.600,278.800 181.600 C 279.020 181.600,279.200 181.060,279.200 180.400 C 279.200 179.740,279.380 179.200,279.600 179.200 C 279.820 179.200,280.000 178.660,280.000 178.000 C 280.000 177.340,280.180 176.800,280.400 176.800 C 280.620 176.800,280.800 176.361,280.800 175.824 C 280.800 175.287,280.980 174.736,281.200 174.600 C 281.420 174.464,281.600 173.913,281.600 173.376 C 281.600 172.839,281.780 172.400,282.000 172.400 C 282.220 172.400,282.400 171.601,282.400 170.624 C 282.400 169.647,282.580 168.736,282.800 168.600 C 283.020 168.464,283.200 167.463,283.200 166.376 C 283.200 165.289,283.380 164.400,283.600 164.400 C 283.825 164.400,284.000 163.275,284.000 161.824 C 284.000 160.407,284.180 159.136,284.400 159.000 C 284.648 158.847,284.800 155.204,284.800 149.400 C 284.800 143.596,284.648 139.953,284.400 139.800 C 284.180 139.664,284.000 138.483,284.000 137.176 C 284.000 135.859,283.822 134.800,283.600 134.800 C 283.380 134.800,283.200 133.900,283.200 132.800 C 283.200 131.700,283.020 130.800,282.800 130.800 C 282.580 130.800,282.400 130.080,282.400 129.200 C 282.400 128.320,282.220 127.600,282.000 127.600 C 281.780 127.600,281.600 126.970,281.600 126.200 C 281.600 125.430,281.420 124.800,281.200 124.800 C 280.980 124.800,280.800 124.260,280.800 123.600 C 280.800 122.940,280.620 122.400,280.400 122.400 C 280.180 122.400,280.000 121.860,280.000 121.200 C 280.000 120.540,279.820 120.000,279.600 120.000 C 279.380 120.000,279.200 119.651,279.200 119.224 C 279.200 118.797,279.020 118.336,278.800 118.200 C 278.580 118.064,278.400 117.513,278.400 116.976 C 278.400 116.439,278.220 116.000,278.000 116.000 C 277.780 116.000,277.600 115.640,277.600 115.200 C 277.600 114.760,277.420 114.400,277.200 114.400 C 276.980 114.400,276.800 114.040,276.800 113.600 C 276.800 113.160,276.620 112.800,276.400 112.800 C 276.180 112.800,276.000 112.440,276.000 112.000 C 276.000 111.560,275.840 111.200,275.645 111.200 C 275.449 111.200,275.171 110.570,275.026 109.800 C 274.882 109.030,274.614 108.400,274.430 108.400 C 274.247 108.400,273.873 107.860,273.600 107.200 C 273.327 106.540,272.945 106.000,272.751 106.000 C 272.558 106.000,272.400 105.640,272.400 105.200 C 272.400 104.760,272.220 104.400,272.000 104.400 C 271.780 104.400,271.600 104.175,271.600 103.900 C 271.599 103.625,271.149 102.877,270.600 102.238 C 270.050 101.599,269.600 100.932,269.600 100.756 C 269.600 100.580,269.150 99.986,268.600 99.436 C 268.050 98.886,267.600 98.266,267.600 98.059 C 267.600 97.851,266.700 96.762,265.600 95.639 C 264.500 94.515,263.600 93.504,263.600 93.392 C 263.600 93.126,256.874 86.400,256.608 86.400 C 256.496 86.400,255.485 85.500,254.361 84.400 C 253.238 83.300,252.156 82.400,251.956 82.400 C 251.756 82.400,251.028 81.860,250.337 81.200 C 249.646 80.540,248.878 80.000,248.629 80.000 C 248.380 80.000,247.917 79.640,247.600 79.200 C 247.283 78.760,246.703 78.400,246.312 78.400 C 245.920 78.400,245.600 78.258,245.600 78.084 C 245.600 77.910,244.613 77.267,243.407 76.657 C 242.201 76.046,241.110 75.378,240.983 75.173 C 240.857 74.968,240.403 74.800,239.976 74.800 C 239.549 74.800,239.200 74.620,239.200 74.400 C 239.200 74.180,238.750 74.000,238.200 74.000 C 237.650 74.000,237.200 73.820,237.200 73.600 C 237.200 73.380,236.840 73.200,236.400 73.200 C 235.960 73.200,235.600 73.020,235.600 72.800 C 235.600 72.580,235.240 72.400,234.800 72.400 C 234.360 72.400,234.000 72.220,234.000 72.000 C 234.000 71.780,233.640 71.600,233.200 71.600 C 232.760 71.600,232.400 71.420,232.400 71.200 C 232.400 70.980,231.860 70.800,231.200 70.800 C 230.540 70.800,230.000 70.620,230.000 70.400 C 230.000 70.180,229.561 70.000,229.024 70.000 C 228.487 70.000,227.936 69.820,227.800 69.600 C 227.664 69.380,227.203 69.200,226.776 69.200 C 226.349 69.200,226.000 69.020,226.000 68.800 C 226.000 68.580,225.381 68.400,224.624 68.400 C 223.867 68.400,223.136 68.220,223.000 68.000 C 222.864 67.780,222.133 67.600,221.376 67.600 C 220.619 67.600,220.000 67.420,220.000 67.200 C 220.000 66.980,219.291 66.800,218.424 66.800 C 217.557 66.800,216.736 66.620,216.600 66.400 C 216.464 66.180,215.193 66.000,213.776 66.000 C 212.325 66.000,211.200 65.825,211.200 65.600 C 211.200 65.343,207.200 65.200,200.000 65.200 C 192.800 65.200,188.800 65.343,188.800 65.600 C 188.800 65.825,187.675 66.000,186.224 66.000 C 184.807 66.000,183.536 66.180,183.400 66.400 C 183.264 66.620,182.443 66.800,181.576 66.800 C 180.709 66.800,180.000 66.980,180.000 67.200 C 180.000 67.420,179.381 67.600,178.624 67.600 C 177.867 67.600,177.136 67.780,177.000 68.000 C 176.864 68.220,176.133 68.400,175.376 68.400 C 174.619 68.400,174.000 68.580,174.000 68.800 C 174.000 69.020,173.651 69.200,173.224 69.200 C 172.797 69.200,172.336 69.380,172.200 69.600 C 172.064 69.820,171.513 70.000,170.976 70.000 C 170.439 70.000,170.000 70.180,170.000 70.400 C 170.000 70.620,169.460 70.800,168.800 70.800 C 168.140 70.800,167.600 70.980,167.600 71.200 C 167.600 71.420,167.240 71.600,166.800 71.600 C 166.360 71.600,166.000 71.780,166.000 72.000 C 166.000 72.220,165.640 72.400,165.200 72.400 C 164.760 72.400,164.400 72.580,164.400 72.800 C 164.400 73.020,164.040 73.200,163.600 73.200 C 163.160 73.200,162.800 73.380,162.800 73.600 C 162.800 73.820,162.350 74.000,161.800 74.000 C 161.250 74.000,160.800 74.180,160.800 74.400 C 160.800 74.620,160.451 74.800,160.024 74.800 C 159.597 74.800,159.143 74.968,159.017 75.173 C 158.890 75.378,157.799 76.046,156.593 76.657 C 155.387 77.267,154.400 77.910,154.400 78.084 C 154.400 78.258,154.080 78.400,153.688 78.400 C 153.297 78.400,152.717 78.760,152.400 79.200 C 152.083 79.640,151.620 80.000,151.371 80.000 C 151.122 80.000,150.354 80.540,149.663 81.200 C 148.972 81.860,148.244 82.400,148.044 82.400 C 147.844 82.400,146.762 83.300,145.639 84.400 C 144.515 85.500,143.504 86.400,143.392 86.400 C 143.126 86.400,136.400 93.126,136.400 93.392 C 136.400 93.504,135.500 94.515,134.400 95.639 C 133.300 96.762,132.400 97.851,132.400 98.059 C 132.400 98.266,131.950 98.886,131.400 99.436 C 130.850 99.986,130.400 100.580,130.400 100.756 C 130.400 100.932,129.950 101.599,129.400 102.238 C 128.851 102.877,128.401 103.625,128.400 103.900 C 128.400 104.175,128.220 104.400,128.000 104.400 C 127.780 104.400,127.600 104.745,127.600 105.167 C 127.600 105.588,127.458 105.993,127.285 106.067 C 126.785 106.278,124.800 109.877,124.800 110.571 C 124.800 110.917,124.620 111.200,124.400 111.200 C 124.180 111.200,124.000 111.560,124.000 112.000 C 124.000 112.440,123.820 112.800,123.600 112.800 C 123.380 112.800,123.200 113.160,123.200 113.600 C 123.200 114.040,123.020 114.400,122.800 114.400 C 122.580 114.400,122.400 114.760,122.400 115.200 C 122.400 115.640,122.220 116.000,122.000 116.000 C 121.780 116.000,121.600 116.439,121.600 116.976 C 121.600 117.513,121.420 118.064,121.200 118.200 C 120.980 118.336,120.800 118.797,120.800 119.224 C 120.800 119.651,120.620 120.000,120.400 120.000 C 120.180 120.000,120.000 120.540,120.000 121.200 C 120.000 121.860,119.820 122.400,119.600 122.400 C 119.380 122.400,119.200 122.940,119.200 123.600 C 119.200 124.260,119.020 124.800,118.800 124.800 C 118.580 124.800,118.400 125.430,118.400 126.200 C 118.400 126.970,118.220 127.600,118.000 127.600 C 117.780 127.600,117.600 128.320,117.600 129.200 C 117.600 130.080,117.420 130.800,117.200 130.800 C 116.980 130.800,116.800 131.700,116.800 132.800 C 116.800 133.900,116.620 134.800,116.400 134.800 C 116.178 134.800,116.000 135.859,116.000 137.176 C 116.000 138.483,115.820 139.664,115.600 139.800 C 115.352 139.953,115.200 143.596,115.200 149.400 C 115.200 155.204,115.352 158.847,115.600 159.000 C 115.820 159.136,116.000 160.407,116.000 161.824 C 116.000 163.275,116.175 164.400,116.400 164.400 C 116.620 164.400,116.800 165.289,116.800 166.376 C 116.800 167.463,116.980 168.464,117.200 168.600 C 117.420 168.736,117.600 169.647,117.600 170.624 C 117.600 171.601,117.780 172.400,118.000 172.400 C 118.220 172.400,118.400 172.839,118.400 173.376 C 118.400 173.913,118.580 174.464,118.800 174.600 C 119.020 174.736,119.200 175.287,119.200 175.824 C 119.200 176.361,119.380 176.800,119.600 176.800 C 119.820 176.800,120.000 177.340,120.000 178.000 C 120.000 178.660,120.180 179.200,120.400 179.200 C 120.620 179.200,120.800 179.740,120.800 180.400 C 120.800 181.060,120.980 181.600,121.200 181.600 C 121.420 181.600,121.600 181.960,121.600 182.400 C 121.600 182.840,121.780 183.200,122.000 183.200 C 122.220 183.200,122.400 183.560,122.400 184.000 C 122.400 184.440,122.580 184.800,122.800 184.800 C 123.020 184.800,123.200 185.250,123.200 185.800 C 123.200 186.350,123.380 186.800,123.600 186.800 C 123.820 186.800,124.000 187.036,124.000 187.325 C 124.000 187.895,125.932 192.074,126.347 192.400 C 126.487 192.510,126.856 193.095,127.168 193.700 C 127.480 194.305,127.885 194.800,128.068 194.800 C 128.250 194.800,128.400 195.160,128.400 195.600 C 128.400 196.040,128.558 196.400,128.751 196.400 C 128.945 196.400,129.327 196.940,129.600 197.600 C 129.873 198.260,130.225 198.800,130.381 198.800 C 130.537 198.800,130.920 199.295,131.232 199.900 C 131.545 200.505,132.475 201.661,133.300 202.469 C 134.125 203.276,134.800 204.113,134.800 204.328 C 134.800 204.543,135.697 205.592,136.793 206.659 C 139.442 209.240,142.072 211.865,143.846 213.700 C 144.644 214.525,145.455 215.200,145.648 215.200 C 145.841 215.200,146.741 215.920,147.648 216.800 C 148.555 217.680,149.545 218.400,149.848 218.400 C 150.152 218.400,150.400 218.760,150.400 219.200 C 150.400 219.733,150.133 220.000,149.600 220.000 C 149.160 220.000,148.800 220.180,148.800 220.400 C 148.800 220.620,148.361 220.800,147.824 220.800 C 147.287 220.800,146.736 220.980,146.600 221.200 C 146.464 221.420,146.003 221.600,145.576 221.600 C 145.149 221.600,144.800 221.780,144.800 222.000 C 144.800 222.220,144.440 222.400,144.000 222.400 C 143.560 222.400,143.200 222.580,143.200 222.800 C 143.200 223.020,142.750 223.200,142.200 223.200 C 141.650 223.200,141.200 223.380,141.200 223.600 C 141.200 223.820,140.840 224.000,140.400 224.000 C 139.960 224.000,139.600 224.180,139.600 224.400 C 139.600 224.620,139.309 224.800,138.954 224.800 C 138.238 224.800,134.277 226.826,134.067 227.300 C 133.993 227.465,133.588 227.600,133.167 227.600 C 132.745 227.600,132.400 227.780,132.400 228.000 C 132.400 228.220,132.055 228.400,131.633 228.400 C 131.212 228.400,130.807 228.535,130.733 228.700 C 130.660 228.865,129.745 229.433,128.700 229.963 C 127.655 230.492,126.800 231.077,126.800 231.263 C 126.800 231.448,126.570 231.600,126.288 231.600 C 126.007 231.600,125.517 231.960,125.200 232.400 C 124.883 232.840,124.343 233.200,124.000 233.200 C 123.657 233.200,123.117 233.560,122.800 234.000 C 122.483 234.440,121.943 234.800,121.600 234.800 C 121.257 234.800,120.717 235.160,120.400 235.600 C 120.083 236.040,119.620 236.400,119.371 236.400 C 119.122 236.400,118.354 236.940,117.663 237.600 C 116.972 238.260,116.221 238.800,115.993 238.800 C 115.765 238.800,114.769 239.610,113.779 240.600 C 112.789 241.590,111.828 242.400,111.643 242.400 C 111.459 242.400,110.277 243.390,109.018 244.600 C 107.758 245.810,106.566 246.800,106.369 246.800 C 105.884 246.800,97.600 255.108,97.600 255.594 C 97.600 255.806,96.832 256.749,95.893 257.689 C 94.955 258.630,93.652 260.120,92.998 261.000 C 92.344 261.880,91.492 262.891,91.104 263.247 C 90.717 263.603,90.400 264.116,90.400 264.386 C 90.400 264.657,89.860 265.383,89.200 266.000 C 88.540 266.617,88.000 267.337,88.000 267.600 C 88.000 267.863,87.460 268.583,86.800 269.200 C 86.140 269.817,85.600 270.526,85.600 270.777 C 85.600 271.028,85.240 271.620,84.800 272.092 C 84.360 272.564,84.000 273.187,84.000 273.475 C 84.000 273.764,83.820 274.000,83.600 274.000 C 83.380 274.000,83.200 274.236,83.200 274.525 C 83.200 274.813,82.840 275.436,82.400 275.908 C 81.960 276.380,81.600 276.954,81.600 277.183 C 81.600 277.412,81.465 277.601,81.300 277.603 C 81.135 277.605,80.802 278.010,80.560 278.503 C 79.378 280.911,78.170 283.013,77.900 283.133 C 77.735 283.207,77.600 283.612,77.600 284.033 C 77.600 284.455,77.420 284.800,77.200 284.800 C 76.980 284.800,76.800 285.160,76.800 285.600 C 76.800 286.040,76.620 286.400,76.400 286.400 C 76.180 286.400,76.000 286.649,76.000 286.954 C 76.000 287.259,75.731 288.024,75.402 288.654 C 75.074 289.284,74.804 290.115,74.802 290.500 C 74.801 290.885,74.620 291.200,74.400 291.200 C 74.180 291.200,74.000 291.560,74.000 292.000 C 74.000 292.440,73.820 292.800,73.600 292.800 C 73.380 292.800,73.200 293.149,73.200 293.576 C 73.200 294.003,73.020 294.464,72.800 294.600 C 72.580 294.736,72.400 295.197,72.400 295.624 C 72.400 296.051,72.220 296.400,72.000 296.400 C 71.780 296.400,71.600 296.839,71.600 297.376 C 71.600 297.913,71.420 298.464,71.200 298.600 C 70.980 298.736,70.800 299.197,70.800 299.624 C 70.800 300.051,70.620 300.400,70.400 300.400 C 70.180 300.400,70.000 300.940,70.000 301.600 C 70.000 302.260,69.820 302.800,69.600 302.800 C 69.380 302.800,69.200 303.340,69.200 304.000 C 69.200 304.660,69.020 305.200,68.800 305.200 C 68.580 305.200,68.400 305.740,68.400 306.400 C 68.400 307.060,68.220 307.600,68.000 307.600 C 67.780 307.600,67.600 308.230,67.600 309.000 C 67.600 309.770,67.420 310.400,67.200 310.400 C 66.980 310.400,66.800 310.940,66.800 311.600 C 66.800 312.533,66.622 312.800,66.000 312.800 C 65.560 312.800,65.200 312.622,65.200 312.405 C 65.200 311.984,64.374 310.893,62.900 309.368 C 62.405 308.856,62.000 308.324,62.000 308.187 C 62.000 308.050,61.280 307.246,60.400 306.400 C 59.520 305.554,58.800 304.622,58.800 304.327 C 58.800 304.033,58.395 303.344,57.900 302.796 C 57.405 302.248,56.745 301.305,56.432 300.700 C 56.120 300.095,55.715 299.600,55.532 299.600 C 55.350 299.600,55.200 299.280,55.200 298.888 C 55.200 298.497,54.840 297.917,54.400 297.600 C 53.960 297.283,53.600 296.769,53.600 296.459 C 53.600 296.148,53.284 295.603,52.897 295.247 C 52.511 294.891,51.942 294.108,51.633 293.507 C 51.325 292.905,50.786 292.095,50.436 291.707 C 50.086 291.318,49.545 290.505,49.232 289.900 C 48.920 289.295,48.515 288.800,48.332 288.800 C 48.150 288.800,48.000 288.440,48.000 288.000 C 48.000 287.560,47.820 287.200,47.600 287.200 C 47.380 287.200,47.200 286.840,47.200 286.400 C 47.200 285.960,47.020 285.600,46.800 285.600 C 46.580 285.600,46.400 285.240,46.400 284.800 C 46.400 284.360,46.220 284.000,46.000 284.000 C 45.780 284.000,45.600 283.640,45.600 283.200 C 45.600 282.760,45.420 282.400,45.200 282.400 C 44.980 282.400,44.800 282.164,44.800 281.875 C 44.800 281.587,44.440 280.964,44.000 280.492 C 43.560 280.020,43.200 279.356,43.200 279.017 C 43.200 278.678,43.020 278.400,42.800 278.400 C 42.580 278.400,42.400 278.040,42.400 277.600 C 42.400 277.160,42.234 276.800,42.032 276.800 C 41.829 276.800,41.536 276.221,41.381 275.513 C 41.114 274.297,40.971 273.934,40.000 272.005 C 39.780 271.568,39.600 270.938,39.600 270.605 C 39.600 270.272,39.420 270.000,39.200 270.000 C 38.980 270.000,38.800 269.640,38.800 269.200 C 38.800 268.760,38.620 268.400,38.400 268.400 C 38.180 268.400,38.000 267.961,38.000 267.424 C 38.000 266.887,37.820 266.336,37.600 266.200 C 37.380 266.064,37.200 265.603,37.200 265.176 C 37.200 264.749,37.020 264.400,36.800 264.400 C 36.580 264.400,36.400 264.040,36.400 263.600 C 36.400 263.160,36.220 262.800,36.000 262.800 C 35.780 262.800,35.600 262.361,35.600 261.824 C 35.600 261.287,35.420 260.736,35.200 260.600 C 34.980 260.464,34.800 259.913,34.800 259.376 C 34.800 258.839,34.620 258.400,34.400 258.400 C 34.180 258.400,34.000 257.860,34.000 257.200 C 34.000 256.540,33.820 256.000,33.600 256.000 C 33.380 256.000,33.200 255.460,33.200 254.800 C 33.200 254.140,33.020 253.600,32.800 253.600 C 32.580 253.600,32.400 253.060,32.400 252.400 C 32.400 251.740,32.220 251.200,32.000 251.200 C 31.780 251.200,31.600 250.660,31.600 250.000 C 31.600 249.340,31.420 248.800,31.200 248.800 C 30.980 248.800,30.800 248.181,30.800 247.424 C 30.800 246.667,30.620 245.936,30.400 245.800 C 30.180 245.664,30.000 244.933,30.000 244.176 C 30.000 243.419,29.820 242.800,29.600 242.800 C 29.380 242.800,29.200 242.080,29.200 241.200 C 29.200 240.320,29.020 239.600,28.800 239.600 C 28.580 239.600,28.400 238.700,28.400 237.600 C 28.400 236.500,28.220 235.600,28.000 235.600 C 27.780 235.600,27.600 234.880,27.600 234.000 C 27.600 233.120,27.420 232.400,27.200 232.400 C 26.978 232.400,26.800 231.341,26.800 230.024 C 26.800 228.717,26.620 227.536,26.400 227.400 C 26.180 227.264,26.000 225.918,26.000 224.410 C 26.000 222.873,25.818 221.606,25.585 221.528 C 24.506 221.169,24.533 178.107,25.614 177.026 C 25.826 176.814,26.000 175.596,26.000 174.320 C 26.000 173.040,26.179 172.000,26.400 172.000 C 26.620 172.000,26.800 171.010,26.800 169.800 C 26.800 168.590,26.980 167.600,27.200 167.600 C 27.420 167.600,27.600 166.700,27.600 165.600 C 27.600 164.500,27.780 163.600,28.000 163.600 C 28.220 163.600,28.400 162.880,28.400 162.000 C 28.400 161.120,28.580 160.400,28.800 160.400 C 29.020 160.400,29.200 159.590,29.200 158.600 C 29.200 157.610,29.380 156.800,29.600 156.800 C 29.820 156.800,30.000 156.271,30.000 155.624 C 30.000 154.977,30.180 154.336,30.400 154.200 C 30.620 154.064,30.800 153.333,30.800 152.576 C 30.800 151.819,30.980 151.200,31.200 151.200 C 31.420 151.200,31.600 150.660,31.600 150.000 C 31.600 149.340,31.780 148.800,32.000 148.800 C 32.220 148.800,32.400 148.260,32.400 147.600 C 32.400 146.940,32.580 146.400,32.800 146.400 C 33.020 146.400,33.200 145.860,33.200 145.200 C 33.200 144.540,33.380 144.000,33.600 144.000 C 33.820 144.000,34.000 143.460,34.000 142.800 C 34.000 142.140,34.180 141.600,34.400 141.600 C 34.620 141.600,34.800 141.161,34.800 140.624 C 34.800 140.087,34.980 139.536,35.200 139.400 C 35.420 139.264,35.600 138.713,35.600 138.176 C 35.600 137.639,35.780 137.200,36.000 137.200 C 36.220 137.200,36.400 136.840,36.400 136.400 C 36.400 135.960,36.580 135.600,36.800 135.600 C 37.020 135.600,37.200 135.060,37.200 134.400 C 37.200 133.740,37.380 133.200,37.600 133.200 C 37.820 133.200,38.000 132.840,38.000 132.400 C 38.000 131.960,38.180 131.600,38.400 131.600 C 38.620 131.600,38.800 131.328,38.800 130.995 C 38.800 130.662,39.008 129.987,39.262 129.495 C 40.233 127.618,40.400 127.193,40.400 126.605 C 40.400 126.272,40.572 126.000,40.782 126.000 C 40.992 126.000,41.282 125.370,41.426 124.600 C 41.571 123.830,41.849 123.200,42.045 123.200 C 42.240 123.200,42.400 122.840,42.400 122.400 C 42.400 121.960,42.580 121.600,42.800 121.600 C 43.020 121.600,43.200 121.240,43.200 120.800 C 43.200 120.360,43.380 120.000,43.600 120.000 C 43.820 120.000,44.000 119.640,44.000 119.200 C 44.000 118.760,44.180 118.400,44.400 118.400 C 44.620 118.400,44.800 118.040,44.800 117.600 C 44.800 117.160,44.980 116.800,45.200 116.800 C 45.420 116.800,45.600 116.530,45.600 116.200 C 45.600 115.870,45.780 115.600,46.000 115.600 C 46.220 115.600,46.400 115.330,46.400 115.000 C 46.400 114.670,46.580 114.400,46.800 114.400 C 47.020 114.400,47.200 114.040,47.200 113.600 C 47.200 113.160,47.380 112.800,47.600 112.800 C 47.820 112.800,48.000 112.522,48.000 112.183 C 48.000 111.844,48.360 111.180,48.800 110.708 C 49.240 110.236,49.600 109.613,49.600 109.325 C 49.600 109.036,49.780 108.800,50.000 108.800 C 50.220 108.800,50.400 108.530,50.400 108.200 C 50.400 107.870,50.580 107.600,50.800 107.600 C 51.020 107.600,51.200 107.330,51.200 107.000 C 51.200 106.670,51.380 106.400,51.600 106.400 C 51.820 106.400,52.000 106.212,52.000 105.983 C 52.000 105.754,52.360 105.180,52.800 104.708 C 53.240 104.236,53.600 103.613,53.600 103.325 C 53.600 103.036,53.758 102.800,53.951 102.800 C 54.145 102.800,54.527 102.260,54.800 101.600 C 55.073 100.940,55.425 100.400,55.581 100.400 C 55.737 100.400,56.120 99.905,56.432 99.300 C 56.745 98.695,57.405 97.752,57.900 97.204 C 58.395 96.656,58.800 95.964,58.800 95.665 C 58.800 95.366,59.340 94.617,60.000 94.000 C 60.660 93.383,61.200 92.603,61.200 92.266 C 61.200 91.930,61.521 91.552,61.913 91.427 C 62.306 91.303,62.954 90.648,63.354 89.971 C 63.753 89.294,64.830 87.989,65.745 87.070 C 66.661 86.152,67.857 84.770,68.402 84.000 C 70.273 81.357,81.357 70.273,84.000 68.402 C 84.770 67.857,86.152 66.661,87.070 65.745 C 87.989 64.830,89.294 63.753,89.971 63.354 C 90.648 62.954,91.303 62.306,91.427 61.913 C 91.552 61.521,91.930 61.200,92.266 61.200 C 92.603 61.200,93.383 60.660,94.000 60.000 C 94.617 59.340,95.366 58.800,95.665 58.800 C 95.964 58.800,96.656 58.395,97.204 57.900 C 97.752 57.405,98.695 56.745,99.300 56.432 C 99.905 56.120,100.400 55.737,100.400 55.581 C 100.400 55.425,100.940 55.073,101.600 54.800 C 102.260 54.527,102.800 54.145,102.800 53.951 C 102.800 53.758,103.036 53.600,103.325 53.600 C 103.613 53.600,104.236 53.240,104.708 52.800 C 105.180 52.360,105.754 52.000,105.983 52.000 C 106.212 52.000,106.400 51.820,106.400 51.600 C 106.400 51.380,106.670 51.200,107.000 51.200 C 107.330 51.200,107.600 51.020,107.600 50.800 C 107.600 50.580,107.870 50.400,108.200 50.400 C 108.530 50.400,108.800 50.220,108.800 50.000 C 108.800 49.780,109.036 49.600,109.325 49.600 C 109.613 49.600,110.236 49.240,110.708 48.800 C 111.180 48.360,111.844 48.000,112.183 48.000 C 112.522 48.000,112.800 47.820,112.800 47.600 C 112.800 47.380,113.160 47.200,113.600 47.200 C 114.040 47.200,114.400 47.020,114.400 46.800 C 114.400 46.580,114.670 46.400,115.000 46.400 C 115.330 46.400,115.600 46.220,115.600 46.000 C 115.600 45.780,115.870 45.600,116.200 45.600 C 116.530 45.600,116.800 45.420,116.800 45.200 C 116.800 44.980,117.160 44.800,117.600 44.800 C 118.040 44.800,118.400 44.620,118.400 44.400 C 118.400 44.180,118.760 44.000,119.200 44.000 C 119.640 44.000,120.000 43.820,120.000 43.600 C 120.000 43.380,120.360 43.200,120.800 43.200 C 121.240 43.200,121.600 43.020,121.600 42.800 C 121.600 42.580,121.960 42.400,122.400 42.400 C 122.840 42.400,123.200 42.240,123.200 42.045 C 123.200 41.849,123.830 41.571,124.600 41.426 C 125.370 41.282,126.000 40.992,126.000 40.782 C 126.000 40.572,126.272 40.400,126.605 40.400 C 126.938 40.400,127.568 40.220,128.005 40.000 C 128.442 39.780,129.158 39.420,129.595 39.200 C 130.032 38.980,130.662 38.800,130.995 38.800 C 131.328 38.800,131.600 38.620,131.600 38.400 C 131.600 38.180,131.960 38.000,132.400 38.000 C 132.840 38.000,133.200 37.820,133.200 37.600 C 133.200 37.380,133.740 37.200,134.400 37.200 C 135.060 37.200,135.600 37.020,135.600 36.800 C 135.600 36.580,135.960 36.400,136.400 36.400 C 136.840 36.400,137.200 36.220,137.200 36.000 C 137.200 35.780,137.639 35.600,138.176 35.600 C 138.713 35.600,139.264 35.420,139.400 35.200 C 139.536 34.980,140.087 34.800,140.624 34.800 C 141.161 34.800,141.600 34.620,141.600 34.400 C 141.600 34.180,142.140 34.000,142.800 34.000 C 143.460 34.000,144.000 33.820,144.000 33.600 C 144.000 33.380,144.540 33.200,145.200 33.200 C 145.860 33.200,146.400 33.020,146.400 32.800 C 146.400 32.580,146.940 32.400,147.600 32.400 C 148.260 32.400,148.800 32.220,148.800 32.000 C 148.800 31.780,149.340 31.600,150.000 31.600 C 150.660 31.600,151.200 31.420,151.200 31.200 C 151.200 30.980,151.819 30.800,152.576 30.800 C 153.333 30.800,154.064 30.620,154.200 30.400 C 154.336 30.180,154.977 30.000,155.624 30.000 C 156.271 30.000,156.800 29.820,156.800 29.600 C 156.800 29.380,157.610 29.200,158.600 29.200 C 159.590 29.200,160.400 29.020,160.400 28.800 C 160.400 28.580,161.120 28.400,162.000 28.400 C 162.880 28.400,163.600 28.220,163.600 28.000 C 163.600 27.780,164.500 27.600,165.600 27.600 C 166.700 27.600,167.600 27.420,167.600 27.200 C 167.600 26.980,168.590 26.800,169.800 26.800 C 171.010 26.800,172.000 26.620,172.000 26.400 C 172.000 26.179,173.040 26.000,174.320 26.000 C 175.596 26.000,176.821 25.819,177.043 25.597 C 177.527 25.113,195.975 24.458,203.400 24.661 C 206.260 24.739,211.796 24.912,215.703 25.045 M209.400 90.806 C 209.620 90.979,211.195 91.249,212.900 91.407 C 214.605 91.565,216.000 91.853,216.000 92.047 C 216.000 92.241,216.540 92.400,217.200 92.400 C 217.860 92.400,218.400 92.580,218.400 92.800 C 218.400 93.020,218.940 93.200,219.600 93.200 C 220.260 93.200,220.800 93.380,220.800 93.600 C 220.800 93.820,221.340 94.000,222.000 94.000 C 222.660 94.000,223.200 94.180,223.200 94.400 C 223.200 94.620,223.560 94.800,224.000 94.800 C 224.440 94.800,224.800 94.980,224.800 95.200 C 224.800 95.420,225.070 95.600,225.400 95.600 C 225.730 95.600,226.000 95.780,226.000 96.000 C 226.000 96.220,226.360 96.400,226.800 96.400 C 227.240 96.400,227.600 96.580,227.600 96.800 C 227.600 97.020,227.878 97.200,228.217 97.200 C 228.556 97.200,229.220 97.560,229.692 98.000 C 230.164 98.440,230.787 98.800,231.075 98.800 C 231.364 98.800,231.600 98.980,231.600 99.200 C 231.600 99.420,231.872 99.600,232.204 99.600 C 232.536 99.600,233.372 100.140,234.063 100.800 C 234.754 101.460,235.478 102.000,235.673 102.000 C 235.867 102.000,236.657 102.630,237.427 103.400 C 238.197 104.170,238.974 104.800,239.154 104.800 C 239.561 104.800,244.400 109.565,244.400 109.965 C 244.400 110.126,245.210 111.102,246.200 112.135 C 247.190 113.169,248.000 114.193,248.000 114.411 C 248.000 114.629,248.540 115.372,249.200 116.063 C 249.860 116.754,250.400 117.562,250.400 117.859 C 250.400 118.157,250.580 118.400,250.800 118.400 C 251.020 118.400,251.200 118.678,251.200 119.017 C 251.200 119.356,251.560 120.020,252.000 120.492 C 252.440 120.964,252.800 121.587,252.800 121.875 C 252.800 122.164,252.980 122.400,253.200 122.400 C 253.420 122.400,253.600 122.760,253.600 123.200 C 253.600 123.640,253.780 124.000,254.000 124.000 C 254.220 124.000,254.400 124.450,254.400 125.000 C 254.400 125.550,254.580 126.000,254.800 126.000 C 255.020 126.000,255.200 126.360,255.200 126.800 C 255.200 127.240,255.380 127.600,255.600 127.600 C 255.820 127.600,256.000 128.039,256.000 128.576 C 256.000 129.113,256.180 129.664,256.400 129.800 C 256.620 129.936,256.800 130.397,256.800 130.824 C 256.800 131.251,256.980 131.600,257.200 131.600 C 257.420 131.600,257.600 132.320,257.600 133.200 C 257.600 134.080,257.756 134.800,257.946 134.800 C 258.654 134.800,259.341 142.389,259.323 150.000 C 259.303 157.659,258.619 165.200,257.943 165.200 C 257.754 165.200,257.600 165.740,257.600 166.400 C 257.600 167.060,257.420 167.600,257.200 167.600 C 256.980 167.600,256.800 168.140,256.800 168.800 C 256.800 169.460,256.620 170.000,256.400 170.000 C 256.180 170.000,256.000 170.540,256.000 171.200 C 256.000 171.860,255.820 172.400,255.600 172.400 C 255.380 172.400,255.200 172.760,255.200 173.200 C 255.200 173.640,255.020 174.000,254.800 174.000 C 254.580 174.000,254.400 174.360,254.400 174.800 C 254.400 175.240,254.254 175.600,254.075 175.600 C 253.896 175.600,253.502 176.230,253.200 177.000 C 252.898 177.770,252.504 178.400,252.325 178.400 C 252.146 178.400,252.000 178.760,252.000 179.200 C 252.000 179.640,251.850 180.000,251.668 180.000 C 251.485 180.000,251.080 180.495,250.768 181.100 C 250.455 181.705,249.885 182.549,249.500 182.975 C 249.115 183.402,248.800 183.905,248.800 184.094 C 248.800 184.282,248.350 184.886,247.800 185.436 C 247.250 185.986,246.800 186.611,246.800 186.825 C 246.800 187.326,237.793 196.400,237.295 196.400 C 237.088 196.400,236.394 196.895,235.752 197.500 C 235.111 198.105,234.094 198.855,233.493 199.168 C 232.892 199.480,232.400 199.885,232.400 200.068 C 232.400 200.250,232.122 200.400,231.783 200.400 C 231.444 200.400,230.780 200.760,230.308 201.200 C 229.836 201.640,229.213 202.000,228.925 202.000 C 228.636 202.000,228.400 202.180,228.400 202.400 C 228.400 202.620,228.040 202.800,227.600 202.800 C 227.160 202.800,226.800 202.946,226.800 203.125 C 226.800 203.304,226.170 203.698,225.400 204.000 C 224.630 204.302,224.000 204.696,224.000 204.875 C 224.000 205.054,223.460 205.200,222.800 205.200 C 222.140 205.200,221.600 205.380,221.600 205.600 C 221.600 205.820,221.251 206.000,220.824 206.000 C 220.397 206.000,219.936 206.180,219.800 206.400 C 219.664 206.620,219.113 206.800,218.576 206.800 C 218.039 206.800,217.600 206.980,217.600 207.200 C 217.600 207.420,216.880 207.600,216.000 207.600 C 215.120 207.600,214.400 207.755,214.400 207.945 C 214.400 208.557,206.371 209.329,200.000 209.329 C 193.629 209.329,185.600 208.557,185.600 207.945 C 185.600 207.755,184.880 207.600,184.000 207.600 C 183.120 207.600,182.400 207.420,182.400 207.200 C 182.400 206.980,181.961 206.800,181.424 206.800 C 180.887 206.800,180.336 206.620,180.200 206.400 C 180.064 206.180,179.603 206.000,179.176 206.000 C 178.749 206.000,178.400 205.820,178.400 205.600 C 178.400 205.380,177.860 205.200,177.200 205.200 C 176.540 205.200,176.000 205.054,176.000 204.875 C 176.000 204.696,175.370 204.302,174.600 204.000 C 173.830 203.698,173.200 203.304,173.200 203.125 C 173.200 202.946,172.840 202.800,172.400 202.800 C 171.960 202.800,171.600 202.620,171.600 202.400 C 171.600 202.180,171.364 202.000,171.075 202.000 C 170.787 202.000,170.164 201.640,169.692 201.200 C 169.220 200.760,168.556 200.400,168.217 200.400 C 167.878 200.400,167.600 200.250,167.600 200.068 C 167.600 199.885,167.108 199.480,166.507 199.168 C 165.906 198.855,164.889 198.105,164.248 197.500 C 163.606 196.895,162.912 196.400,162.705 196.400 C 162.207 196.400,153.200 187.326,153.200 186.825 C 153.200 186.611,152.750 185.986,152.200 185.436 C 151.650 184.886,151.200 184.282,151.200 184.094 C 151.200 183.905,150.885 183.402,150.500 182.975 C 150.115 182.549,149.545 181.705,149.232 181.100 C 148.920 180.495,148.515 180.000,148.332 180.000 C 148.150 180.000,148.000 179.640,148.000 179.200 C 148.000 178.760,147.854 178.400,147.675 178.400 C 147.496 178.400,147.102 177.770,146.800 177.000 C 146.498 176.230,146.104 175.600,145.925 175.600 C 145.746 175.600,145.600 175.240,145.600 174.800 C 145.600 174.360,145.420 174.000,145.200 174.000 C 144.980 174.000,144.800 173.640,144.800 173.200 C 144.800 172.760,144.620 172.400,144.400 172.400 C 144.180 172.400,144.000 171.860,144.000 171.200 C 144.000 170.540,143.820 170.000,143.600 170.000 C 143.380 170.000,143.200 169.460,143.200 168.800 C 143.200 168.140,143.020 167.600,142.800 167.600 C 142.580 167.600,142.400 167.060,142.400 166.400 C 142.400 165.740,142.236 165.200,142.036 165.200 C 141.836 165.200,141.544 163.625,141.388 161.700 C 141.232 159.775,140.939 157.992,140.735 157.739 C 139.832 156.611,141.048 135.229,142.036 134.867 C 142.236 134.793,142.400 134.028,142.400 133.167 C 142.400 132.305,142.580 131.600,142.800 131.600 C 143.020 131.600,143.200 131.251,143.200 130.824 C 143.200 130.397,143.380 129.936,143.600 129.800 C 143.820 129.664,144.000 129.113,144.000 128.576 C 144.000 128.039,144.180 127.600,144.400 127.600 C 144.620 127.600,144.800 127.240,144.800 126.800 C 144.800 126.360,144.980 126.000,145.200 126.000 C 145.420 126.000,145.600 125.550,145.600 125.000 C 145.600 124.450,145.780 124.000,146.000 124.000 C 146.220 124.000,146.400 123.640,146.400 123.200 C 146.400 122.760,146.580 122.400,146.800 122.400 C 147.020 122.400,147.200 122.164,147.200 121.875 C 147.200 121.587,147.560 120.964,148.000 120.492 C 148.440 120.020,148.800 119.356,148.800 119.017 C 148.800 118.678,148.980 118.400,149.200 118.400 C 149.420 118.400,149.600 118.157,149.600 117.859 C 149.600 117.562,150.140 116.754,150.800 116.063 C 151.460 115.372,152.000 114.629,152.000 114.411 C 152.000 114.193,152.810 113.169,153.800 112.135 C 154.790 111.102,155.600 110.131,155.600 109.977 C 155.600 109.598,160.480 104.800,160.866 104.800 C 161.035 104.800,161.803 104.170,162.573 103.400 C 163.343 102.630,164.133 102.000,164.327 102.000 C 164.522 102.000,165.246 101.460,165.937 100.800 C 166.628 100.140,167.464 99.600,167.796 99.600 C 168.128 99.600,168.400 99.420,168.400 99.200 C 168.400 98.980,168.636 98.800,168.925 98.800 C 169.213 98.800,169.836 98.440,170.308 98.000 C 170.780 97.560,171.444 97.200,171.783 97.200 C 172.122 97.200,172.400 97.020,172.400 96.800 C 172.400 96.580,172.760 96.400,173.200 96.400 C 173.640 96.400,174.000 96.220,174.000 96.000 C 174.000 95.780,174.270 95.600,174.600 95.600 C 174.930 95.600,175.200 95.420,175.200 95.200 C 175.200 94.980,175.560 94.800,176.000 94.800 C 176.440 94.800,176.800 94.620,176.800 94.400 C 176.800 94.180,177.340 94.000,178.000 94.000 C 178.660 94.000,179.200 93.820,179.200 93.600 C 179.200 93.380,179.740 93.200,180.400 93.200 C 181.060 93.200,181.600 93.020,181.600 92.800 C 181.600 92.580,182.140 92.400,182.800 92.400 C 183.460 92.400,184.000 92.241,184.000 92.047 C 184.000 91.853,185.395 91.565,187.100 91.407 C 188.805 91.249,190.390 90.965,190.623 90.775 C 191.458 90.094,208.529 90.122,209.400 90.806 M209.200 236.000 C 209.200 236.231,210.459 236.400,212.176 236.400 C 213.813 236.400,215.264 236.580,215.400 236.800 C 215.536 237.020,216.796 237.200,218.200 237.200 C 219.604 237.200,220.864 237.380,221.000 237.600 C 221.136 237.820,222.047 238.000,223.024 238.000 C 224.001 238.000,224.800 238.180,224.800 238.400 C 224.800 238.620,225.419 238.800,226.176 238.800 C 226.933 238.800,227.664 238.980,227.800 239.200 C 227.936 239.420,228.579 239.600,229.229 239.600 C 229.879 239.600,230.723 239.763,231.105 239.963 C 232.247 240.560,236.022 241.600,237.046 241.600 C 237.571 241.600,238.000 241.780,238.000 242.000 C 238.000 242.220,238.439 242.400,238.976 242.400 C 239.513 242.400,240.064 242.580,240.200 242.800 C 240.336 243.020,240.797 243.200,241.224 243.200 C 241.651 243.200,242.000 243.380,242.000 243.600 C 242.000 243.820,242.450 244.000,243.000 244.000 C 243.550 244.000,244.000 244.180,244.000 244.400 C 244.000 244.620,244.360 244.800,244.800 244.800 C 245.240 244.800,245.600 244.980,245.600 245.200 C 245.600 245.420,245.960 245.600,246.400 245.600 C 246.840 245.600,247.200 245.780,247.200 246.000 C 247.200 246.220,247.560 246.400,248.000 246.400 C 248.440 246.400,248.800 246.580,248.800 246.800 C 248.800 247.020,249.160 247.200,249.600 247.200 C 250.040 247.200,250.400 247.380,250.400 247.600 C 250.400 247.820,250.760 248.000,251.200 248.000 C 251.640 248.000,252.000 248.180,252.000 248.400 C 252.000 248.620,252.360 248.800,252.800 248.800 C 253.240 248.800,253.600 248.980,253.600 249.200 C 253.600 249.420,253.960 249.600,254.400 249.600 C 254.840 249.600,255.200 249.780,255.200 250.000 C 255.200 250.220,255.436 250.400,255.725 250.400 C 256.013 250.400,256.636 250.760,257.108 251.200 C 257.580 251.640,258.077 252.000,258.211 252.000 C 258.346 252.000,259.241 252.540,260.200 253.200 C 261.159 253.860,262.045 254.400,262.167 254.400 C 262.290 254.400,262.708 254.660,263.095 254.978 C 265.134 256.650,268.231 258.800,268.601 258.800 C 268.833 258.800,269.283 259.160,269.600 259.600 C 269.917 260.040,270.396 260.400,270.665 260.400 C 270.934 260.400,272.775 262.020,274.757 264.000 C 276.739 265.980,278.504 267.604,278.680 267.609 C 278.856 267.613,279.540 268.279,280.200 269.089 C 280.860 269.898,282.705 271.894,284.300 273.525 C 285.895 275.156,287.200 276.628,287.200 276.797 C 287.200 276.966,287.920 277.845,288.800 278.752 C 289.680 279.659,290.400 280.589,290.400 280.819 C 290.400 281.048,290.819 281.655,291.330 282.166 C 291.842 282.678,292.493 283.660,292.779 284.348 C 293.064 285.037,293.455 285.600,293.649 285.600 C 293.842 285.600,294.000 285.836,294.000 286.125 C 294.000 286.413,294.315 286.998,294.700 287.425 C 295.085 287.851,295.655 288.695,295.968 289.300 C 296.280 289.905,296.685 290.400,296.868 290.400 C 297.050 290.400,297.200 290.670,297.200 291.000 C 297.200 291.330,297.380 291.600,297.600 291.600 C 297.820 291.600,298.000 291.960,298.000 292.400 C 298.000 292.840,298.180 293.200,298.400 293.200 C 298.620 293.200,298.800 293.560,298.800 294.000 C 298.800 294.440,298.980 294.800,299.200 294.800 C 299.420 294.800,299.600 295.160,299.600 295.600 C 299.600 296.040,299.759 296.400,299.953 296.400 C 300.148 296.400,300.407 296.715,300.529 297.100 C 300.651 297.485,301.059 298.340,301.436 299.000 C 302.529 300.914,302.800 301.549,302.800 302.195 C 302.800 302.528,302.980 302.800,303.200 302.800 C 303.420 302.800,303.600 303.160,303.600 303.600 C 303.600 304.040,303.780 304.400,304.000 304.400 C 304.220 304.400,304.400 304.850,304.400 305.400 C 304.400 305.950,304.580 306.400,304.800 306.400 C 305.020 306.400,305.200 306.760,305.200 307.200 C 305.200 307.640,305.380 308.000,305.600 308.000 C 305.820 308.000,306.000 308.540,306.000 309.200 C 306.000 309.860,306.180 310.400,306.400 310.400 C 306.620 310.400,306.800 310.940,306.800 311.600 C 306.800 312.260,306.980 312.800,307.200 312.800 C 307.420 312.800,307.600 313.239,307.600 313.776 C 307.600 314.313,307.763 314.854,307.963 314.977 C 308.162 315.100,308.452 316.146,308.607 317.300 C 308.763 318.455,309.028 319.580,309.197 319.800 C 309.367 320.020,309.604 320.830,309.724 321.600 C 309.844 322.370,310.154 323.810,310.412 324.800 C 310.671 325.790,310.969 327.590,311.076 328.800 C 311.183 330.010,311.435 331.171,311.635 331.380 C 312.237 332.007,312.088 335.600,311.459 335.600 C 311.162 335.600,310.354 336.140,309.663 336.800 C 308.972 337.460,308.316 338.000,308.204 338.000 C 308.092 338.000,307.259 338.720,306.352 339.600 C 305.445 340.480,304.538 341.200,304.335 341.200 C 304.132 341.200,303.749 341.383,303.483 341.607 C 301.619 343.179,301.016 343.604,300.352 343.815 C 299.939 343.946,299.600 344.222,299.600 344.427 C 299.600 344.632,299.364 344.800,299.075 344.800 C 298.787 344.800,298.164 345.160,297.692 345.600 C 297.220 346.040,296.622 346.400,296.364 346.400 C 296.105 346.400,295.603 346.716,295.247 347.103 C 294.891 347.489,294.060 348.073,293.400 348.400 C 292.740 348.727,291.909 349.311,291.553 349.697 C 291.197 350.084,290.652 350.400,290.341 350.400 C 290.031 350.400,289.517 350.760,289.200 351.200 C 288.883 351.640,288.303 352.000,287.912 352.000 C 287.520 352.000,287.200 352.180,287.200 352.400 C 287.200 352.620,286.840 352.800,286.400 352.800 C 285.960 352.800,285.600 352.980,285.600 353.200 C 285.600 353.420,285.240 353.600,284.800 353.600 C 284.360 353.600,284.000 353.780,284.000 354.000 C 284.000 354.220,283.640 354.400,283.200 354.400 C 282.760 354.400,282.400 354.546,282.400 354.725 C 282.400 354.904,281.770 355.298,281.000 355.600 C 280.230 355.902,279.600 356.296,279.600 356.475 C 279.600 356.654,279.330 356.800,279.000 356.800 C 278.670 356.800,278.400 356.980,278.400 357.200 C 278.400 357.420,278.040 357.600,277.600 357.600 C 277.160 357.600,276.800 357.772,276.800 357.982 C 276.800 358.192,276.170 358.482,275.400 358.626 C 274.630 358.771,274.000 359.016,274.000 359.172 C 274.000 359.328,273.100 359.700,272.000 360.000 C 270.900 360.300,270.000 360.692,270.000 360.872 C 270.000 361.053,269.728 361.200,269.395 361.200 C 269.062 361.200,268.432 361.380,267.995 361.600 C 267.558 361.820,266.842 362.180,266.405 362.400 C 265.968 362.620,265.338 362.800,265.005 362.800 C 264.672 362.800,264.400 362.980,264.400 363.200 C 264.400 363.420,263.950 363.600,263.400 363.600 C 262.850 363.600,262.400 363.780,262.400 364.000 C 262.400 364.220,262.051 364.400,261.624 364.400 C 261.197 364.400,260.736 364.580,260.600 364.800 C 260.464 365.020,259.913 365.200,259.376 365.200 C 258.839 365.200,258.400 365.380,258.400 365.600 C 258.400 365.820,257.860 366.000,257.200 366.000 C 256.540 366.000,256.000 366.180,256.000 366.400 C 256.000 366.620,255.460 366.800,254.800 366.800 C 254.140 366.800,253.600 366.980,253.600 367.200 C 253.600 367.420,253.060 367.600,252.400 367.600 C 251.740 367.600,251.200 367.780,251.200 368.000 C 251.200 368.220,250.671 368.400,250.024 368.400 C 249.377 368.400,248.736 368.580,248.600 368.800 C 248.464 369.020,247.823 369.200,247.176 369.200 C 246.529 369.200,246.000 369.380,246.000 369.600 C 246.000 369.820,245.280 370.000,244.400 370.000 C 243.520 370.000,242.800 370.180,242.800 370.400 C 242.800 370.620,242.080 370.800,241.200 370.800 C 240.320 370.800,239.600 370.980,239.600 371.200 C 239.600 371.420,238.700 371.600,237.600 371.600 C 236.500 371.600,235.600 371.780,235.600 372.000 C 235.600 372.220,234.880 372.400,234.000 372.400 C 233.120 372.400,232.400 372.580,232.400 372.800 C 232.400 373.022,231.333 373.200,230.000 373.200 C 228.667 373.200,227.600 373.378,227.600 373.600 C 227.600 373.831,226.344 374.000,224.633 374.000 C 223.002 374.000,221.607 374.178,221.533 374.395 C 221.148 375.535,178.852 375.535,178.467 374.395 C 178.393 374.178,176.998 374.000,175.367 374.000 C 173.656 374.000,172.400 373.831,172.400 373.600 C 172.400 373.378,171.333 373.200,170.000 373.200 C 168.667 373.200,167.600 373.022,167.600 372.800 C 167.600 372.580,166.880 372.400,166.000 372.400 C 165.120 372.400,164.400 372.220,164.400 372.000 C 164.400 371.780,163.500 371.600,162.400 371.600 C 161.300 371.600,160.400 371.420,160.400 371.200 C 160.400 370.980,159.680 370.800,158.800 370.800 C 157.920 370.800,157.200 370.620,157.200 370.400 C 157.200 370.180,156.480 370.000,155.600 370.000 C 154.720 370.000,154.000 369.820,154.000 369.600 C 154.000 369.380,153.471 369.200,152.824 369.200 C 152.177 369.200,151.536 369.020,151.400 368.800 C 151.264 368.580,150.623 368.400,149.976 368.400 C 149.329 368.400,148.800 368.220,148.800 368.000 C 148.800 367.780,148.260 367.600,147.600 367.600 C 146.940 367.600,146.400 367.420,146.400 367.200 C 146.400 366.980,145.860 366.800,145.200 366.800 C 144.540 366.800,144.000 366.620,144.000 366.400 C 144.000 366.180,143.460 366.000,142.800 366.000 C 142.140 366.000,141.600 365.820,141.600 365.600 C 141.600 365.380,141.161 365.200,140.624 365.200 C 140.087 365.200,139.536 365.020,139.400 364.800 C 139.264 364.580,138.803 364.400,138.376 364.400 C 137.949 364.400,137.600 364.220,137.600 364.000 C 137.600 363.780,137.150 363.600,136.600 363.600 C 136.050 363.600,135.600 363.420,135.600 363.200 C 135.600 362.980,135.328 362.800,134.995 362.800 C 134.662 362.800,134.032 362.620,133.595 362.400 C 133.158 362.180,132.442 361.820,132.005 361.600 C 131.568 361.380,130.938 361.200,130.605 361.200 C 130.272 361.200,130.000 361.053,130.000 360.872 C 130.000 360.692,129.100 360.300,128.000 360.000 C 126.900 359.700,126.000 359.316,126.000 359.146 C 126.000 358.976,125.370 358.718,124.600 358.574 C 123.830 358.429,123.200 358.151,123.200 357.955 C 123.200 357.760,122.840 357.600,122.400 357.600 C 121.960 357.600,121.600 357.420,121.600 357.200 C 121.600 356.980,121.330 356.800,121.000 356.800 C 120.670 356.800,120.400 356.654,120.400 356.475 C 120.400 356.296,119.770 355.902,119.000 355.600 C 118.230 355.298,117.600 354.904,117.600 354.725 C 117.600 354.546,117.240 354.400,116.800 354.400 C 116.360 354.400,116.000 354.220,116.000 354.000 C 116.000 353.780,115.640 353.600,115.200 353.600 C 114.760 353.600,114.400 353.420,114.400 353.200 C 114.400 352.980,114.040 352.800,113.600 352.800 C 113.160 352.800,112.800 352.620,112.800 352.400 C 112.800 352.180,112.480 352.000,112.088 352.000 C 111.697 352.000,111.117 351.640,110.800 351.200 C 110.483 350.760,109.969 350.400,109.659 350.400 C 109.348 350.400,108.803 350.084,108.447 349.697 C 108.091 349.311,107.260 348.727,106.600 348.400 C 105.940 348.073,105.109 347.489,104.753 347.103 C 104.397 346.716,103.895 346.400,103.636 346.400 C 103.378 346.400,102.780 346.040,102.308 345.600 C 101.836 345.160,101.213 344.800,100.925 344.800 C 100.636 344.800,100.400 344.632,100.400 344.427 C 100.400 344.222,100.061 343.946,99.648 343.815 C 98.984 343.604,98.381 343.179,96.517 341.607 C 96.251 341.383,95.868 341.200,95.665 341.200 C 95.462 341.200,94.555 340.480,93.648 339.600 C 92.741 338.720,91.859 338.000,91.688 338.000 C 91.517 338.000,91.117 337.640,90.800 337.200 C 90.483 336.760,89.993 336.400,89.712 336.400 C 89.430 336.400,89.200 336.220,89.200 336.000 C 89.200 335.780,88.930 335.600,88.600 335.600 C 87.899 335.600,87.719 331.821,88.400 331.400 C 88.620 331.264,88.800 330.184,88.800 329.000 C 88.800 327.816,88.961 326.748,89.158 326.626 C 89.355 326.505,89.614 325.729,89.735 324.903 C 90.136 322.158,90.497 320.605,90.831 320.183 C 91.012 319.953,91.284 318.558,91.436 317.083 C 91.587 315.607,91.866 314.400,92.055 314.400 C 92.245 314.400,92.400 314.040,92.400 313.600 C 92.400 313.160,92.580 312.800,92.800 312.800 C 93.020 312.800,93.200 312.260,93.200 311.600 C 93.200 310.940,93.380 310.400,93.600 310.400 C 93.820 310.400,94.000 309.950,94.000 309.400 C 94.000 308.850,94.180 308.400,94.400 308.400 C 94.620 308.400,94.800 307.961,94.800 307.424 C 94.800 306.887,94.980 306.336,95.200 306.200 C 95.420 306.064,95.600 305.603,95.600 305.176 C 95.600 304.749,95.780 304.400,96.000 304.400 C 96.220 304.400,96.400 304.040,96.400 303.600 C 96.400 303.160,96.580 302.800,96.800 302.800 C 97.020 302.800,97.200 302.440,97.200 302.000 C 97.200 301.560,97.380 301.200,97.600 301.200 C 97.820 301.200,98.000 300.840,98.000 300.400 C 98.000 299.960,98.180 299.600,98.400 299.600 C 98.620 299.600,98.800 299.240,98.800 298.800 C 98.800 298.360,98.980 298.000,99.200 298.000 C 99.420 298.000,99.600 297.640,99.600 297.200 C 99.600 296.760,99.780 296.400,100.000 296.400 C 100.220 296.400,100.400 296.040,100.400 295.600 C 100.400 295.160,100.580 294.800,100.800 294.800 C 101.020 294.800,101.200 294.522,101.200 294.183 C 101.200 293.844,101.560 293.180,102.000 292.708 C 102.440 292.236,102.800 291.613,102.800 291.325 C 102.800 291.036,102.936 290.800,103.102 290.800 C 103.269 290.800,103.659 290.215,103.970 289.500 C 104.281 288.785,104.655 288.110,104.800 288.000 C 104.945 287.890,105.899 286.540,106.921 285.000 C 107.943 283.460,109.143 281.801,109.589 281.314 C 110.035 280.827,110.400 280.228,110.400 279.983 C 110.400 279.738,111.120 278.846,112.000 278.000 C 112.880 277.154,113.600 276.332,113.600 276.172 C 113.600 276.012,115.625 273.866,118.100 271.402 C 120.575 268.938,123.442 265.995,124.472 264.861 C 125.501 263.728,126.518 262.800,126.731 262.800 C 126.945 262.800,128.038 261.900,129.161 260.800 C 130.285 259.700,131.430 258.800,131.706 258.800 C 131.982 258.800,132.693 258.350,133.287 257.800 C 133.880 257.250,134.519 256.800,134.707 256.800 C 134.895 256.800,135.398 256.485,135.825 256.100 C 136.251 255.715,137.095 255.145,137.700 254.832 C 138.305 254.520,138.800 254.115,138.800 253.932 C 138.800 253.750,138.988 253.600,139.217 253.600 C 139.446 253.600,140.020 253.240,140.492 252.800 C 140.964 252.360,141.587 252.000,141.875 252.000 C 142.164 252.000,142.400 251.820,142.400 251.600 C 142.400 251.380,142.760 251.200,143.200 251.200 C 143.640 251.200,144.000 251.020,144.000 250.800 C 144.000 250.580,144.320 250.400,144.712 250.400 C 145.103 250.400,145.683 250.040,146.000 249.600 C 146.317 249.160,146.897 248.800,147.288 248.800 C 147.680 248.800,148.000 248.620,148.000 248.400 C 148.000 248.180,148.360 248.000,148.800 248.000 C 149.240 248.000,149.600 247.820,149.600 247.600 C 149.600 247.380,149.960 247.200,150.400 247.200 C 150.840 247.200,151.200 247.020,151.200 246.800 C 151.200 246.580,151.560 246.400,152.000 246.400 C 152.440 246.400,152.800 246.220,152.800 246.000 C 152.800 245.780,153.250 245.600,153.800 245.600 C 154.350 245.600,154.800 245.420,154.800 245.200 C 154.800 244.980,155.149 244.800,155.576 244.800 C 156.003 244.800,156.464 244.620,156.600 244.400 C 156.736 244.180,157.197 244.000,157.624 244.000 C 158.051 244.000,158.400 243.820,158.400 243.600 C 158.400 243.380,158.850 243.200,159.400 243.200 C 159.950 243.200,160.400 243.020,160.400 242.800 C 160.400 242.580,160.839 242.400,161.376 242.400 C 161.913 242.400,162.461 242.225,162.593 242.012 C 162.725 241.798,163.725 241.505,164.816 241.360 C 165.907 241.215,166.800 240.940,166.800 240.748 C 166.800 240.557,167.239 240.400,167.776 240.400 C 168.313 240.400,168.864 240.220,169.000 240.000 C 169.136 239.780,169.946 239.600,170.800 239.600 C 171.654 239.600,172.464 239.420,172.600 239.200 C 172.736 238.980,173.456 238.800,174.200 238.800 C 174.944 238.800,175.664 238.620,175.800 238.400 C 175.936 238.180,176.757 238.000,177.624 238.000 C 178.491 238.000,179.200 237.820,179.200 237.600 C 179.200 237.375,180.325 237.200,181.776 237.200 C 183.193 237.200,184.464 237.020,184.600 236.800 C 184.736 236.580,185.962 236.397,187.324 236.394 C 188.686 236.391,190.070 236.213,190.400 236.000 C 191.219 235.471,209.200 235.471,209.200 236.000 " stroke="none" fill="#040404" fill-rule="evenodd"></path><path id="path1" d="" stroke="none" fill="#080404" fill-rule="evenodd"></path><path id="path2" d="" stroke="none" fill="#080404" fill-rule="evenodd"></path><path id="path3" d="" stroke="none" fill="#080404" fill-rule="evenodd"></path><path id="path4" d="" stroke="none" fill="#080404" fill-rule="evenodd"></path></g></svg>