<svg id="svg" version="1.1" xmlns="http://www.w3.org/2000/svg" xmlns:xlink="http://www.w3.org/1999/xlink" width="400" height="400" viewBox="0, 0, 400,400"><g id="svgg"><path id="path0" d="M178.700 0.273 C 176.555 0.359,174.800 0.602,174.800 0.814 C 174.800 1.027,173.551 1.200,172.024 1.200 C 170.497 1.200,169.136 1.380,169.000 1.600 C 168.864 1.820,167.773 2.000,166.576 2.000 C 165.379 2.000,164.400 2.180,164.400 2.400 C 164.400 2.620,163.410 2.800,162.200 2.800 C 160.990 2.800,160.000 2.980,160.000 3.200 C 160.000 3.420,159.291 3.600,158.424 3.600 C 157.557 3.600,156.736 3.780,156.600 4.000 C 156.464 4.220,155.553 4.400,154.576 4.400 C 153.599 4.400,152.800 4.580,152.800 4.800 C 152.800 5.020,152.080 5.200,151.200 5.200 C 150.320 5.200,149.600 5.380,149.600 5.600 C 149.600 5.820,148.981 6.000,148.224 6.000 C 147.467 6.000,146.736 6.180,146.600 6.400 C 146.464 6.620,145.823 6.800,145.176 6.800 C 144.529 6.800,144.000 6.980,144.000 7.200 C 144.000 7.420,143.370 7.600,142.600 7.600 C 141.830 7.600,141.200 7.780,141.200 8.000 C 141.200 8.220,140.771 8.400,140.246 8.400 C 139.222 8.400,135.447 9.440,134.305 10.037 C 133.923 10.237,133.336 10.400,133.000 10.400 C 132.664 10.400,132.077 10.559,131.695 10.753 C 131.313 10.948,130.460 11.329,129.800 11.600 C 129.140 11.871,128.287 12.252,127.905 12.447 C 127.523 12.641,126.848 12.800,126.405 12.800 C 125.962 12.800,125.600 12.980,125.600 13.200 C 125.600 13.420,125.240 13.600,124.800 13.600 C 124.360 13.600,124.000 13.780,124.000 14.000 C 124.000 14.220,123.460 14.400,122.800 14.400 C 122.140 14.400,121.600 14.580,121.600 14.800 C 121.600 15.020,121.240 15.200,120.800 15.200 C 120.360 15.200,120.000 15.380,120.000 15.600 C 120.000 15.820,119.640 16.000,119.200 16.000 C 118.760 16.000,118.400 16.180,118.400 16.400 C 118.400 16.620,117.950 16.800,117.400 16.800 C 116.850 16.800,116.400 16.980,116.400 17.200 C 116.400 17.420,115.950 17.600,115.400 17.600 C 114.850 17.600,114.400 17.780,114.400 18.000 C 114.400 18.220,114.040 18.400,113.600 18.400 C 113.160 18.400,112.800 18.580,112.800 18.800 C 112.800 19.020,112.440 19.200,112.000 19.200 C 111.560 19.200,111.200 19.346,111.200 19.525 C 111.200 19.704,110.570 20.098,109.800 20.400 C 109.030 20.702,108.400 21.096,108.400 21.275 C 108.400 21.454,108.040 21.600,107.600 21.600 C 107.160 21.600,106.800 21.780,106.800 22.000 C 106.800 22.220,106.440 22.400,106.000 22.400 C 105.560 22.400,105.200 22.580,105.200 22.800 C 105.200 23.020,104.880 23.200,104.488 23.200 C 104.097 23.200,103.517 23.560,103.200 24.000 C 102.883 24.440,102.387 24.800,102.098 24.800 C 101.396 24.800,97.435 26.809,97.267 27.251 C 97.193 27.443,96.956 27.600,96.739 27.600 C 96.522 27.600,95.559 28.140,94.600 28.800 C 93.641 29.460,92.703 30.000,92.516 30.000 C 92.329 30.000,91.917 30.360,91.600 30.800 C 91.283 31.240,90.703 31.600,90.312 31.600 C 89.920 31.600,89.600 31.750,89.600 31.932 C 89.600 32.115,89.105 32.519,88.500 32.830 C 87.895 33.140,87.109 33.711,86.753 34.097 C 86.397 34.484,85.852 34.800,85.541 34.800 C 85.231 34.800,84.717 35.160,84.400 35.600 C 84.083 36.040,83.620 36.400,83.371 36.400 C 83.122 36.400,82.354 36.940,81.663 37.600 C 80.972 38.260,80.208 38.800,79.964 38.800 C 79.720 38.800,79.017 39.340,78.400 40.000 C 77.783 40.660,77.164 41.200,77.023 41.200 C 76.740 41.200,76.063 41.731,74.599 43.100 C 74.070 43.595,73.466 44.000,73.259 44.000 C 73.051 44.000,72.005 44.857,70.935 45.905 C 69.865 46.953,68.362 48.255,67.595 48.799 C 66.828 49.342,64.439 51.590,62.287 53.793 C 57.582 58.611,58.611 57.582,53.793 62.287 C 51.590 64.439,49.342 66.828,48.799 67.595 C 48.255 68.362,46.953 69.865,45.905 70.935 C 44.857 72.005,44.000 73.051,44.000 73.259 C 44.000 73.466,43.595 74.070,43.100 74.599 C 41.731 76.063,41.200 76.740,41.200 77.023 C 41.200 77.164,40.660 77.783,40.000 78.400 C 39.340 79.017,38.800 79.720,38.800 79.964 C 38.800 80.208,38.260 80.972,37.600 81.663 C 36.940 82.354,36.400 83.122,36.400 83.371 C 36.400 83.620,36.040 84.083,35.600 84.400 C 35.160 84.717,34.800 85.231,34.800 85.541 C 34.800 85.852,34.484 86.397,34.097 86.753 C 33.711 87.109,33.140 87.895,32.830 88.500 C 32.519 89.105,32.115 89.600,31.932 89.600 C 31.750 89.600,31.600 89.920,31.600 90.312 C 31.600 90.703,31.240 91.283,30.800 91.600 C 30.360 91.917,30.000 92.329,30.000 92.516 C 30.000 92.703,29.460 93.641,28.800 94.600 C 28.140 95.559,27.600 96.522,27.600 96.739 C 27.600 96.956,27.443 97.193,27.251 97.267 C 26.809 97.435,24.800 101.396,24.800 102.098 C 24.800 102.387,24.440 102.883,24.000 103.200 C 23.560 103.517,23.200 104.097,23.200 104.488 C 23.200 104.880,23.020 105.200,22.800 105.200 C 22.580 105.200,22.400 105.560,22.400 106.000 C 22.400 106.440,22.220 106.800,22.000 106.800 C 21.780 106.800,21.600 107.160,21.600 107.600 C 21.600 108.040,21.454 108.400,21.275 108.400 C 21.096 108.400,20.702 109.030,20.400 109.800 C 20.098 110.570,19.704 111.200,19.525 111.200 C 19.346 111.200,19.200 111.560,19.200 112.000 C 19.200 112.440,19.020 112.800,18.800 112.800 C 18.580 112.800,18.400 113.160,18.400 113.600 C 18.400 114.040,18.220 114.400,18.000 114.400 C 17.780 114.400,17.600 114.850,17.600 115.400 C 17.600 115.950,17.420 116.400,17.200 116.400 C 16.980 116.400,16.800 116.850,16.800 117.400 C 16.800 117.950,16.620 118.400,16.400 118.400 C 16.180 118.400,16.000 118.760,16.000 119.200 C 16.000 119.640,15.820 120.000,15.600 120.000 C 15.380 120.000,15.200 120.360,15.200 120.800 C 15.200 121.240,15.020 121.600,14.800 121.600 C 14.580 121.600,14.400 122.140,14.400 122.800 C 14.400 123.460,14.220 124.000,14.000 124.000 C 13.780 124.000,13.600 124.360,13.600 124.800 C 13.600 125.240,13.420 125.600,13.200 125.600 C 12.980 125.600,12.800 125.962,12.800 126.405 C 12.800 126.848,12.641 127.523,12.447 127.905 C 12.252 128.287,11.871 129.140,11.600 129.800 C 11.329 130.460,10.948 131.313,10.753 131.695 C 10.559 132.077,10.400 132.664,10.400 133.000 C 10.400 133.336,10.237 133.923,10.037 134.305 C 9.440 135.447,8.400 139.222,8.400 140.246 C 8.400 140.771,8.220 141.200,8.000 141.200 C 7.780 141.200,7.600 141.830,7.600 142.600 C 7.600 143.370,7.420 144.000,7.200 144.000 C 6.980 144.000,6.800 144.529,6.800 145.176 C 6.800 145.823,6.620 146.464,6.400 146.600 C 6.180 146.736,6.000 147.467,6.000 148.224 C 6.000 148.981,5.820 149.600,5.600 149.600 C 5.380 149.600,5.200 150.320,5.200 151.200 C 5.200 152.080,5.020 152.800,4.800 152.800 C 4.580 152.800,4.400 153.599,4.400 154.576 C 4.400 155.553,4.220 156.464,4.000 156.600 C 3.780 156.736,3.600 157.557,3.600 158.424 C 3.600 159.291,3.420 160.000,3.200 160.000 C 2.980 160.000,2.800 160.990,2.800 162.200 C 2.800 163.410,2.620 164.400,2.400 164.400 C 2.180 164.400,2.000 165.379,2.000 166.576 C 2.000 167.773,1.820 168.864,1.600 169.000 C 1.380 169.136,1.200 170.482,1.200 171.990 C 1.200 173.829,1.035 174.788,0.700 174.900 C -0.032 175.144,-0.032 224.856,0.700 225.100 C 1.035 225.212,1.200 226.171,1.200 228.010 C 1.200 229.518,1.380 230.864,1.600 231.000 C 1.820 231.136,2.000 232.227,2.000 233.424 C 2.000 234.621,2.180 235.600,2.400 235.600 C 2.620 235.600,2.800 236.590,2.800 237.800 C 2.800 239.010,2.980 240.000,3.200 240.000 C 3.420 240.000,3.600 240.709,3.600 241.576 C 3.600 242.443,3.780 243.264,4.000 243.400 C 4.220 243.536,4.400 244.447,4.400 245.424 C 4.400 246.401,4.580 247.200,4.800 247.200 C 5.020 247.200,5.200 247.920,5.200 248.800 C 5.200 249.680,5.380 250.400,5.600 250.400 C 5.820 250.400,6.000 251.019,6.000 251.776 C 6.000 252.533,6.180 253.264,6.400 253.400 C 6.620 253.536,6.800 254.177,6.800 254.824 C 6.800 255.471,6.980 256.000,7.200 256.000 C 7.420 256.000,7.600 256.630,7.600 257.400 C 7.600 258.170,7.780 258.800,8.000 258.800 C 8.220 258.800,8.400 259.229,8.400 259.754 C 8.400 260.778,9.440 264.553,10.037 265.695 C 10.237 266.077,10.400 266.664,10.400 267.000 C 10.400 267.336,10.559 267.923,10.753 268.305 C 10.948 268.687,11.329 269.540,11.600 270.200 C 11.871 270.860,12.252 271.713,12.447 272.095 C 12.641 272.477,12.800 273.152,12.800 273.595 C 12.800 274.038,12.980 274.400,13.200 274.400 C 13.420 274.400,13.600 274.760,13.600 275.200 C 13.600 275.640,13.780 276.000,14.000 276.000 C 14.220 276.000,14.400 276.540,14.400 277.200 C 14.400 277.860,14.580 278.400,14.800 278.400 C 15.020 278.400,15.200 278.760,15.200 279.200 C 15.200 279.640,15.380 280.000,15.600 280.000 C 15.820 280.000,16.000 280.360,16.000 280.800 C 16.000 281.240,16.180 281.600,16.400 281.600 C 16.620 281.600,16.800 282.050,16.800 282.600 C 16.800 283.150,16.980 283.600,17.200 283.600 C 17.420 283.600,17.600 284.050,17.600 284.600 C 17.600 285.150,17.780 285.600,18.000 285.600 C 18.220 285.600,18.400 285.960,18.400 286.400 C 18.400 286.840,18.580 287.200,18.800 287.200 C 19.020 287.200,19.200 287.560,19.200 288.000 C 19.200 288.440,19.346 288.800,19.525 288.800 C 19.704 288.800,20.098 289.430,20.400 290.200 C 20.702 290.970,21.096 291.600,21.275 291.600 C 21.454 291.600,21.600 291.960,21.600 292.400 C 21.600 292.840,21.780 293.200,22.000 293.200 C 22.220 293.200,22.400 293.560,22.400 294.000 C 22.400 294.440,22.580 294.800,22.800 294.800 C 23.020 294.800,23.200 295.120,23.200 295.512 C 23.200 295.903,23.560 296.483,24.000 296.800 C 24.440 297.117,24.800 297.613,24.800 297.902 C 24.800 298.604,26.809 302.565,27.251 302.733 C 27.443 302.807,27.600 303.044,27.600 303.261 C 27.600 303.478,28.140 304.441,28.800 305.400 C 29.460 306.359,30.000 307.297,30.000 307.484 C 30.000 307.671,30.360 308.083,30.800 308.400 C 31.240 308.717,31.600 309.297,31.600 309.688 C 31.600 310.080,31.750 310.400,31.932 310.400 C 32.115 310.400,32.519 310.895,32.830 311.500 C 33.140 312.105,33.711 312.891,34.097 313.247 C 34.484 313.603,34.800 314.148,34.800 314.459 C 34.800 314.769,35.160 315.283,35.600 315.600 C 36.040 315.917,36.400 316.380,36.400 316.629 C 36.400 316.878,36.940 317.646,37.600 318.337 C 38.260 319.028,38.800 319.792,38.800 320.036 C 38.800 320.280,39.340 320.983,40.000 321.600 C 40.660 322.217,41.200 322.836,41.200 322.977 C 41.200 323.260,41.731 323.937,43.100 325.401 C 43.595 325.930,44.000 326.534,44.000 326.741 C 44.000 326.949,44.857 327.995,45.905 329.065 C 46.953 330.135,48.255 331.638,48.799 332.405 C 49.342 333.172,51.590 335.561,53.793 337.713 C 58.611 342.418,57.582 341.389,62.287 346.207 C 64.439 348.410,66.828 350.658,67.595 351.201 C 68.362 351.745,69.865 353.047,70.935 354.095 C 72.005 355.143,73.042 356.000,73.240 356.000 C 73.437 356.000,74.266 356.630,75.082 357.400 C 75.899 358.170,76.727 358.800,76.923 358.800 C 77.119 358.800,77.783 359.340,78.400 360.000 C 79.017 360.660,79.720 361.200,79.964 361.200 C 80.208 361.200,80.972 361.740,81.663 362.400 C 82.354 363.060,83.122 363.600,83.371 363.600 C 83.620 363.600,84.083 363.960,84.400 364.400 C 84.717 364.840,85.231 365.200,85.541 365.200 C 85.852 365.200,86.397 365.516,86.753 365.903 C 87.109 366.289,87.895 366.860,88.500 367.170 C 89.105 367.481,89.600 367.885,89.600 368.068 C 89.600 368.250,89.920 368.400,90.312 368.400 C 90.703 368.400,91.283 368.760,91.600 369.200 C 91.917 369.640,92.329 370.000,92.516 370.000 C 92.703 370.000,93.641 370.540,94.600 371.200 C 95.559 371.860,96.537 372.400,96.772 372.400 C 97.007 372.400,97.200 372.542,97.200 372.716 C 97.200 373.113,101.277 375.200,102.052 375.200 C 102.366 375.200,102.883 375.560,103.200 376.000 C 103.517 376.440,104.097 376.800,104.488 376.800 C 104.880 376.800,105.200 376.980,105.200 377.200 C 105.200 377.420,105.560 377.600,106.000 377.600 C 106.440 377.600,106.800 377.780,106.800 378.000 C 106.800 378.220,107.160 378.400,107.600 378.400 C 108.040 378.400,108.400 378.546,108.400 378.725 C 108.400 378.904,109.030 379.298,109.800 379.600 C 110.570 379.902,111.200 380.296,111.200 380.475 C 111.200 380.654,111.560 380.800,112.000 380.800 C 112.440 380.800,112.800 380.980,112.800 381.200 C 112.800 381.420,113.160 381.600,113.600 381.600 C 114.040 381.600,114.400 381.780,114.400 382.000 C 114.400 382.220,114.850 382.400,115.400 382.400 C 115.950 382.400,116.400 382.580,116.400 382.800 C 116.400 383.020,116.850 383.200,117.400 383.200 C 117.950 383.200,118.400 383.380,118.400 383.600 C 118.400 383.820,118.760 384.000,119.200 384.000 C 119.640 384.000,120.000 384.180,120.000 384.400 C 120.000 384.620,120.360 384.800,120.800 384.800 C 121.240 384.800,121.600 384.980,121.600 385.200 C 121.600 385.420,122.140 385.600,122.800 385.600 C 123.460 385.600,124.000 385.780,124.000 386.000 C 124.000 386.220,124.360 386.400,124.800 386.400 C 125.240 386.400,125.600 386.580,125.600 386.800 C 125.600 387.020,125.962 387.200,126.405 387.200 C 126.848 387.200,127.523 387.359,127.905 387.553 C 128.287 387.748,129.140 388.129,129.800 388.400 C 130.460 388.671,131.313 389.052,131.695 389.247 C 132.077 389.441,132.741 389.600,133.171 389.600 C 133.601 389.600,134.064 389.780,134.200 390.000 C 134.336 390.220,134.876 390.400,135.400 390.400 C 135.924 390.400,136.456 390.567,136.583 390.772 C 136.709 390.977,137.800 391.267,139.006 391.418 C 140.213 391.569,141.200 391.851,141.200 392.046 C 141.200 392.241,141.830 392.400,142.600 392.400 C 143.370 392.400,144.000 392.580,144.000 392.800 C 144.000 393.020,144.529 393.200,145.176 393.200 C 145.823 393.200,146.464 393.380,146.600 393.600 C 146.736 393.820,147.467 394.000,148.224 394.000 C 148.981 394.000,149.600 394.180,149.600 394.400 C 149.600 394.620,150.320 394.800,151.200 394.800 C 152.080 394.800,152.800 394.980,152.800 395.200 C 152.800 395.420,153.599 395.600,154.576 395.600 C 155.553 395.600,156.464 395.780,156.600 396.000 C 156.736 396.220,157.557 396.400,158.424 396.400 C 159.291 396.400,160.000 396.580,160.000 396.800 C 160.000 397.020,160.990 397.200,162.200 397.200 C 163.410 397.200,164.400 397.380,164.400 397.600 C 164.400 397.820,165.379 398.000,166.576 398.000 C 167.773 398.000,168.864 398.180,169.000 398.400 C 169.136 398.620,170.482 398.800,171.990 398.800 C 173.829 398.800,174.788 398.965,174.900 399.300 C 175.144 400.032,224.856 400.032,225.100 399.300 C 225.212 398.965,226.171 398.800,228.010 398.800 C 229.518 398.800,230.864 398.620,231.000 398.400 C 231.136 398.180,232.227 398.000,233.424 398.000 C 234.621 398.000,235.600 397.820,235.600 397.600 C 235.600 397.380,236.590 397.200,237.800 397.200 C 239.010 397.200,240.000 397.020,240.000 396.800 C 240.000 396.580,240.709 396.400,241.576 396.400 C 242.443 396.400,243.264 396.220,243.400 396.000 C 243.536 395.780,244.447 395.600,245.424 395.600 C 246.401 395.600,247.200 395.420,247.200 395.200 C 247.200 394.980,247.920 394.800,248.800 394.800 C 249.680 394.800,250.400 394.620,250.400 394.400 C 250.400 394.180,251.019 394.000,251.776 394.000 C 252.533 394.000,253.264 393.820,253.400 393.600 C 253.536 393.380,254.177 393.200,254.824 393.200 C 255.471 393.200,256.000 393.020,256.000 392.800 C 256.000 392.580,256.630 392.400,257.400 392.400 C 258.170 392.400,258.800 392.241,258.800 392.046 C 258.800 391.851,259.787 391.569,260.994 391.418 C 262.200 391.267,263.291 390.977,263.417 390.772 C 263.544 390.567,264.076 390.400,264.600 390.400 C 265.124 390.400,265.664 390.220,265.800 390.000 C 265.936 389.780,266.399 389.600,266.829 389.600 C 267.259 389.600,267.923 389.441,268.305 389.247 C 268.687 389.052,269.540 388.671,270.200 388.400 C 270.860 388.129,271.713 387.748,272.095 387.553 C 272.477 387.359,273.152 387.200,273.595 387.200 C 274.038 387.200,274.400 387.020,274.400 386.800 C 274.400 386.580,274.760 386.400,275.200 386.400 C 275.640 386.400,276.000 386.220,276.000 386.000 C 276.000 385.780,276.540 385.600,277.200 385.600 C 277.860 385.600,278.400 385.420,278.400 385.200 C 278.400 384.980,278.760 384.800,279.200 384.800 C 279.640 384.800,280.000 384.620,280.000 384.400 C 280.000 384.180,280.360 384.000,280.800 384.000 C 281.240 384.000,281.600 383.820,281.600 383.600 C 281.600 383.380,282.050 383.200,282.600 383.200 C 283.150 383.200,283.600 383.020,283.600 382.800 C 283.600 382.580,284.050 382.400,284.600 382.400 C 285.150 382.400,285.600 382.220,285.600 382.000 C 285.600 381.780,285.960 381.600,286.400 381.600 C 286.840 381.600,287.200 381.420,287.200 381.200 C 287.200 380.980,287.560 380.800,288.000 380.800 C 288.440 380.800,288.800 380.654,288.800 380.475 C 288.800 380.296,289.430 379.902,290.200 379.600 C 290.970 379.298,291.600 378.904,291.600 378.725 C 291.600 378.546,291.960 378.400,292.400 378.400 C 292.840 378.400,293.200 378.220,293.200 378.000 C 293.200 377.780,293.560 377.600,294.000 377.600 C 294.440 377.600,294.800 377.420,294.800 377.200 C 294.800 376.980,295.120 376.800,295.512 376.800 C 295.903 376.800,296.483 376.440,296.800 376.000 C 297.117 375.560,297.634 375.200,297.948 375.200 C 298.723 375.200,302.800 373.113,302.800 372.716 C 302.800 372.542,302.993 372.400,303.228 372.400 C 303.463 372.400,304.441 371.860,305.400 371.200 C 306.359 370.540,307.297 370.000,307.484 370.000 C 307.671 370.000,308.083 369.640,308.400 369.200 C 308.717 368.760,309.297 368.400,309.688 368.400 C 310.080 368.400,310.400 368.250,310.400 368.068 C 310.400 367.885,310.895 367.481,311.500 367.170 C 312.105 366.860,312.891 366.289,313.247 365.903 C 313.603 365.516,314.148 365.200,314.459 365.200 C 314.769 365.200,315.283 364.840,315.600 364.400 C 315.917 363.960,316.380 363.600,316.629 363.600 C 316.878 363.600,317.646 363.060,318.337 362.400 C 319.028 361.740,319.792 361.200,320.036 361.200 C 320.280 361.200,320.983 360.660,321.600 360.000 C 322.217 359.340,322.881 358.800,323.077 358.800 C 323.273 358.800,324.101 358.170,324.918 357.400 C 325.734 356.630,326.563 356.000,326.760 356.000 C 326.958 356.000,327.995 355.143,329.065 354.095 C 330.135 353.047,331.638 351.745,332.405 351.201 C 333.172 350.658,335.561 348.410,337.713 346.207 C 342.418 341.389,341.389 342.418,346.207 337.713 C 348.410 335.561,350.658 333.172,351.201 332.405 C 351.745 331.638,353.047 330.135,354.095 329.065 C 355.143 327.995,356.000 326.958,356.000 326.760 C 356.000 326.563,356.630 325.734,357.400 324.918 C 358.170 324.101,358.800 323.273,358.800 323.077 C 358.800 322.881,359.340 322.217,360.000 321.600 C 360.660 320.983,361.200 320.280,361.200 320.036 C 361.200 319.792,361.740 319.028,362.400 318.337 C 363.060 317.646,363.600 316.878,363.600 316.629 C 363.600 316.380,363.960 315.917,364.400 315.600 C 364.840 315.283,365.200 314.769,365.200 314.459 C 365.200 314.148,365.516 313.603,365.903 313.247 C 366.289 312.891,366.860 312.105,367.170 311.500 C 367.481 310.895,367.885 310.400,368.068 310.400 C 368.250 310.400,368.400 310.080,368.400 309.688 C 368.400 309.297,368.760 308.717,369.200 308.400 C 369.640 308.083,370.000 307.671,370.000 307.484 C 370.000 307.297,370.540 306.359,371.200 305.400 C 371.860 304.441,372.400 303.463,372.400 303.228 C 372.400 302.993,372.542 302.800,372.716 302.800 C 373.113 302.800,375.200 298.723,375.200 297.948 C 375.200 297.634,375.560 297.117,376.000 296.800 C 376.440 296.483,376.800 295.903,376.800 295.512 C 376.800 295.120,376.980 294.800,377.200 294.800 C 377.420 294.800,377.600 294.440,377.600 294.000 C 377.600 293.560,377.780 293.200,378.000 293.200 C 378.220 293.200,378.400 292.840,378.400 292.400 C 378.400 291.960,378.546 291.600,378.725 291.600 C 378.904 291.600,379.298 290.970,379.600 290.200 C 379.902 289.430,380.296 288.800,380.475 288.800 C 380.654 288.800,380.800 288.440,380.800 288.000 C 380.800 287.560,380.980 287.200,381.200 287.200 C 381.420 287.200,381.600 286.840,381.600 286.400 C 381.600 285.960,381.780 285.600,382.000 285.600 C 382.220 285.600,382.400 285.150,382.400 284.600 C 382.400 284.050,382.580 283.600,382.800 283.600 C 383.020 283.600,383.200 283.150,383.200 282.600 C 383.200 282.050,383.380 281.600,383.600 281.600 C 383.820 281.600,384.000 281.240,384.000 280.800 C 384.000 280.360,384.180 280.000,384.400 280.000 C 384.620 280.000,384.800 279.640,384.800 279.200 C 384.800 278.760,384.980 278.400,385.200 278.400 C 385.420 278.400,385.600 277.860,385.600 277.200 C 385.600 276.540,385.780 276.000,386.000 276.000 C 386.220 276.000,386.400 275.640,386.400 275.200 C 386.400 274.760,386.580 274.400,386.800 274.400 C 387.020 274.400,387.200 274.038,387.200 273.595 C 387.200 273.152,387.359 272.477,387.553 272.095 C 387.748 271.713,388.129 270.860,388.400 270.200 C 388.671 269.540,389.052 268.687,389.247 268.305 C 389.441 267.923,389.600 267.259,389.600 266.829 C 389.600 266.399,389.780 265.936,390.000 265.800 C 390.220 265.664,390.400 265.124,390.400 264.600 C 390.400 264.076,390.567 263.544,390.772 263.417 C 390.977 263.291,391.267 262.200,391.418 260.994 C 391.569 259.787,391.851 258.800,392.046 258.800 C 392.241 258.800,392.400 258.170,392.400 257.400 C 392.400 256.630,392.580 256.000,392.800 256.000 C 393.020 256.000,393.200 255.471,393.200 254.824 C 393.200 254.177,393.380 253.536,393.600 253.400 C 393.820 253.264,394.000 252.533,394.000 251.776 C 394.000 251.019,394.180 250.400,394.400 250.400 C 394.620 250.400,394.800 249.680,394.800 248.800 C 394.800 247.920,394.980 247.200,395.200 247.200 C 395.420 247.200,395.600 246.401,395.600 245.424 C 395.600 244.447,395.780 243.536,396.000 243.400 C 396.220 243.264,396.400 242.443,396.400 241.576 C 396.400 240.709,396.580 240.000,396.800 240.000 C 397.020 240.000,397.200 239.010,397.200 237.800 C 397.200 236.590,397.380 235.600,397.600 235.600 C 397.820 235.600,398.000 234.621,398.000 233.424 C 398.000 232.227,398.180 231.136,398.400 231.000 C 398.620 230.864,398.800 229.518,398.800 228.010 C 398.800 226.171,398.965 225.212,399.300 225.100 C 399.693 224.969,399.800 219.591,399.800 200.000 C 399.800 180.409,399.693 175.031,399.300 174.900 C 398.965 174.788,398.800 173.829,398.800 171.990 C 398.800 170.482,398.620 169.136,398.400 169.000 C 398.180 168.864,398.000 167.773,398.000 166.576 C 398.000 165.379,397.820 164.400,397.600 164.400 C 397.380 164.400,397.200 163.410,397.200 162.200 C 397.200 160.990,397.020 160.000,396.800 160.000 C 396.580 160.000,396.400 159.291,396.400 158.424 C 396.400 157.557,396.220 156.736,396.000 156.600 C 395.780 156.464,395.600 155.553,395.600 154.576 C 395.600 153.599,395.420 152.800,395.200 152.800 C 394.980 152.800,394.800 152.080,394.800 151.200 C 394.800 150.320,394.620 149.600,394.400 149.600 C 394.180 149.600,394.000 148.981,394.000 148.224 C 394.000 147.467,393.820 146.736,393.600 146.600 C 393.380 146.464,393.200 145.823,393.200 145.176 C 393.200 144.529,393.020 144.000,392.800 144.000 C 392.580 144.000,392.400 143.370,392.400 142.600 C 392.400 141.830,392.241 141.200,392.046 141.200 C 391.851 141.200,391.569 140.213,391.418 139.006 C 391.267 137.800,390.977 136.709,390.772 136.583 C 390.567 136.456,390.400 135.924,390.400 135.400 C 390.400 134.876,390.220 134.336,390.000 134.200 C 389.780 134.064,389.600 133.601,389.600 133.171 C 389.600 132.741,389.441 132.077,389.247 131.695 C 389.052 131.313,388.671 130.460,388.400 129.800 C 388.129 129.140,387.748 128.287,387.553 127.905 C 387.359 127.523,387.200 126.848,387.200 126.405 C 387.200 125.962,387.020 125.600,386.800 125.600 C 386.580 125.600,386.400 125.240,386.400 124.800 C 386.400 124.360,386.220 124.000,386.000 124.000 C 385.780 124.000,385.600 123.460,385.600 122.800 C 385.600 122.140,385.420 121.600,385.200 121.600 C 384.980 121.600,384.800 121.240,384.800 120.800 C 384.800 120.360,384.620 120.000,384.400 120.000 C 384.180 120.000,384.000 119.640,384.000 119.200 C 384.000 118.760,383.820 118.400,383.600 118.400 C 383.380 118.400,383.200 117.950,383.200 117.400 C 383.200 116.850,383.020 116.400,382.800 116.400 C 382.580 116.400,382.400 115.950,382.400 115.400 C 382.400 114.850,382.220 114.400,382.000 114.400 C 381.780 114.400,381.600 114.040,381.600 113.600 C 381.600 113.160,381.420 112.800,381.200 112.800 C 380.980 112.800,380.800 112.440,380.800 112.000 C 380.800 111.560,380.654 111.200,380.475 111.200 C 380.296 111.200,379.902 110.570,379.600 109.800 C 379.298 109.030,378.904 108.400,378.725 108.400 C 378.546 108.400,378.400 108.040,378.400 107.600 C 378.400 107.160,378.220 106.800,378.000 106.800 C 377.780 106.800,377.600 106.440,377.600 106.000 C 377.600 105.560,377.420 105.200,377.200 105.200 C 376.980 105.200,376.800 104.880,376.800 104.488 C 376.800 104.097,376.440 103.517,376.000 103.200 C 375.560 102.883,375.200 102.366,375.200 102.052 C 375.200 101.277,373.113 97.200,372.716 97.200 C 372.542 97.200,372.400 97.007,372.400 96.772 C 372.400 96.537,371.860 95.559,371.200 94.600 C 370.540 93.641,370.000 92.703,370.000 92.516 C 370.000 92.329,369.640 91.917,369.200 91.600 C 368.760 91.283,368.400 90.703,368.400 90.312 C 368.400 89.920,368.250 89.600,368.068 89.600 C 367.885 89.600,367.481 89.105,367.170 88.500 C 366.860 87.895,366.289 87.109,365.903 86.753 C 365.516 86.397,365.200 85.852,365.200 85.541 C 365.200 85.231,364.840 84.717,364.400 84.400 C 363.960 84.083,363.600 83.620,363.600 83.371 C 363.600 83.122,363.060 82.354,362.400 81.663 C 361.740 80.972,361.200 80.208,361.200 79.964 C 361.200 79.720,360.660 79.017,360.000 78.400 C 359.340 77.783,358.800 77.119,358.800 76.923 C 358.800 76.727,358.170 75.899,357.400 75.082 C 356.630 74.266,356.000 73.437,356.000 73.240 C 356.000 73.042,355.143 72.005,354.095 70.935 C 353.047 69.865,351.745 68.362,351.201 67.595 C 350.658 66.828,348.410 64.439,346.207 62.287 C 341.389 57.582,342.418 58.611,337.713 53.793 C 335.561 51.590,333.172 49.342,332.405 48.799 C 331.638 48.255,330.135 46.953,329.065 45.905 C 327.995 44.857,326.949 44.000,326.741 44.000 C 326.534 44.000,325.930 43.595,325.401 43.100 C 323.937 41.731,323.260 41.200,322.977 41.200 C 322.836 41.200,322.217 40.660,321.600 40.000 C 320.983 39.340,320.280 38.800,320.036 38.800 C 319.792 38.800,319.028 38.260,318.337 37.600 C 317.646 36.940,316.878 36.400,316.629 36.400 C 316.380 36.400,315.917 36.040,315.600 35.600 C 315.283 35.160,314.769 34.800,314.459 34.800 C 314.148 34.800,313.603 34.484,313.247 34.097 C 312.891 33.711,312.105 33.140,311.500 32.830 C 310.895 32.519,310.400 32.115,310.400 31.932 C 310.400 31.750,310.080 31.600,309.688 31.600 C 309.297 31.600,308.717 31.240,308.400 30.800 C 308.083 30.360,307.671 30.000,307.484 30.000 C 307.297 30.000,306.359 29.460,305.400 28.800 C 304.441 28.140,303.478 27.600,303.261 27.600 C 303.044 27.600,302.807 27.443,302.733 27.251 C 302.565 26.809,298.604 24.800,297.902 24.800 C 297.613 24.800,297.117 24.440,296.800 24.000 C 296.483 23.560,295.903 23.200,295.512 23.200 C 295.120 23.200,294.800 23.020,294.800 22.800 C 294.800 22.580,294.440 22.400,294.000 22.400 C 293.560 22.400,293.200 22.220,293.200 22.000 C 293.200 21.780,292.840 21.600,292.400 21.600 C 291.960 21.600,291.600 21.454,291.600 21.275 C 291.600 21.096,290.970 20.702,290.200 20.400 C 289.430 20.098,288.800 19.704,288.800 19.525 C 288.800 19.346,288.440 19.200,288.000 19.200 C 287.560 19.200,287.200 19.020,287.200 18.800 C 287.200 18.580,286.840 18.400,286.400 18.400 C 285.960 18.400,285.600 18.220,285.600 18.000 C 285.600 17.780,285.150 17.600,284.600 17.600 C 284.050 17.600,283.600 17.420,283.600 17.200 C 283.600 16.980,283.150 16.800,282.600 16.800 C 282.050 16.800,281.600 16.620,281.600 16.400 C 281.600 16.180,281.240 16.000,280.800 16.000 C 280.360 16.000,280.000 15.820,280.000 15.600 C 280.000 15.380,279.640 15.200,279.200 15.200 C 278.760 15.200,278.400 15.020,278.400 14.800 C 278.400 14.580,277.860 14.400,277.200 14.400 C 276.540 14.400,276.000 14.220,276.000 14.000 C 276.000 13.780,275.640 13.600,275.200 13.600 C 274.760 13.600,274.400 13.420,274.400 13.200 C 274.400 12.980,274.038 12.800,273.595 12.800 C 273.152 12.800,272.477 12.641,272.095 12.447 C 271.713 12.252,270.860 11.871,270.200 11.600 C 269.540 11.329,268.687 10.948,268.305 10.753 C 267.923 10.559,267.336 10.400,267.000 10.400 C 266.664 10.400,266.077 10.237,265.695 10.037 C 264.553 9.440,260.778 8.400,259.754 8.400 C 259.229 8.400,258.800 8.220,258.800 8.000 C 258.800 7.780,258.170 7.600,257.400 7.600 C 256.630 7.600,256.000 7.420,256.000 7.200 C 256.000 6.980,255.471 6.800,254.824 6.800 C 254.177 6.800,253.536 6.620,253.400 6.400 C 253.264 6.180,252.533 6.000,251.776 6.000 C 251.019 6.000,250.400 5.820,250.400 5.600 C 250.400 5.380,249.680 5.200,248.800 5.200 C 247.920 5.200,247.200 5.020,247.200 4.800 C 247.200 4.580,246.401 4.400,245.424 4.400 C 244.447 4.400,243.536 4.220,243.400 4.000 C 243.264 3.780,242.443 3.600,241.576 3.600 C 240.709 3.600,240.000 3.420,240.000 3.200 C 240.000 2.980,239.010 2.800,237.800 2.800 C 236.590 2.800,235.600 2.620,235.600 2.400 C 235.600 2.180,234.621 2.000,233.424 2.000 C 232.227 2.000,231.136 1.820,231.000 1.600 C 230.864 1.380,229.518 1.200,228.010 1.200 C 226.233 1.200,225.210 1.031,225.107 0.720 C 224.948 0.244,188.291 -0.109,178.700 0.273 M219.200 24.335 C 223.466 24.829,228.004 25.482,230.600 25.975 C 231.700 26.184,234.130 26.630,236.000 26.966 C 239.577 27.608,241.557 28.052,244.200 28.800 C 246.225 29.374,248.681 29.985,250.105 30.271 C 250.713 30.393,251.308 30.651,251.429 30.846 C 251.549 31.041,252.076 31.200,252.600 31.200 C 253.124 31.200,253.664 31.380,253.800 31.600 C 253.936 31.820,254.476 32.000,255.000 32.000 C 255.524 32.000,256.064 32.180,256.200 32.400 C 256.336 32.620,256.876 32.800,257.400 32.800 C 257.924 32.800,258.464 32.980,258.600 33.200 C 258.736 33.420,259.199 33.600,259.629 33.600 C 260.059 33.600,260.723 33.759,261.105 33.953 C 261.487 34.148,262.250 34.484,262.800 34.700 C 264.554 35.389,266.179 36.083,266.895 36.447 C 267.277 36.641,267.862 36.800,268.195 36.800 C 268.528 36.800,268.800 36.980,268.800 37.200 C 268.800 37.420,269.089 37.600,269.443 37.600 C 270.621 37.600,287.961 46.379,290.862 48.444 C 291.446 48.860,292.036 49.200,292.174 49.200 C 292.464 49.200,302.102 55.600,302.400 55.991 C 302.510 56.135,303.410 56.806,304.400 57.482 C 305.925 58.523,308.759 60.704,312.200 63.483 C 317.179 67.506,329.023 79.085,333.194 84.010 C 334.401 85.434,335.619 86.841,335.900 87.135 C 336.182 87.429,336.903 88.329,337.504 89.135 C 338.104 89.941,338.692 90.690,338.809 90.800 C 339.102 91.075,343.229 96.679,344.405 98.400 C 344.931 99.170,345.461 99.890,345.582 100.000 C 345.795 100.194,346.115 100.679,349.391 105.785 C 350.916 108.162,352.595 110.943,354.110 113.600 C 355.309 115.703,360.218 125.518,361.213 127.800 C 362.561 130.893,363.254 132.527,363.587 133.400 C 364.484 135.747,365.588 138.394,366.047 139.295 C 366.241 139.677,366.400 140.341,366.400 140.771 C 366.400 141.201,366.580 141.664,366.800 141.800 C 367.020 141.936,367.200 142.451,367.200 142.944 C 367.200 143.437,367.343 144.011,367.518 144.220 C 367.834 144.597,368.215 145.724,369.204 149.200 C 369.485 150.190,369.948 151.739,370.233 152.641 C 371.783 157.557,374.211 169.692,375.147 177.200 C 376.403 187.282,376.478 188.972,376.266 202.400 C 376.147 209.990,375.871 217.370,375.654 218.800 C 375.437 220.230,374.978 223.740,374.635 226.600 C 374.292 229.460,373.846 232.520,373.645 233.400 C 373.443 234.280,373.071 235.900,372.816 237.000 C 372.562 238.100,372.194 239.720,371.999 240.600 C 371.803 241.480,371.462 242.920,371.240 243.800 C 371.018 244.680,370.672 246.120,370.471 247.000 C 370.000 249.063,366.508 259.586,365.993 260.495 C 365.777 260.877,365.600 261.464,365.600 261.800 C 365.600 262.136,365.440 262.723,365.244 263.105 C 364.631 264.299,362.288 269.619,361.162 272.373 C 359.821 275.649,352.939 288.884,351.547 290.862 C 351.136 291.446,350.800 292.121,350.800 292.362 C 350.800 292.603,350.641 292.800,350.446 292.800 C 350.251 292.800,349.804 293.405,349.453 294.145 C 349.102 294.885,348.541 295.717,348.207 295.994 C 347.873 296.271,347.600 296.718,347.600 296.987 C 347.600 297.256,347.240 297.802,346.800 298.200 C 346.360 298.598,346.000 299.075,346.000 299.261 C 346.000 299.446,345.070 300.903,343.934 302.499 C 341.922 305.323,340.888 306.661,338.000 310.170 C 337.230 311.105,336.085 312.530,335.456 313.335 C 334.205 314.936,332.800 315.300,332.800 314.024 C 332.800 313.597,332.620 313.136,332.400 313.000 C 332.180 312.864,332.000 312.234,332.000 311.600 C 332.000 310.966,331.820 310.336,331.600 310.200 C 331.380 310.064,331.200 309.511,331.200 308.971 C 331.200 308.431,331.029 307.677,330.819 307.295 C 330.609 306.913,330.057 305.430,329.593 304.000 C 329.128 302.570,328.597 301.040,328.414 300.600 C 328.231 300.160,327.856 299.170,327.582 298.400 C 327.308 297.630,326.480 295.679,325.742 294.064 C 325.004 292.450,324.400 290.983,324.400 290.805 C 324.400 290.627,323.835 289.428,323.144 288.141 C 322.454 286.853,321.220 284.540,320.403 283.000 C 318.520 279.451,316.045 275.418,313.440 271.653 C 312.318 270.031,311.130 268.314,310.800 267.837 C 307.672 263.311,302.268 257.081,296.310 251.132 C 291.384 246.213,288.712 243.842,283.443 239.712 C 281.245 237.990,271.304 231.200,270.980 231.200 C 270.839 231.200,270.246 230.867,269.662 230.460 C 266.707 228.399,257.263 223.667,252.000 221.610 C 248.830 220.372,247.208 219.428,247.624 219.065 C 247.721 218.981,248.682 218.246,249.760 217.433 C 250.839 216.620,252.549 215.290,253.560 214.477 C 256.183 212.370,262.819 205.725,264.422 203.600 C 265.168 202.610,265.874 201.710,265.991 201.600 C 266.602 201.022,269.625 196.811,270.299 195.600 C 270.727 194.830,271.728 193.186,272.522 191.946 C 273.933 189.743,278.800 179.611,278.800 178.876 C 278.800 178.673,279.341 176.817,280.003 174.753 C 281.486 170.125,281.887 168.646,282.214 166.600 C 282.355 165.720,282.644 164.190,282.857 163.200 C 285.286 151.896,283.540 133.655,278.784 120.665 C 276.434 114.245,269.500 101.417,267.613 100.000 C 267.467 99.890,266.796 98.990,266.121 98.000 C 264.027 94.925,254.988 85.962,251.600 83.602 C 250.830 83.065,249.968 82.402,249.685 82.127 C 249.402 81.853,248.637 81.313,247.985 80.928 C 247.333 80.543,246.800 80.086,246.800 79.914 C 246.800 79.741,246.601 79.600,246.358 79.600 C 246.115 79.600,245.141 79.077,244.194 78.438 C 242.360 77.200,232.742 72.289,231.400 71.905 C 230.960 71.779,229.250 71.204,227.600 70.627 C 223.105 69.056,222.223 68.800,221.295 68.800 C 220.829 68.800,220.348 68.640,220.227 68.444 C 220.106 68.249,219.331 67.973,218.504 67.831 C 207.211 65.897,200.668 65.525,192.400 66.345 C 185.378 67.042,182.871 67.474,178.300 68.773 C 177.475 69.008,176.215 69.365,175.500 69.567 C 168.925 71.422,160.859 75.200,154.000 79.636 C 151.910 80.987,150.110 82.216,150.000 82.366 C 149.890 82.516,149.170 83.073,148.400 83.604 C 144.811 86.079,136.119 94.773,133.608 98.400 C 133.075 99.170,132.516 99.890,132.366 100.000 C 129.634 102.004,121.276 119.047,119.223 126.800 C 118.960 127.790,118.592 129.140,118.404 129.800 C 118.021 131.146,117.455 134.121,116.842 138.000 C 115.849 144.289,116.031 157.936,117.179 163.400 C 117.653 165.651,118.327 169.149,118.664 171.104 C 118.787 171.821,119.049 172.506,119.244 172.627 C 119.440 172.748,119.600 173.199,119.600 173.629 C 119.600 174.059,119.762 174.723,119.961 175.105 C 120.160 175.487,120.553 176.610,120.836 177.600 C 121.118 178.590,121.879 180.570,122.526 182.000 C 123.173 183.430,124.215 185.731,124.841 187.113 C 125.467 188.496,126.793 190.886,127.789 192.426 C 128.785 193.965,129.600 195.399,129.600 195.612 C 129.600 195.826,129.768 196.000,129.973 196.000 C 130.178 196.000,130.460 196.357,130.598 196.794 C 130.801 197.434,133.904 201.590,134.783 202.400 C 134.902 202.510,135.624 203.404,136.388 204.386 C 137.863 206.283,145.035 213.340,146.517 214.351 C 147.003 214.683,147.490 215.066,147.600 215.204 C 147.710 215.341,148.835 216.228,150.100 217.175 C 152.628 219.067,152.925 219.820,151.376 220.409 C 150.813 220.623,149.368 221.249,148.165 221.799 C 146.961 222.350,145.897 222.800,145.800 222.800 C 145.703 222.800,144.640 223.250,143.437 223.800 C 142.235 224.350,141.140 224.800,141.004 224.800 C 140.868 224.800,138.562 226.013,135.879 227.496 C 133.195 228.979,130.338 230.554,129.530 230.996 C 116.661 238.031,98.124 254.963,89.200 267.834 C 85.563 273.079,82.800 277.221,82.800 277.425 C 82.800 277.563,82.464 278.154,82.053 278.738 C 80.590 280.818,75.183 291.320,74.608 293.200 C 74.440 293.750,74.174 294.380,74.016 294.600 C 73.859 294.820,73.324 296.080,72.826 297.400 C 72.329 298.720,71.771 300.160,71.587 300.600 C 71.403 301.040,71.024 302.120,70.745 303.000 C 70.465 303.880,70.093 304.771,69.918 304.980 C 69.743 305.189,69.600 305.763,69.600 306.256 C 69.600 306.749,69.420 307.264,69.200 307.400 C 68.980 307.536,68.800 308.089,68.800 308.629 C 68.800 309.169,68.632 309.923,68.427 310.305 C 68.221 310.687,67.822 311.855,67.539 312.900 C 67.197 314.165,66.811 314.800,66.383 314.800 C 65.761 314.800,58.737 306.282,55.992 302.200 C 55.252 301.100,54.501 300.140,54.323 300.067 C 54.145 299.993,54.000 299.712,54.000 299.442 C 54.000 299.172,53.685 298.602,53.300 298.175 C 52.915 297.749,52.345 296.905,52.032 296.300 C 51.720 295.695,51.315 295.200,51.132 295.200 C 50.950 295.200,50.800 295.026,50.800 294.812 C 50.800 294.599,50.012 293.204,49.049 291.712 C 46.545 287.833,40.662 276.679,39.068 272.787 C 38.665 271.804,37.968 270.190,37.517 269.200 C 37.067 268.210,36.567 267.040,36.406 266.600 C 36.245 266.160,35.728 265.018,35.257 264.062 C 34.786 263.106,34.400 261.992,34.400 261.586 C 34.400 261.180,34.220 260.736,34.000 260.600 C 33.780 260.464,33.600 259.924,33.600 259.400 C 33.600 258.876,33.420 258.336,33.200 258.200 C 32.980 258.064,32.800 257.524,32.800 257.000 C 32.800 256.476,32.620 255.936,32.400 255.800 C 32.180 255.664,32.000 255.201,32.000 254.771 C 32.000 254.341,31.838 253.677,31.641 253.295 C 30.220 250.545,26.711 235.265,25.602 227.000 C 25.336 225.020,24.966 222.410,24.778 221.200 C 22.841 208.688,23.409 183.981,25.961 169.800 C 26.159 168.700,26.530 166.630,26.784 165.200 C 27.331 162.134,29.031 154.976,29.767 152.641 C 30.052 151.739,30.515 150.190,30.796 149.200 C 31.705 145.998,32.828 142.617,33.219 141.905 C 33.429 141.523,33.600 140.936,33.600 140.600 C 33.600 140.264,33.759 139.677,33.953 139.295 C 34.284 138.645,34.621 137.847,35.600 135.400 C 35.820 134.850,36.180 133.950,36.400 133.400 C 36.620 132.850,36.961 131.995,37.158 131.500 C 39.334 126.032,44.811 115.224,48.256 109.600 C 49.132 108.170,50.108 106.550,50.424 106.000 C 50.741 105.450,51.099 104.910,51.219 104.800 C 51.340 104.690,51.908 103.790,52.481 102.800 C 53.054 101.810,53.856 100.611,54.262 100.135 C 54.668 99.659,56.141 97.642,57.536 95.653 C 66.774 82.475,84.830 64.690,97.800 55.994 C 98.900 55.256,99.890 54.550,100.000 54.425 C 100.194 54.205,100.661 53.897,105.785 50.609 C 112.968 46.001,124.702 39.863,131.500 37.158 C 131.995 36.961,132.850 36.620,133.400 36.400 C 133.950 36.180,134.805 35.844,135.300 35.654 C 136.801 35.076,138.560 34.327,139.295 33.953 C 139.677 33.759,140.316 33.600,140.715 33.600 C 141.114 33.600,141.611 33.451,141.820 33.270 C 142.029 33.088,143.010 32.695,144.000 32.398 C 144.990 32.100,145.980 31.732,146.200 31.582 C 146.420 31.431,147.050 31.206,147.600 31.082 C 148.150 30.957,149.230 30.678,150.000 30.461 C 154.398 29.222,162.558 27.227,164.800 26.843 C 166.230 26.599,168.390 26.207,169.600 25.974 C 172.719 25.373,176.776 24.840,181.326 24.433 C 183.485 24.240,185.368 23.965,185.510 23.823 C 185.899 23.435,215.287 23.881,219.200 24.335 M209.400 90.806 C 209.620 90.979,211.195 91.249,212.900 91.407 C 214.605 91.565,216.000 91.853,216.000 92.047 C 216.000 92.241,216.540 92.400,217.200 92.400 C 217.860 92.400,218.400 92.580,218.400 92.800 C 218.400 93.020,218.940 93.200,219.600 93.200 C 220.260 93.200,220.800 93.380,220.800 93.600 C 220.800 93.820,221.340 94.000,222.000 94.000 C 222.660 94.000,223.200 94.180,223.200 94.400 C 223.200 94.620,223.560 94.800,224.000 94.800 C 224.440 94.800,224.800 94.946,224.800 95.125 C 224.800 95.304,225.430 95.698,226.200 96.000 C 226.970 96.302,227.600 96.696,227.600 96.875 C 227.600 97.054,227.878 97.200,228.217 97.200 C 228.556 97.200,229.220 97.560,229.692 98.000 C 230.164 98.440,230.787 98.800,231.075 98.800 C 231.364 98.800,231.600 98.980,231.600 99.200 C 231.600 99.420,231.872 99.600,232.204 99.600 C 232.536 99.600,233.372 100.140,234.063 100.800 C 234.754 101.460,235.478 102.000,235.673 102.000 C 235.867 102.000,236.657 102.630,237.427 103.400 C 238.197 104.170,238.969 104.800,239.143 104.800 C 239.609 104.800,243.753 108.926,244.835 110.468 C 245.349 111.201,246.271 112.277,246.885 112.860 C 247.498 113.444,248.000 114.120,248.000 114.364 C 248.000 114.608,248.540 115.372,249.200 116.063 C 249.860 116.754,250.400 117.562,250.400 117.859 C 250.400 118.157,250.580 118.400,250.800 118.400 C 251.020 118.400,251.200 118.720,251.200 119.112 C 251.200 119.503,251.560 120.083,252.000 120.400 C 252.440 120.717,252.800 121.297,252.800 121.688 C 252.800 122.080,252.980 122.400,253.200 122.400 C 253.420 122.400,253.600 122.760,253.600 123.200 C 253.600 123.640,253.780 124.000,254.000 124.000 C 254.220 124.000,254.400 124.349,254.400 124.776 C 254.400 125.203,254.580 125.664,254.800 125.800 C 255.020 125.936,255.200 126.397,255.200 126.824 C 255.200 127.251,255.380 127.600,255.600 127.600 C 255.820 127.600,256.000 128.039,256.000 128.576 C 256.000 129.113,256.180 129.664,256.400 129.800 C 256.620 129.936,256.800 130.397,256.800 130.824 C 256.800 131.251,256.980 131.600,257.200 131.600 C 257.420 131.600,257.600 132.320,257.600 133.200 C 257.600 134.080,257.756 134.800,257.946 134.800 C 258.654 134.800,259.341 142.389,259.323 150.000 C 259.303 157.659,258.619 165.200,257.943 165.200 C 257.754 165.200,257.600 165.740,257.600 166.400 C 257.600 167.060,257.420 167.600,257.200 167.600 C 256.980 167.600,256.800 168.140,256.800 168.800 C 256.800 169.460,256.620 170.000,256.400 170.000 C 256.180 170.000,256.000 170.540,256.000 171.200 C 256.000 171.860,255.820 172.400,255.600 172.400 C 255.380 172.400,255.200 172.760,255.200 173.200 C 255.200 173.640,255.020 174.000,254.800 174.000 C 254.580 174.000,254.400 174.360,254.400 174.800 C 254.400 175.240,254.254 175.600,254.075 175.600 C 253.896 175.600,253.502 176.230,253.200 177.000 C 252.898 177.770,252.504 178.400,252.325 178.400 C 252.146 178.400,252.000 178.678,252.000 179.017 C 252.000 179.356,251.640 180.020,251.200 180.492 C 250.760 180.964,250.400 181.587,250.400 181.875 C 250.400 182.164,250.220 182.400,250.000 182.400 C 249.780 182.400,249.600 182.635,249.600 182.922 C 249.600 183.209,248.970 184.131,248.200 184.972 C 247.430 185.813,246.800 186.661,246.800 186.857 C 246.800 187.336,237.773 196.400,237.295 196.400 C 237.088 196.400,236.394 196.895,235.752 197.500 C 235.111 198.105,234.094 198.855,233.493 199.168 C 232.892 199.480,232.400 199.885,232.400 200.068 C 232.400 200.250,232.080 200.400,231.688 200.400 C 231.297 200.400,230.717 200.760,230.400 201.200 C 230.083 201.640,229.503 202.000,229.112 202.000 C 228.720 202.000,228.400 202.180,228.400 202.400 C 228.400 202.620,228.040 202.800,227.600 202.800 C 227.160 202.800,226.800 202.946,226.800 203.125 C 226.800 203.304,226.170 203.698,225.400 204.000 C 224.630 204.302,224.000 204.696,224.000 204.875 C 224.000 205.054,223.460 205.200,222.800 205.200 C 222.140 205.200,221.600 205.380,221.600 205.600 C 221.600 205.820,221.251 206.000,220.824 206.000 C 220.397 206.000,219.936 206.180,219.800 206.400 C 219.664 206.620,219.113 206.800,218.576 206.800 C 218.039 206.800,217.600 206.980,217.600 207.200 C 217.600 207.420,216.880 207.600,216.000 207.600 C 215.120 207.600,214.400 207.755,214.400 207.945 C 214.400 208.557,206.371 209.329,200.000 209.329 C 193.629 209.329,185.600 208.557,185.600 207.945 C 185.600 207.755,184.880 207.600,184.000 207.600 C 183.120 207.600,182.400 207.420,182.400 207.200 C 182.400 206.980,181.961 206.800,181.424 206.800 C 180.887 206.800,180.336 206.620,180.200 206.400 C 180.064 206.180,179.603 206.000,179.176 206.000 C 178.749 206.000,178.400 205.820,178.400 205.600 C 178.400 205.380,177.860 205.200,177.200 205.200 C 176.540 205.200,176.000 205.054,176.000 204.875 C 176.000 204.696,175.370 204.302,174.600 204.000 C 173.830 203.698,173.200 203.304,173.200 203.125 C 173.200 202.946,172.840 202.800,172.400 202.800 C 171.960 202.800,171.600 202.620,171.600 202.400 C 171.600 202.180,171.280 202.000,170.888 202.000 C 170.497 202.000,169.917 201.640,169.600 201.200 C 169.283 200.760,168.703 200.400,168.312 200.400 C 167.920 200.400,167.600 200.250,167.600 200.068 C 167.600 199.885,167.108 199.480,166.507 199.168 C 165.906 198.855,164.889 198.105,164.248 197.500 C 163.606 196.895,162.912 196.400,162.705 196.400 C 162.227 196.400,153.200 187.336,153.200 186.857 C 153.200 186.661,152.570 185.813,151.800 184.972 C 151.030 184.131,150.400 183.209,150.400 182.922 C 150.400 182.635,150.220 182.400,150.000 182.400 C 149.780 182.400,149.600 182.164,149.600 181.875 C 149.600 181.587,149.240 180.964,148.800 180.492 C 148.360 180.020,148.000 179.356,148.000 179.017 C 148.000 178.678,147.854 178.400,147.675 178.400 C 147.496 178.400,147.102 177.770,146.800 177.000 C 146.498 176.230,146.104 175.600,145.925 175.600 C 145.746 175.600,145.600 175.240,145.600 174.800 C 145.600 174.360,145.420 174.000,145.200 174.000 C 144.980 174.000,144.800 173.640,144.800 173.200 C 144.800 172.760,144.620 172.400,144.400 172.400 C 144.180 172.400,144.000 171.860,144.000 171.200 C 144.000 170.540,143.820 170.000,143.600 170.000 C 143.380 170.000,143.200 169.460,143.200 168.800 C 143.200 168.140,143.020 167.600,142.800 167.600 C 142.580 167.600,142.400 167.060,142.400 166.400 C 142.400 165.740,142.236 165.200,142.036 165.200 C 141.836 165.200,141.544 163.625,141.388 161.700 C 141.232 159.775,140.939 157.992,140.735 157.739 C 139.832 156.611,141.048 135.229,142.036 134.867 C 142.236 134.793,142.400 134.028,142.400 133.167 C 142.400 132.305,142.580 131.600,142.800 131.600 C 143.020 131.600,143.200 131.251,143.200 130.824 C 143.200 130.397,143.380 129.936,143.600 129.800 C 143.820 129.664,144.000 129.113,144.000 128.576 C 144.000 128.039,144.180 127.600,144.400 127.600 C 144.620 127.600,144.800 127.251,144.800 126.824 C 144.800 126.397,144.980 125.936,145.200 125.800 C 145.420 125.664,145.600 125.203,145.600 124.776 C 145.600 124.349,145.780 124.000,146.000 124.000 C 146.220 124.000,146.400 123.640,146.400 123.200 C 146.400 122.760,146.580 122.400,146.800 122.400 C 147.020 122.400,147.200 122.080,147.200 121.688 C 147.200 121.297,147.560 120.717,148.000 120.400 C 148.440 120.083,148.800 119.503,148.800 119.112 C 148.800 118.720,148.980 118.400,149.200 118.400 C 149.420 118.400,149.600 118.157,149.600 117.859 C 149.600 117.562,150.140 116.754,150.800 116.063 C 151.460 115.372,152.000 114.608,152.000 114.364 C 152.000 114.120,152.502 113.444,153.115 112.860 C 153.729 112.277,154.633 111.226,155.125 110.525 C 156.154 109.057,160.430 104.800,160.875 104.800 C 161.039 104.800,161.803 104.170,162.573 103.400 C 163.343 102.630,164.133 102.000,164.327 102.000 C 164.522 102.000,165.246 101.460,165.937 100.800 C 166.628 100.140,167.464 99.600,167.796 99.600 C 168.128 99.600,168.400 99.420,168.400 99.200 C 168.400 98.980,168.636 98.800,168.925 98.800 C 169.213 98.800,169.836 98.440,170.308 98.000 C 170.780 97.560,171.444 97.200,171.783 97.200 C 172.122 97.200,172.400 97.020,172.400 96.800 C 172.400 96.580,172.760 96.400,173.200 96.400 C 173.640 96.400,174.000 96.220,174.000 96.000 C 174.000 95.780,174.270 95.600,174.600 95.600 C 174.930 95.600,175.200 95.420,175.200 95.200 C 175.200 94.980,175.560 94.800,176.000 94.800 C 176.440 94.800,176.800 94.620,176.800 94.400 C 176.800 94.180,177.340 94.000,178.000 94.000 C 178.660 94.000,179.200 93.820,179.200 93.600 C 179.200 93.380,179.740 93.200,180.400 93.200 C 181.060 93.200,181.600 93.020,181.600 92.800 C 181.600 92.580,182.140 92.400,182.800 92.400 C 183.460 92.400,184.000 92.241,184.000 92.047 C 184.000 91.853,185.395 91.565,187.100 91.407 C 188.805 91.249,190.390 90.965,190.623 90.775 C 191.458 90.094,208.529 90.122,209.400 90.806 M209.400 236.000 C 209.536 236.220,210.886 236.400,212.400 236.400 C 213.914 236.400,215.264 236.580,215.400 236.800 C 215.536 237.020,216.796 237.200,218.200 237.200 C 219.604 237.200,220.864 237.380,221.000 237.600 C 221.136 237.820,222.047 238.000,223.024 238.000 C 224.001 238.000,224.800 238.180,224.800 238.400 C 224.800 238.620,225.419 238.800,226.176 238.800 C 226.933 238.800,227.664 238.980,227.800 239.200 C 227.936 239.420,228.579 239.600,229.229 239.600 C 229.879 239.600,230.723 239.763,231.105 239.963 C 232.247 240.560,236.022 241.600,237.046 241.600 C 237.571 241.600,238.000 241.780,238.000 242.000 C 238.000 242.220,238.439 242.400,238.976 242.400 C 239.513 242.400,240.064 242.580,240.200 242.800 C 240.336 243.020,240.797 243.200,241.224 243.200 C 241.651 243.200,242.000 243.380,242.000 243.600 C 242.000 243.820,242.450 244.000,243.000 244.000 C 243.550 244.000,244.000 244.180,244.000 244.400 C 244.000 244.620,244.360 244.800,244.800 244.800 C 245.240 244.800,245.600 244.980,245.600 245.200 C 245.600 245.420,245.960 245.600,246.400 245.600 C 246.840 245.600,247.200 245.780,247.200 246.000 C 247.200 246.220,247.560 246.400,248.000 246.400 C 248.440 246.400,248.800 246.580,248.800 246.800 C 248.800 247.020,249.160 247.200,249.600 247.200 C 250.040 247.200,250.400 247.380,250.400 247.600 C 250.400 247.820,250.760 248.000,251.200 248.000 C 251.640 248.000,252.000 248.180,252.000 248.400 C 252.000 248.620,252.360 248.800,252.800 248.800 C 253.240 248.800,253.600 248.980,253.600 249.200 C 253.600 249.420,253.960 249.600,254.400 249.600 C 254.840 249.600,255.200 249.780,255.200 250.000 C 255.200 250.220,255.436 250.400,255.725 250.400 C 256.013 250.400,256.636 250.760,257.108 251.200 C 257.580 251.640,258.077 252.000,258.211 252.000 C 258.346 252.000,259.241 252.540,260.200 253.200 C 261.159 253.860,262.045 254.400,262.167 254.400 C 262.290 254.400,262.708 254.660,263.095 254.978 C 265.134 256.650,268.231 258.800,268.601 258.800 C 268.833 258.800,269.283 259.160,269.600 259.600 C 269.917 260.040,270.387 260.400,270.645 260.400 C 271.048 260.400,276.300 265.213,279.686 268.686 C 284.097 273.210,287.200 276.566,287.200 276.812 C 287.200 276.972,287.920 277.845,288.800 278.752 C 289.680 279.659,290.400 280.589,290.400 280.819 C 290.400 281.048,290.819 281.655,291.330 282.166 C 291.842 282.678,292.493 283.660,292.779 284.348 C 293.064 285.037,293.455 285.600,293.649 285.600 C 293.842 285.600,294.000 285.836,294.000 286.125 C 294.000 286.413,294.315 286.998,294.700 287.425 C 295.085 287.851,295.655 288.695,295.968 289.300 C 296.280 289.905,296.685 290.400,296.868 290.400 C 297.050 290.400,297.200 290.670,297.200 291.000 C 297.200 291.330,297.380 291.600,297.600 291.600 C 297.820 291.600,298.000 291.960,298.000 292.400 C 298.000 292.840,298.180 293.200,298.400 293.200 C 298.620 293.200,298.800 293.560,298.800 294.000 C 298.800 294.440,298.980 294.800,299.200 294.800 C 299.420 294.800,299.600 295.160,299.600 295.600 C 299.600 296.040,299.759 296.400,299.953 296.400 C 300.148 296.400,300.407 296.715,300.529 297.100 C 300.651 297.485,301.059 298.340,301.436 299.000 C 302.529 300.914,302.800 301.549,302.800 302.195 C 302.800 302.528,302.980 302.800,303.200 302.800 C 303.420 302.800,303.600 303.160,303.600 303.600 C 303.600 304.040,303.780 304.400,304.000 304.400 C 304.220 304.400,304.400 304.850,304.400 305.400 C 304.400 305.950,304.580 306.400,304.800 306.400 C 305.020 306.400,305.200 306.760,305.200 307.200 C 305.200 307.640,305.380 308.000,305.600 308.000 C 305.820 308.000,306.000 308.540,306.000 309.200 C 306.000 309.860,306.180 310.400,306.400 310.400 C 306.620 310.400,306.800 310.940,306.800 311.600 C 306.800 312.260,306.980 312.800,307.200 312.800 C 307.420 312.800,307.600 313.162,307.600 313.605 C 307.600 314.048,307.773 314.723,307.984 315.105 C 308.195 315.487,308.567 316.700,308.810 317.800 C 309.053 318.900,309.411 320.520,309.604 321.400 C 309.798 322.280,310.165 323.810,310.419 324.800 C 310.674 325.790,310.969 327.590,311.076 328.800 C 311.183 330.010,311.435 331.171,311.635 331.380 C 312.281 332.053,312.083 335.600,311.400 335.600 C 311.070 335.600,310.800 335.780,310.800 336.000 C 310.800 336.220,310.570 336.400,310.288 336.400 C 310.007 336.400,309.517 336.760,309.200 337.200 C 308.883 337.640,308.483 338.000,308.312 338.000 C 308.141 338.000,307.259 338.720,306.352 339.600 C 305.445 340.480,304.538 341.200,304.335 341.200 C 304.132 341.200,303.749 341.383,303.483 341.607 C 301.619 343.179,301.016 343.604,300.352 343.815 C 299.939 343.946,299.600 344.222,299.600 344.427 C 299.600 344.632,299.364 344.800,299.075 344.800 C 298.787 344.800,298.164 345.160,297.692 345.600 C 297.220 346.040,296.680 346.400,296.492 346.400 C 296.304 346.400,295.802 346.715,295.375 347.100 C 294.949 347.485,294.060 348.069,293.400 348.397 C 292.740 348.726,291.909 349.311,291.553 349.697 C 291.197 350.084,290.652 350.400,290.341 350.400 C 290.031 350.400,289.517 350.760,289.200 351.200 C 288.883 351.640,288.303 352.000,287.912 352.000 C 287.520 352.000,287.200 352.180,287.200 352.400 C 287.200 352.620,286.840 352.800,286.400 352.800 C 285.960 352.800,285.600 352.980,285.600 353.200 C 285.600 353.420,285.240 353.600,284.800 353.600 C 284.360 353.600,284.000 353.780,284.000 354.000 C 284.000 354.220,283.640 354.400,283.200 354.400 C 282.760 354.400,282.400 354.546,282.400 354.725 C 282.400 354.904,281.770 355.298,281.000 355.600 C 280.230 355.902,279.600 356.296,279.600 356.475 C 279.600 356.654,279.330 356.800,279.000 356.800 C 278.670 356.800,278.400 356.980,278.400 357.200 C 278.400 357.420,278.040 357.600,277.600 357.600 C 277.160 357.600,276.800 357.780,276.800 358.000 C 276.800 358.220,276.575 358.401,276.300 358.402 C 276.025 358.404,275.346 358.642,274.791 358.931 C 274.237 359.221,272.932 359.709,271.891 360.016 C 270.851 360.323,270.000 360.715,270.000 360.887 C 270.000 361.059,269.728 361.200,269.395 361.200 C 269.062 361.200,268.432 361.380,267.995 361.600 C 267.558 361.820,266.842 362.180,266.405 362.400 C 265.968 362.620,265.338 362.800,265.005 362.800 C 264.672 362.800,264.400 362.980,264.400 363.200 C 264.400 363.420,264.128 363.600,263.795 363.600 C 263.462 363.600,262.832 363.780,262.395 364.000 C 261.958 364.220,261.242 364.580,260.805 364.800 C 260.368 365.020,259.648 365.200,259.205 365.200 C 258.762 365.200,258.400 365.380,258.400 365.600 C 258.400 365.820,257.860 366.000,257.200 366.000 C 256.540 366.000,256.000 366.180,256.000 366.400 C 256.000 366.620,255.460 366.800,254.800 366.800 C 254.140 366.800,253.600 366.980,253.600 367.200 C 253.600 367.420,253.060 367.600,252.400 367.600 C 251.740 367.600,251.200 367.780,251.200 368.000 C 251.200 368.220,250.671 368.400,250.024 368.400 C 249.377 368.400,248.736 368.580,248.600 368.800 C 248.464 369.020,247.823 369.200,247.176 369.200 C 246.529 369.200,246.000 369.380,246.000 369.600 C 246.000 369.820,245.280 370.000,244.400 370.000 C 243.520 370.000,242.800 370.180,242.800 370.400 C 242.800 370.620,242.080 370.800,241.200 370.800 C 240.320 370.800,239.600 370.980,239.600 371.200 C 239.600 371.420,238.700 371.600,237.600 371.600 C 236.500 371.600,235.600 371.780,235.600 372.000 C 235.600 372.220,234.880 372.400,234.000 372.400 C 233.120 372.400,232.400 372.580,232.400 372.800 C 232.400 373.022,231.333 373.200,230.000 373.200 C 228.667 373.200,227.600 373.378,227.600 373.600 C 227.600 373.831,226.344 374.000,224.633 374.000 C 223.002 374.000,221.607 374.176,221.533 374.391 C 221.138 375.551,178.862 375.551,178.467 374.391 C 178.393 374.176,176.998 374.000,175.367 374.000 C 173.656 374.000,172.400 373.831,172.400 373.600 C 172.400 373.378,171.333 373.200,170.000 373.200 C 168.667 373.200,167.600 373.022,167.600 372.800 C 167.600 372.580,166.880 372.400,166.000 372.400 C 165.120 372.400,164.400 372.220,164.400 372.000 C 164.400 371.780,163.500 371.600,162.400 371.600 C 161.300 371.600,160.400 371.420,160.400 371.200 C 160.400 370.980,159.680 370.800,158.800 370.800 C 157.920 370.800,157.200 370.620,157.200 370.400 C 157.200 370.180,156.480 370.000,155.600 370.000 C 154.720 370.000,154.000 369.820,154.000 369.600 C 154.000 369.380,153.471 369.200,152.824 369.200 C 152.177 369.200,151.536 369.020,151.400 368.800 C 151.264 368.580,150.623 368.400,149.976 368.400 C 149.329 368.400,148.800 368.220,148.800 368.000 C 148.800 367.780,148.260 367.600,147.600 367.600 C 146.940 367.600,146.400 367.420,146.400 367.200 C 146.400 366.980,145.860 366.800,145.200 366.800 C 144.540 366.800,144.000 366.620,144.000 366.400 C 144.000 366.180,143.460 366.000,142.800 366.000 C 142.140 366.000,141.600 365.820,141.600 365.600 C 141.600 365.380,141.238 365.200,140.795 365.200 C 140.352 365.200,139.632 365.020,139.195 364.800 C 138.758 364.580,138.042 364.220,137.605 364.000 C 137.168 363.780,136.538 363.600,136.205 363.600 C 135.872 363.600,135.600 363.420,135.600 363.200 C 135.600 362.980,135.328 362.800,134.995 362.800 C 134.662 362.800,134.032 362.620,133.595 362.400 C 133.158 362.180,132.442 361.820,132.005 361.600 C 131.568 361.380,130.938 361.200,130.605 361.200 C 130.272 361.200,130.000 361.059,130.000 360.887 C 130.000 360.715,129.145 360.327,128.100 360.025 C 127.055 359.722,125.845 359.233,125.411 358.937 C 124.977 358.642,124.302 358.400,123.911 358.400 C 123.520 358.400,123.200 358.220,123.200 358.000 C 123.200 357.780,122.840 357.600,122.400 357.600 C 121.960 357.600,121.600 357.420,121.600 357.200 C 121.600 356.980,121.330 356.800,121.000 356.800 C 120.670 356.800,120.400 356.654,120.400 356.475 C 120.400 356.296,119.770 355.902,119.000 355.600 C 118.230 355.298,117.600 354.904,117.600 354.725 C 117.600 354.546,117.240 354.400,116.800 354.400 C 116.360 354.400,116.000 354.220,116.000 354.000 C 116.000 353.780,115.640 353.600,115.200 353.600 C 114.760 353.600,114.400 353.420,114.400 353.200 C 114.400 352.980,114.040 352.800,113.600 352.800 C 113.160 352.800,112.800 352.620,112.800 352.400 C 112.800 352.180,112.480 352.000,112.088 352.000 C 111.697 352.000,111.117 351.640,110.800 351.200 C 110.483 350.760,109.969 350.400,109.659 350.400 C 109.348 350.400,108.803 350.084,108.447 349.697 C 108.091 349.311,107.260 348.726,106.600 348.397 C 105.940 348.069,105.051 347.485,104.625 347.100 C 104.198 346.715,103.696 346.400,103.508 346.400 C 103.320 346.400,102.780 346.040,102.308 345.600 C 101.836 345.160,101.213 344.800,100.925 344.800 C 100.636 344.800,100.400 344.632,100.400 344.427 C 100.400 344.222,100.061 343.946,99.648 343.815 C 98.984 343.604,98.381 343.179,96.517 341.607 C 96.251 341.383,95.868 341.200,95.665 341.200 C 95.462 341.200,94.555 340.480,93.648 339.600 C 92.741 338.720,91.896 338.000,91.771 338.000 C 91.646 338.000,91.306 337.775,91.016 337.500 C 89.815 336.360,88.767 335.600,88.395 335.600 C 87.877 335.600,87.881 331.721,88.400 331.400 C 88.620 331.264,88.800 330.184,88.800 329.000 C 88.800 327.816,88.961 326.748,89.158 326.626 C 89.355 326.505,89.614 325.729,89.735 324.903 C 90.136 322.158,90.497 320.605,90.831 320.183 C 91.012 319.953,91.284 318.558,91.436 317.083 C 91.587 315.607,91.866 314.400,92.055 314.400 C 92.245 314.400,92.400 314.040,92.400 313.600 C 92.400 313.160,92.580 312.800,92.800 312.800 C 93.020 312.800,93.200 312.260,93.200 311.600 C 93.200 310.940,93.380 310.400,93.600 310.400 C 93.820 310.400,94.000 309.950,94.000 309.400 C 94.000 308.850,94.180 308.400,94.400 308.400 C 94.620 308.400,94.800 307.860,94.800 307.200 C 94.800 306.540,94.980 306.000,95.200 306.000 C 95.420 306.000,95.600 305.640,95.600 305.200 C 95.600 304.760,95.780 304.400,96.000 304.400 C 96.220 304.400,96.400 304.040,96.400 303.600 C 96.400 303.160,96.580 302.800,96.800 302.800 C 97.020 302.800,97.200 302.440,97.200 302.000 C 97.200 301.560,97.380 301.200,97.600 301.200 C 97.820 301.200,98.000 300.840,98.000 300.400 C 98.000 299.960,98.180 299.600,98.400 299.600 C 98.620 299.600,98.800 299.240,98.800 298.800 C 98.800 298.360,98.980 298.000,99.200 298.000 C 99.420 298.000,99.600 297.640,99.600 297.200 C 99.600 296.760,99.780 296.400,100.000 296.400 C 100.220 296.400,100.400 296.040,100.400 295.600 C 100.400 295.160,100.580 294.800,100.800 294.800 C 101.020 294.800,101.200 294.440,101.200 294.000 C 101.200 293.560,101.358 293.200,101.551 293.200 C 101.745 293.200,102.127 292.660,102.400 292.000 C 102.673 291.340,103.011 290.800,103.151 290.800 C 103.290 290.800,103.659 290.215,103.970 289.500 C 104.281 288.785,104.655 288.110,104.800 288.000 C 104.945 287.890,105.899 286.540,106.921 285.000 C 107.943 283.460,109.143 281.801,109.589 281.314 C 110.035 280.827,110.400 280.228,110.400 279.983 C 110.400 279.738,111.120 278.846,112.000 278.000 C 112.880 277.154,113.600 276.341,113.600 276.193 C 113.600 276.045,116.111 273.376,119.179 270.262 C 122.248 267.148,125.104 264.195,125.526 263.700 C 125.948 263.205,126.479 262.800,126.706 262.800 C 126.933 262.800,128.038 261.900,129.161 260.800 C 130.285 259.700,131.430 258.800,131.706 258.800 C 131.982 258.800,132.693 258.350,133.287 257.800 C 133.880 257.250,134.519 256.800,134.707 256.800 C 134.895 256.800,135.398 256.485,135.825 256.100 C 136.251 255.715,137.095 255.145,137.700 254.832 C 138.305 254.520,138.800 254.115,138.800 253.932 C 138.800 253.750,138.988 253.600,139.217 253.600 C 139.446 253.600,140.020 253.240,140.492 252.800 C 140.964 252.360,141.587 252.000,141.875 252.000 C 142.164 252.000,142.400 251.820,142.400 251.600 C 142.400 251.380,142.760 251.200,143.200 251.200 C 143.640 251.200,144.000 251.020,144.000 250.800 C 144.000 250.580,144.320 250.400,144.712 250.400 C 145.103 250.400,145.683 250.040,146.000 249.600 C 146.317 249.160,146.897 248.800,147.288 248.800 C 147.680 248.800,148.000 248.620,148.000 248.400 C 148.000 248.180,148.360 248.000,148.800 248.000 C 149.240 248.000,149.600 247.820,149.600 247.600 C 149.600 247.380,149.960 247.200,150.400 247.200 C 150.840 247.200,151.200 247.020,151.200 246.800 C 151.200 246.580,151.560 246.400,152.000 246.400 C 152.440 246.400,152.800 246.220,152.800 246.000 C 152.800 245.780,153.250 245.600,153.800 245.600 C 154.350 245.600,154.800 245.420,154.800 245.200 C 154.800 244.980,155.149 244.800,155.576 244.800 C 156.003 244.800,156.464 244.620,156.600 244.400 C 156.736 244.180,157.197 244.000,157.624 244.000 C 158.051 244.000,158.400 243.820,158.400 243.600 C 158.400 243.380,158.850 243.200,159.400 243.200 C 159.950 243.200,160.400 243.020,160.400 242.800 C 160.400 242.580,160.839 242.400,161.376 242.400 C 161.913 242.400,162.461 242.225,162.593 242.012 C 162.725 241.798,163.725 241.505,164.816 241.360 C 165.907 241.215,166.800 240.940,166.800 240.748 C 166.800 240.557,167.239 240.400,167.776 240.400 C 168.313 240.400,168.864 240.220,169.000 240.000 C 169.136 239.780,169.946 239.600,170.800 239.600 C 171.654 239.600,172.464 239.420,172.600 239.200 C 172.736 238.980,173.456 238.800,174.200 238.800 C 174.944 238.800,175.664 238.620,175.800 238.400 C 175.936 238.180,176.757 238.000,177.624 238.000 C 178.491 238.000,179.200 237.820,179.200 237.600 C 179.200 237.375,180.325 237.200,181.776 237.200 C 183.193 237.200,184.464 237.020,184.600 236.800 C 184.736 236.580,185.962 236.397,187.324 236.394 C 188.686 236.391,190.070 236.213,190.400 236.000 C 191.215 235.473,209.075 235.473,209.400 236.000 " stroke="none" fill="#040404" fill-rule="evenodd"></path><path id="path1" d="M185.510 23.823 C 185.368 23.965,183.485 24.240,181.326 24.433 C 176.776 24.840,172.719 25.373,169.600 25.974 C 168.390 26.207,166.230 26.599,164.800 26.843 C 162.558 27.227,154.398 29.222,150.000 30.461 C 149.230 30.678,148.150 30.957,147.600 31.082 C 147.050 31.206,146.420 31.431,146.200 31.582 C 145.980 31.732,144.990 32.100,144.000 32.398 C 143.010 32.695,142.029 33.088,141.820 33.270 C 141.611 33.451,141.114 33.600,140.715 33.600 C 140.316 33.600,139.677 33.759,139.295 33.953 C 138.560 34.327,136.801 35.076,135.300 35.654 C 134.805 35.844,133.950 36.180,133.400 36.400 C 132.850 36.620,131.995 36.961,131.500 37.158 C 124.702 39.863,112.968 46.001,105.785 50.609 C 100.661 53.897,100.194 54.205,100.000 54.425 C 99.890 54.550,98.900 55.256,97.800 55.994 C 84.830 64.690,66.774 82.475,57.536 95.653 C 56.141 97.642,54.668 99.659,54.262 100.135 C 53.856 100.611,53.054 101.810,52.481 102.800 C 51.908 103.790,51.340 104.690,51.219 104.800 C 51.099 104.910,50.741 105.450,50.424 106.000 C 50.108 106.550,49.132 108.170,48.256 109.600 C 44.811 115.224,39.334 126.032,37.158 131.500 C 36.961 131.995,36.620 132.850,36.400 133.400 C 36.180 133.950,35.820 134.850,35.600 135.400 C 34.621 137.847,34.284 138.645,33.953 139.295 C 33.759 139.677,33.600 140.264,33.600 140.600 C 33.600 140.936,33.429 141.523,33.219 141.905 C 32.828 142.617,31.705 145.998,30.796 149.200 C 30.515 150.190,30.052 151.739,29.767 152.641 C 29.031 154.976,27.331 162.134,26.784 165.200 C 26.530 166.630,26.159 168.700,25.961 169.800 C 23.409 183.981,22.841 208.688,24.778 221.200 C 24.966 222.410,25.336 225.020,25.602 227.000 C 26.711 235.265,30.220 250.545,31.641 253.295 C 31.838 253.677,32.000 254.341,32.000 254.771 C 32.000 255.201,32.180 255.664,32.400 255.800 C 32.620 255.936,32.800 256.476,32.800 257.000 C 32.800 257.524,32.980 258.064,33.200 258.200 C 33.420 258.336,33.600 258.876,33.600 259.400 C 33.600 259.924,33.780 260.464,34.000 260.600 C 34.220 260.736,34.400 261.180,34.400 261.586 C 34.400 261.992,34.786 263.106,35.257 264.062 C 35.728 265.018,36.245 266.160,36.406 266.600 C 36.567 267.040,37.067 268.210,37.517 269.200 C 37.968 270.190,38.665 271.804,39.068 272.787 C 40.662 276.679,46.545 287.833,49.049 291.712 C 50.012 293.204,50.800 294.599,50.800 294.812 C 50.800 295.026,50.950 295.200,51.132 295.200 C 51.315 295.200,51.720 295.695,52.032 296.300 C 52.345 296.905,52.915 297.749,53.300 298.175 C 53.685 298.602,54.000 299.172,54.000 299.442 C 54.000 299.712,54.145 299.993,54.323 300.067 C 54.501 300.140,55.252 301.100,55.992 302.200 C 58.737 306.282,65.761 314.800,66.383 314.800 C 66.811 314.800,67.197 314.165,67.539 312.900 C 67.822 311.855,68.221 310.687,68.427 310.305 C 68.632 309.923,68.800 309.169,68.800 308.629 C 68.800 308.089,68.980 307.536,69.200 307.400 C 69.420 307.264,69.600 306.749,69.600 306.256 C 69.600 305.763,69.743 305.189,69.918 304.980 C 70.093 304.771,70.465 303.880,70.745 303.000 C 71.024 302.120,71.403 301.040,71.587 300.600 C 71.771 300.160,72.329 298.720,72.826 297.400 C 73.324 296.080,73.859 294.820,74.016 294.600 C 74.174 294.380,74.440 293.750,74.608 293.200 C 75.183 291.320,80.590 280.818,82.053 278.738 C 82.464 278.154,82.800 277.563,82.800 277.425 C 82.800 277.221,85.563 273.079,89.200 267.834 C 98.124 254.963,116.661 238.031,129.530 230.996 C 130.338 230.554,133.195 228.979,135.879 227.496 C 138.562 226.013,140.868 224.800,141.004 224.800 C 141.140 224.800,142.235 224.350,143.437 223.800 C 144.640 223.250,145.703 222.800,145.800 222.800 C 145.897 222.800,146.961 222.350,148.165 221.799 C 149.368 221.249,150.813 220.623,151.376 220.409 C 152.925 219.820,152.628 219.067,150.100 217.175 C 148.835 216.228,147.710 215.341,147.600 215.204 C 147.490 215.066,147.003 214.683,146.517 214.351 C 145.035 213.340,137.863 206.283,136.388 204.386 C 135.624 203.404,134.902 202.510,134.783 202.400 C 133.904 201.590,130.801 197.434,130.598 196.794 C 130.460 196.357,130.178 196.000,129.973 196.000 C 129.768 196.000,129.600 195.826,129.600 195.612 C 129.600 195.399,128.785 193.965,127.789 192.426 C 126.793 190.886,125.467 188.496,124.841 187.113 C 124.215 185.731,123.173 183.430,122.526 182.000 C 121.879 180.570,121.118 178.590,120.836 177.600 C 120.553 176.610,120.160 175.487,119.961 175.105 C 119.762 174.723,119.600 174.059,119.600 173.629 C 119.600 173.199,119.440 172.748,119.244 172.627 C 119.049 172.506,118.787 171.821,118.664 171.104 C 118.327 169.149,117.653 165.651,117.179 163.400 C 116.031 157.936,115.849 144.289,116.842 138.000 C 117.455 134.121,118.021 131.146,118.404 129.800 C 118.592 129.140,118.960 127.790,119.223 126.800 C 121.276 119.047,129.634 102.004,132.366 100.000 C 132.516 99.890,133.075 99.170,133.608 98.400 C 136.119 94.773,144.811 86.079,148.400 83.604 C 149.170 83.073,149.890 82.516,150.000 82.366 C 150.110 82.216,151.910 80.987,154.000 79.636 C 160.859 75.200,168.925 71.422,175.500 69.567 C 176.215 69.365,177.475 69.008,178.300 68.773 C 189.036 65.720,202.003 65.153,214.600 67.186 C 219.437 67.967,220.012 68.095,220.227 68.444 C 220.348 68.640,220.829 68.800,221.295 68.800 C 222.223 68.800,223.105 69.056,227.600 70.627 C 229.250 71.204,230.960 71.779,231.400 71.905 C 232.742 72.289,242.360 77.200,244.194 78.438 C 245.141 79.077,246.115 79.600,246.358 79.600 C 246.601 79.600,246.800 79.741,246.800 79.914 C 246.800 80.086,247.333 80.543,247.985 80.928 C 248.637 81.313,249.402 81.853,249.685 82.127 C 249.968 82.402,250.830 83.065,251.600 83.602 C 254.988 85.962,264.027 94.925,266.121 98.000 C 266.796 98.990,267.467 99.890,267.613 100.000 C 269.500 101.417,276.434 114.245,278.784 120.665 C 283.540 133.655,285.286 151.896,282.857 163.200 C 282.644 164.190,282.355 165.720,282.214 166.600 C 281.887 168.646,281.486 170.125,280.003 174.753 C 279.341 176.817,278.800 178.673,278.800 178.876 C 278.800 179.611,273.933 189.743,272.522 191.946 C 271.728 193.186,270.727 194.830,270.299 195.600 C 269.625 196.811,266.602 201.022,265.991 201.600 C 265.874 201.710,265.168 202.610,264.422 203.600 C 262.819 205.725,256.183 212.370,253.560 214.477 C 252.549 215.290,250.839 216.620,249.760 217.433 C 248.682 218.246,247.721 218.981,247.624 219.065 C 247.208 219.428,248.830 220.372,252.000 221.610 C 257.263 223.667,266.707 228.399,269.662 230.460 C 270.246 230.867,270.839 231.200,270.980 231.200 C 271.304 231.200,281.245 237.990,283.443 239.712 C 288.712 243.842,291.384 246.213,296.310 251.132 C 302.268 257.081,307.672 263.311,310.800 267.837 C 311.130 268.314,312.318 270.031,313.440 271.653 C 316.045 275.418,318.520 279.451,320.403 283.000 C 321.220 284.540,322.454 286.853,323.144 288.141 C 323.835 289.428,324.400 290.627,324.400 290.805 C 324.400 290.983,325.004 292.450,325.742 294.064 C 326.480 295.679,327.308 297.630,327.582 298.400 C 327.856 299.170,328.231 300.160,328.414 300.600 C 328.597 301.040,329.128 302.570,329.593 304.000 C 330.057 305.430,330.609 306.913,330.819 307.295 C 331.029 307.677,331.200 308.431,331.200 308.971 C 331.200 309.511,331.380 310.064,331.600 310.200 C 331.820 310.336,332.000 310.966,332.000 311.600 C 332.000 312.234,332.180 312.864,332.400 313.000 C 332.620 313.136,332.800 313.597,332.800 314.024 C 332.800 315.300,334.205 314.936,335.456 313.335 C 336.085 312.530,337.230 311.105,338.000 310.170 C 340.888 306.661,341.922 305.323,343.934 302.499 C 345.070 300.903,346.000 299.446,346.000 299.261 C 346.000 299.075,346.360 298.598,346.800 298.200 C 347.240 297.802,347.600 297.256,347.600 296.987 C 347.600 296.718,347.873 296.271,348.207 295.994 C 348.541 295.717,349.102 294.885,349.453 294.145 C 349.804 293.405,350.251 292.800,350.446 292.800 C 350.641 292.800,350.800 292.603,350.800 292.362 C 350.800 292.121,351.136 291.446,351.547 290.862 C 352.939 288.884,359.821 275.649,361.162 272.373 C 362.288 269.619,364.631 264.299,365.244 263.105 C 365.440 262.723,365.600 262.136,365.600 261.800 C 365.600 261.464,365.777 260.877,365.993 260.495 C 366.508 259.586,370.000 249.063,370.471 247.000 C 370.672 246.120,371.018 244.680,371.240 243.800 C 371.462 242.920,371.803 241.480,371.999 240.600 C 372.194 239.720,372.562 238.100,372.816 237.000 C 373.071 235.900,373.443 234.280,373.645 233.400 C 373.846 232.520,374.292 229.460,374.635 226.600 C 374.978 223.740,375.437 220.230,375.654 218.800 C 375.871 217.370,376.147 209.990,376.266 202.400 C 376.478 188.972,376.403 187.282,375.147 177.200 C 374.211 169.692,371.783 157.557,370.233 152.641 C 369.948 151.739,369.485 150.190,369.204 149.200 C 368.215 145.724,367.834 144.597,367.518 144.220 C 367.343 144.011,367.200 143.437,367.200 142.944 C 367.200 142.451,367.020 141.936,366.800 141.800 C 366.580 141.664,366.400 141.201,366.400 140.771 C 366.400 140.341,366.241 139.677,366.047 139.295 C 365.588 138.394,364.484 135.747,363.587 133.400 C 363.254 132.527,362.561 130.893,361.213 127.800 C 360.218 125.518,355.309 115.703,354.110 113.600 C 352.595 110.943,350.916 108.162,349.391 105.785 C 346.115 100.679,345.795 100.194,345.582 100.000 C 345.461 99.890,344.931 99.170,344.405 98.400 C 343.229 96.679,339.102 91.075,338.809 90.800 C 338.692 90.690,338.104 89.941,337.504 89.135 C 336.903 88.329,336.182 87.429,335.900 87.135 C 335.619 86.841,334.401 85.434,333.194 84.010 C 329.023 79.085,317.179 67.506,312.200 63.483 C 308.759 60.704,305.925 58.523,304.400 57.482 C 303.410 56.806,302.510 56.135,302.400 55.991 C 302.102 55.600,292.464 49.200,292.174 49.200 C 292.036 49.200,291.446 48.860,290.862 48.444 C 287.961 46.379,270.621 37.600,269.443 37.600 C 269.089 37.600,268.800 37.420,268.800 37.200 C 268.800 36.980,268.528 36.800,268.195 36.800 C 267.862 36.800,267.277 36.641,266.895 36.447 C 266.179 36.083,264.554 35.389,262.800 34.700 C 262.250 34.484,261.487 34.148,261.105 33.953 C 260.723 33.759,260.059 33.600,259.629 33.600 C 259.199 33.600,258.736 33.420,258.600 33.200 C 258.464 32.980,257.924 32.800,257.400 32.800 C 256.876 32.800,256.336 32.620,256.200 32.400 C 256.064 32.180,255.524 32.000,255.000 32.000 C 254.476 32.000,253.936 31.820,253.800 31.600 C 253.664 31.380,253.124 31.200,252.600 31.200 C 252.076 31.200,251.549 31.041,251.429 30.846 C 251.308 30.651,250.713 30.393,250.105 30.271 C 248.681 29.985,246.225 29.374,244.200 28.800 C 241.557 28.052,239.577 27.608,236.000 26.966 C 234.130 26.630,231.700 26.184,230.600 25.975 C 228.004 25.482,223.466 24.829,219.200 24.335 C 215.287 23.881,185.899 23.435,185.510 23.823 " stroke="none" fill="#2c7beb" fill-rule="evenodd"></path></g></svg>