<svg id="svg" xmlns="http://www.w3.org/2000/svg" xmlns:xlink="http://www.w3.org/1999/xlink" width="400" height="400" viewBox="0, 0, 400,400"><g id="svgg"><path id="path0" d="M31.641 46.648 C 17.672 47.949,5.427 58.348,1.108 72.579 C -0.520 77.942,-0.520 322.058,1.108 327.421 C 4.763 339.466,12.894 347.799,25.161 352.074 C 31.614 354.323,368.386 354.323,374.839 352.074 C 387.106 347.799,395.237 339.466,398.892 327.421 C 400.903 320.796,400.489 117.291,398.452 111.371 C 395.564 102.977,390.254 96.314,382.900 91.856 C 374.091 86.515,377.963 86.721,285.825 86.695 L 202.734 86.670 186.340 67.074 C 177.323 56.296,169.126 47.167,168.125 46.786 C 166.420 46.138,38.504 46.008,31.641 46.648 M180.329 76.979 L 196.986 96.875 279.548 96.891 C 376.050 96.909,373.293 96.702,381.509 104.559 C 390.403 113.064,389.962 106.675,389.688 223.047 L 389.453 323.047 387.680 326.891 C 384.795 333.147,380.983 337.149,375.191 340.000 L 369.955 342.578 200.000 342.578 L 30.045 342.578 24.809 340.000 C 19.017 337.149,15.205 333.147,12.320 326.891 L 10.547 323.047 10.547 200.000 L 10.547 76.953 12.288 73.180 C 15.941 65.266,21.734 60.229,29.632 58.100 C 32.324 57.374,49.272 57.130,98.438 57.110 L 163.672 57.083 180.329 76.979 " stroke="none" fill="#000000" fill-rule="evenodd"></path></g></svg>