<svg id="svg" xmlns="http://www.w3.org/2000/svg" xmlns:xlink="http://www.w3.org/1999/xlink" width="400" height="400" viewBox="0, 0, 400,400"><g id="svgg"><path id="path0" d="M145.490 1.902 C 129.319 7.909,121.094 20.617,121.094 39.595 L 121.094 48.438 94.727 48.447 C 75.205 48.454,67.345 48.727,64.453 49.501 C 31.774 58.243,27.534 102.613,57.997 117.056 L 64.042 119.922 64.247 240.625 L 64.453 361.328 66.603 367.405 C 72.200 383.221,84.553 394.988,99.578 398.814 C 106.770 400.646,293.163 400.597,300.278 398.762 C 312.931 395.497,324.557 385.992,330.354 374.173 C 336.261 362.130,335.938 370.027,335.938 237.815 C 335.938 125.809,336.011 119.458,337.305 119.032 C 371.637 107.724,370.376 58.714,335.520 49.635 C 331.834 48.675,325.760 48.437,304.914 48.438 L 278.906 48.438 278.906 41.122 C 278.906 24.137,273.110 12.448,261.085 5.183 C 252.341 -0.101,253.497 -0.004,199.272 0.041 L 150.391 0.081 145.490 1.902 M249.122 20.965 C 256.788 25.054,259.333 29.992,259.358 40.820 L 259.375 48.438 199.916 48.438 L 140.456 48.438 140.762 39.648 C 141.111 29.579,142.680 25.983,148.367 22.220 C 153.127 19.070,156.257 18.884,202.344 19.016 L 245.703 19.141 249.122 20.965 M332.642 69.182 C 346.578 75.003,345.845 95.549,331.550 99.820 C 327.290 101.093,73.101 101.221,68.533 99.953 C 54.390 96.025,53.235 75.729,66.797 69.450 C 71.240 67.393,327.740 67.134,332.642 69.182 M316.398 237.695 C 316.391 336.125,316.213 355.661,315.294 358.686 C 311.473 371.278,302.988 378.860,290.837 380.544 C 287.555 380.999,250.197 381.209,196.031 381.077 L 106.641 380.859 102.186 379.060 C 94.239 375.848,87.752 368.709,84.595 359.700 C 83.349 356.143,83.232 347.147,83.009 238.086 L 82.769 120.313 199.588 120.313 L 316.406 120.313 316.398 237.695 M140.194 145.743 C 134.793 148.409,135.156 141.383,135.156 243.225 L 135.156 335.036 137.160 337.417 C 142.736 344.045,153.017 340.693,154.287 331.832 C 155.723 321.820,154.308 151.188,152.770 148.917 C 150.058 144.911,144.647 143.546,140.194 145.743 M195.546 145.800 C 189.810 148.628,190.261 140.982,190.001 239.844 C 189.873 288.613,189.983 330.008,190.244 331.832 C 191.515 340.693,201.795 344.045,207.372 337.417 L 209.375 335.036 209.375 243.225 C 209.375 141.160,209.755 148.346,204.213 145.716 C 201.056 144.218,198.709 144.240,195.546 145.800 M250.781 145.862 C 244.902 148.880,245.277 141.929,245.502 243.750 C 245.686 327.059,245.813 334.921,246.999 336.595 C 251.629 343.133,261.949 341.886,264.079 334.531 C 264.659 332.529,264.845 303.747,264.685 240.835 L 264.453 150.030 262.109 147.703 C 259.040 144.656,254.552 143.926,250.781 145.862 " stroke="none" fill="#000000" fill-rule="evenodd"></path></g></svg>