<svg id="svg" xmlns="http://www.w3.org/2000/svg" xmlns:xlink="http://www.w3.org/1999/xlink" width="400" height="400" viewBox="0, 0, 400,400"><g id="svgg"><path id="path0" d="M339.844 1.645 C 335.205 3.429,153.410 183.663,151.628 188.244 C 150.323 191.600,139.840 245.499,139.845 248.828 C 139.854 254.899,145.101 260.146,151.172 260.155 C 154.501 260.160,208.400 249.677,211.756 248.372 C 216.776 246.420,396.598 64.731,398.424 59.766 C 400.913 52.999,400.427 42.830,397.322 36.719 C 394.252 30.675,369.335 5.755,363.281 2.673 C 357.326 -0.357,346.309 -0.841,339.844 1.645 M363.858 36.123 C 378.081 50.324,377.825 49.170,368.743 58.210 L 361.705 65.215 348.245 51.755 L 334.785 38.295 341.790 31.257 C 350.808 22.197,349.656 21.943,363.858 36.123 M272.640 154.313 L 200.742 226.214 184.212 229.500 C 175.120 231.307,167.563 232.667,167.418 232.522 C 167.273 232.378,168.711 224.771,170.614 215.618 L 174.072 198.978 245.820 127.226 L 317.568 55.475 331.053 68.944 L 344.538 82.412 272.640 154.313 M29.642 65.849 C 15.578 70.644,5.452 81.136,1.260 95.259 C -0.898 102.527,-0.638 362.615,1.534 369.644 C 5.715 383.176,15.901 393.528,29.642 398.213 L 34.766 399.960 167.632 399.980 C 287.615 399.998,300.909 399.878,304.741 398.740 C 319.214 394.444,329.951 383.798,334.595 369.141 L 336.328 363.672 336.328 272.656 C 336.328 183.026,336.304 181.601,334.766 179.048 C 330.380 171.769,319.100 171.309,314.215 178.208 C 312.994 179.932,312.860 187.152,312.500 270.703 L 312.109 361.328 310.038 365.234 C 307.609 369.816,305.586 371.803,300.781 374.326 L 297.266 376.172 167.969 376.172 L 38.672 376.172 34.766 374.101 C 30.184 371.672,28.197 369.648,25.674 364.844 L 23.828 361.328 23.828 232.031 L 23.828 102.734 25.899 98.828 C 28.328 94.246,30.352 92.259,35.156 89.737 L 38.672 87.891 129.297 87.500 C 212.848 87.140,220.068 87.006,221.792 85.785 C 228.533 81.012,228.308 70.117,221.374 65.545 C 219.218 64.124,215.964 64.073,126.953 64.088 L 34.766 64.103 29.642 65.849 " stroke="none" fill="#000000" fill-rule="evenodd"></path></g></svg>