<svg id="svg" xmlns="http://www.w3.org/2000/svg" xmlns:xlink="http://www.w3.org/1999/xlink" width="400" height="400" viewBox="0, 0, 400,400"><g id="svgg"><path id="path0" d="M250.951 56.055 C 233.846 71.932,213.281 94.660,213.281 97.686 C 213.281 101.539,211.465 99.499,248.687 137.469 L 276.670 166.016 139.828 166.406 L 2.987 166.797 1.493 168.641 C -0.818 171.496,-0.818 228.504,1.493 231.359 L 2.987 233.203 139.760 233.594 L 276.534 233.984 244.907 266.267 C 208.268 303.667,209.881 301.208,216.938 308.903 C 236.052 329.747,254.075 346.874,256.877 346.858 C 260.705 346.835,255.342 352.056,322.664 282.813 C 355.459 249.082,386.276 217.409,391.146 212.428 C 403.072 200.229,403.098 199.846,392.710 189.148 C 299.693 93.358,266.410 59.170,263.523 56.445 C 258.769 51.958,255.475 51.856,250.951 56.055 M320.143 135.056 C 354.611 170.450,382.813 199.651,382.813 199.948 C 382.813 200.245,354.536 229.514,319.977 264.992 L 257.141 329.496 243.426 315.725 L 229.711 301.953 248.271 283.203 C 302.315 228.605,300.781 230.253,300.781 226.754 C 300.781 224.165,300.336 223.202,298.378 221.554 L 295.974 219.531 155.018 219.531 L 14.063 219.531 14.063 200.000 L 14.063 180.469 155.138 180.469 L 296.214 180.469 298.498 178.185 C 304.150 172.533,307.304 176.422,250.599 119.107 C 239.527 107.916,230.469 98.459,230.469 98.090 C 230.469 97.295,256.451 70.421,257.057 70.588 C 257.287 70.651,285.675 99.662,320.143 135.056 " stroke="none" fill="#000000" fill-rule="evenodd"></path></g></svg>