<svg id="svg" xmlns="http://www.w3.org/2000/svg" xmlns:xlink="http://www.w3.org/1999/xlink" width="400" height="400" viewBox="0, 0, 400,400"><g id="svgg"><path id="path0" d="M227.344 45.774 C 223.981 47.226,182.559 88.326,180.869 91.886 C 178.055 97.817,179.560 102.502,186.554 109.580 L 191.774 114.863 173.275 133.361 L 154.777 151.860 146.334 150.493 C 107.175 144.152,75.763 149.567,59.446 165.471 C 47.850 176.774,47.058 175.423,91.262 219.731 L 127.705 256.259 87.722 296.293 C 65.731 318.313,47.369 337.318,46.916 338.527 C 42.786 349.570,53.026 359.537,63.892 355.051 C 65.897 354.223,79.074 341.584,106.437 314.242 L 146.077 274.632 182.218 310.714 C 206.858 335.314,219.284 347.181,221.264 348.007 C 227.838 350.749,232.553 349.042,238.578 341.738 C 253.636 323.482,258.227 293.581,251.849 255.297 L 250.550 247.501 269.015 229.036 L 287.481 210.570 292.764 215.744 C 305.028 227.756,305.935 227.401,333.362 199.856 C 355.222 177.902,355.469 177.566,355.469 169.840 C 355.469 161.936,355.957 162.488,296.341 102.957 C 233.547 40.251,235.802 42.120,227.344 45.774 M313.290 178.500 L 302.361 189.429 297.079 184.255 C 284.451 171.887,284.586 171.819,249.216 208.187 C 216.430 241.897,218.951 237.293,222.906 256.250 C 227.441 277.991,226.787 306.588,221.592 313.649 C 220.847 314.662,209.686 303.839,152.765 246.911 L 84.827 178.964 87.846 177.703 C 100.069 172.595,124.103 172.673,147.877 177.897 C 161.833 180.963,158.674 182.967,191.657 150.128 C 227.886 114.058,227.506 114.907,213.465 101.293 L 209.561 97.508 220.992 86.651 L 232.422 75.794 278.320 121.683 L 324.218 167.572 313.290 178.500 " stroke="none" fill="#000000" fill-rule="evenodd"></path></g></svg>