<svg id="svg" xmlns="http://www.w3.org/2000/svg" xmlns:xlink="http://www.w3.org/1999/xlink" width="400" height="400" viewBox="0, 0, 400,400"><g id="svgg"><path id="path0" d="M227.344 45.774 C 223.981 47.226,182.559 88.326,180.869 91.886 C 178.055 97.817,179.560 102.502,186.554 109.580 L 191.774 114.863 173.275 133.361 L 154.777 151.860 146.334 150.493 C 107.175 144.152,75.763 149.567,59.446 165.471 C 47.850 176.774,47.058 175.423,91.262 219.731 L 127.705 256.259 87.722 296.293 C 65.731 318.313,47.369 337.318,46.916 338.527 C 42.786 349.570,53.026 359.537,63.892 355.051 C 65.897 354.223,79.074 341.584,106.437 314.242 L 146.077 274.632 182.218 310.714 C 206.858 335.314,219.284 347.181,221.264 348.007 C 227.838 350.749,232.553 349.042,238.578 341.738 C 253.636 323.482,258.227 293.581,251.849 255.297 L 250.550 247.501 269.015 229.036 L 287.481 210.570 292.764 215.744 C 305.028 227.756,305.935 227.401,333.362 199.856 C 355.222 177.902,355.469 177.566,355.469 169.840 C 355.469 161.936,355.957 162.488,296.341 102.957 C 233.547 40.251,235.802 42.120,227.344 45.774 " stroke="none" fill="#000000" fill-rule="evenodd"></path></g></svg>