<svg id="svg" xmlns="http://www.w3.org/2000/svg" xmlns:xlink="http://www.w3.org/1999/xlink" width="400" height="400" viewBox="0, 0, 400,400"><g id="svgg"><path id="path0" d="M50.595 64.017 C 39.275 67.636,29.571 77.593,26.239 89.009 C 24.151 96.161,24.377 304.892,26.480 311.648 C 30.063 323.161,39.956 332.889,51.509 336.261 C 58.687 338.357,342.379 338.126,349.148 336.020 C 360.661 332.437,370.389 322.544,373.761 310.991 C 375.645 304.538,375.645 107.962,373.761 101.509 C 370.389 89.956,360.661 80.063,349.148 76.480 C 344.614 75.069,340.745 75.000,266.099 75.000 L 187.807 75.000 185.114 72.199 C 181.620 68.564,176.885 65.805,170.996 63.972 C 163.814 61.737,57.604 61.777,50.595 64.017 M161.719 88.346 C 167.047 89.570,169.033 92.105,176.965 107.813 C 192.558 138.692,188.706 137.494,272.543 137.519 C 336.790 137.537,340.768 137.700,344.471 140.459 C 349.982 144.567,349.609 138.431,349.609 225.000 C 349.609 311.569,349.982 305.433,344.471 309.541 C 340.637 312.398,337.442 312.463,200.000 312.463 C 62.558 312.463,59.363 312.398,55.529 309.541 C 49.957 305.387,50.391 314.634,50.391 200.000 C 50.391 98.671,50.412 97.229,51.953 94.613 C 53.893 91.320,56.809 89.096,60.252 88.283 C 64.294 87.329,157.542 87.386,161.719 88.346 M339.393 100.748 C 344.853 102.014,348.456 105.881,349.511 111.606 C 349.936 113.912,349.830 114.147,348.630 113.559 C 347.879 113.191,317.031 112.715,280.078 112.500 C 231.869 112.220,212.339 111.856,210.938 111.211 C 207.820 109.778,202.344 102.907,202.344 100.429 C 202.344 99.687,336.158 99.998,339.393 100.748 M193.157 176.558 C 187.977 179.716,187.506 181.491,187.503 197.852 L 187.500 212.500 172.852 212.503 C 153.699 212.507,150.006 214.527,150.006 225.000 C 150.006 235.473,153.699 237.493,172.852 237.497 L 187.500 237.500 187.503 252.148 C 187.507 271.301,189.527 274.994,200.000 274.994 C 210.473 274.994,212.493 271.301,212.497 252.148 L 212.500 237.500 227.148 237.497 C 246.301 237.493,249.994 235.473,249.994 225.000 C 249.994 214.527,246.301 212.507,227.148 212.503 L 212.500 212.500 212.497 197.852 C 212.494 181.491,212.023 179.716,206.843 176.558 C 203.384 174.449,196.616 174.449,193.157 176.558 " stroke="none" fill="#000000" fill-rule="evenodd"></path></g></svg>