<svg id="svg" xmlns="http://www.w3.org/2000/svg" xmlns:xlink="http://www.w3.org/1999/xlink" width="400" height="400" viewBox="0, 0, 400,400"><g id="svgg"><path id="path0" d="M250.351 40.935 C 238.146 43.264,228.847 46.952,218.625 53.516 C 211.845 57.869,157.097 111.872,155.015 116.259 C 150.642 125.475,156.496 137.466,166.545 139.877 C 175.819 142.102,176.590 141.552,208.203 110.189 C 240.363 78.283,242.871 76.509,259.005 74.265 C 276.095 71.888,289.616 77.884,306.687 95.407 C 322.744 111.891,327.816 124.004,325.704 140.831 C 323.681 156.958,321.889 159.503,289.820 191.797 C 274.886 206.836,262.132 220.207,261.479 221.511 C 254.203 236.026,269.817 252.042,284.058 244.670 C 288.942 242.142,342.022 188.323,346.484 181.375 C 373.003 140.081,360.535 90.745,314.844 56.170 C 297.856 43.315,271.054 36.984,250.351 40.935 M250.391 126.509 C 244.959 129.674,128.123 246.785,125.857 251.336 C 118.616 265.875,134.247 281.165,148.870 273.848 C 154.476 271.043,271.873 153.539,274.166 148.438 C 281.035 133.160,264.752 118.142,250.391 126.509 M122.266 153.556 C 121.836 153.678,120.078 154.011,118.359 154.296 C 114.462 154.941,61.513 207.019,54.597 217.010 C 26.546 257.529,38.909 308.834,85.156 343.830 C 112.405 364.449,151.712 365.533,181.375 346.484 C 188.323 342.022,242.142 288.942,244.670 284.058 C 252.042 269.817,236.026 254.203,221.511 261.479 C 220.207 262.132,206.836 274.880,191.797 289.807 C 159.652 321.713,157.141 323.489,141.013 325.732 C 123.955 328.105,110.750 322.295,93.693 304.912 C 77.258 288.163,72.165 276.152,74.296 259.169 C 76.318 243.057,78.114 240.505,110.176 208.203 C 141.552 176.592,142.102 175.820,139.877 166.545 C 138.046 158.913,128.413 151.808,122.266 153.556 M318.773 267.235 C 309.970 270.934,308.265 275.010,307.948 293.104 L 307.692 307.692 293.104 307.948 C 272.216 308.313,266.797 311.826,266.797 325.000 C 266.797 338.174,272.216 341.687,293.104 342.052 L 307.692 342.308 307.948 356.896 C 308.313 377.784,311.826 383.203,325.000 383.203 C 338.174 383.203,341.687 377.784,342.052 356.896 L 342.308 342.308 356.896 342.052 C 377.784 341.687,383.203 338.174,383.203 325.000 C 383.203 311.826,377.784 308.313,356.896 307.948 L 342.308 307.692 342.052 293.104 C 341.759 276.341,340.923 273.683,334.537 269.199 C 330.851 266.611,322.680 265.593,318.773 267.235 " stroke="none" fill="#000000" fill-rule="evenodd"></path></g></svg>