<svg id="svg" xmlns="http://www.w3.org/2000/svg" xmlns:xlink="http://www.w3.org/1999/xlink" width="400" height="400" viewBox="0, 0, 400,400"><g id="svgg"><path id="path0" d="M101.547 111.738 C 45.911 160.732,0.295 201.250,0.178 201.777 C -0.544 205.025,8.927 211.596,15.378 212.323 C 27.007 213.634,24.822 215.252,119.271 135.347 C 164.021 97.487,201.318 66.084,202.154 65.562 C 203.529 64.703,210.906 71.100,279.394 132.538 C 321.040 169.896,356.783 201.611,358.823 203.014 C 372.405 212.358,385.726 213.895,394.972 207.184 C 399.996 203.536,400.808 201.210,398.000 198.504 C 390.680 191.446,203.793 22.656,203.300 22.656 C 202.972 22.656,157.182 62.743,101.547 111.738 M313.281 87.422 L 313.281 111.563 332.757 128.047 C 343.469 137.113,352.434 144.531,352.679 144.531 C 352.924 144.531,353.125 126.250,353.125 103.906 L 353.125 63.281 333.203 63.281 L 313.281 63.281 313.281 87.422 M127.928 151.023 L 53.987 212.891 53.947 291.485 C 53.918 347.088,54.160 370.806,54.772 372.563 C 56.487 377.483,54.814 377.344,112.071 377.344 L 164.063 377.344 164.064 333.789 C 164.065 276.025,160.669 281.744,195.173 281.406 C 220.921 281.153,223.972 281.482,227.671 284.912 C 231.553 288.512,231.533 288.242,231.305 334.201 L 231.091 377.387 282.963 377.170 C 331.681 376.966,334.968 376.866,337.014 375.525 C 341.574 372.537,341.407 375.759,341.398 290.845 L 341.390 212.891 273.374 152.344 C 235.964 119.043,204.572 91.203,203.613 90.476 C 201.890 89.172,200.987 89.894,127.928 151.023 " stroke="none" fill="#000000" fill-rule="evenodd"></path></g></svg>