<svg id="svg" xmlns="http://www.w3.org/2000/svg" xmlns:xlink="http://www.w3.org/1999/xlink" width="400" height="400" viewBox="0, 0, 400,400"><g id="svgg"><path id="path0" d="M193.875 1.069 C 190.334 3.033,74.825 117.415,73.726 120.046 C 70.708 127.269,73.505 134.977,80.414 138.477 L 84.655 140.625 111.859 140.625 L 139.063 140.625 139.075 211.523 L 139.088 282.422 140.833 285.466 C 144.438 291.753,141.342 291.456,200.781 291.223 L 253.516 291.016 255.958 289.273 C 261.203 285.532,260.938 289.687,260.938 211.405 L 260.938 140.625 287.774 140.625 C 315.462 140.625,317.637 140.415,322.088 137.315 C 327.198 133.756,328.933 124.864,325.582 119.412 C 323.561 116.125,210.174 3.698,206.641 1.478 C 203.874 -0.260,196.687 -0.490,193.875 1.069 M242.614 74.670 L 284.056 115.234 263.317 115.625 C 249.610 115.883,241.862 116.335,240.467 116.959 C 235.743 119.069,235.938 115.742,235.938 194.492 L 235.938 266.406 200.000 266.406 L 164.063 266.406 164.063 194.582 C 164.063 150.827,163.771 121.991,163.316 120.795 C 161.621 116.336,160.177 116.051,137.146 115.625 L 116.016 115.234 157.721 74.383 C 180.658 51.915,199.819 33.661,200.299 33.819 C 200.779 33.976,219.821 52.359,242.614 74.670 M145.111 304.863 C 137.366 309.352,137.482 321.628,145.313 326.154 C 149.629 328.649,250.437 328.625,254.687 326.128 C 262.647 321.452,262.643 308.845,254.680 304.574 C 250.108 302.122,149.381 302.387,145.111 304.863 M146.390 340.176 C 137.722 343.980,136.858 356.108,144.832 362.061 C 148.223 364.593,251.777 364.593,255.168 362.061 C 262.711 356.429,262.711 346.697,255.168 341.064 C 252.381 338.982,150.997 338.155,146.390 340.176 M145.320 377.231 C 137.651 381.343,137.390 393.782,144.874 398.408 C 149.033 400.979,251.103 400.894,255.273 398.317 C 262.469 393.870,262.469 381.912,255.273 377.464 C 251.297 375.007,149.869 374.791,145.320 377.231 " stroke="none" fill="#000000" fill-rule="evenodd"></path></g></svg>